<svg width="70" height="59" viewBox="0 0 70 59" fill="none" xmlns="http://www.w3.org/2000/svg">
<path fill-rule="evenodd" clip-rule="evenodd" d="M48.736 29.5281C48.736 34.8928 46.975 39.3897 43.4279 43.0437C40.4971 46.0626 37.0506 47.855 33.0883 48.3644V53.4587H35.3525V58.4713C41.3587 57.5593 46.5914 54.8424 51.0693 50.333C56.7045 44.6726 59.5158 37.7544 59.5158 29.5784C59.5158 27.2262 59.2705 24.9747 58.8114 22.8174C58.7108 22.3143 58.5787 21.8174 58.4529 21.3269C59.5095 20.981 60.2642 19.9873 60.2642 18.8175C60.2642 18.176 60.0315 17.5974 59.6604 17.1445L66.7988 6.61001C66.9937 6.64774 66.5409 6.6729 67.3648 6.6729C68.1887 6.6729 70 5.49052 70 4.0377C70 2.58488 68.8176 1.4025 67.3648 1.4025C65.912 1.4025 64.7422 3.02513 64.7422 4.0377C64.7422 5.05656 64.9246 5.14461 65.2327 5.57857L58.0315 16.2137L57.6353 16.176C57.2642 16.176 56.912 16.2514 56.5913 16.3961C56.2076 16.5659 55.8554 16.8363 55.6039 17.1571L43.3775 13.3898C43.2203 12.0754 42.1071 11.0754 40.7675 11.0754C39.8178 11.0754 38.9814 11.5785 38.5159 12.3332C38.2707 12.7295 38.1323 13.1949 38.1323 13.7106C38.1323 14.3018 38.3398 14.8427 38.6732 15.2892L30.8934 26.8992C30.7361 26.874 30.5852 26.8614 30.428 26.8614C28.9751 26.8614 27.7928 28.0312 27.7928 29.4841C27.7928 30.9369 28.9751 32.1193 30.428 32.1193C31.8808 32.1193 33.0506 30.9369 33.0506 29.4841C33.0506 28.8803 32.843 28.3268 32.4971 27.874L40.2329 16.2829C40.4027 16.3206 40.5662 16.3332 40.7486 16.3332C41.5599 16.3332 42.2895 15.9621 42.7675 15.3835C42.975 15.5911 43.1763 15.7923 43.3838 15.9999C43.7926 16.4401 44.1952 16.8741 44.5662 17.3395C47.3461 20.7546 48.736 24.83 48.736 29.5281Z" fill="url(#paint0_linear_623_179)"/>
<path fill-rule="evenodd" clip-rule="evenodd" d="M30.3715 10.4528C32.774 10.4528 35.0256 10.8616 37.0948 11.6855C37.7992 10.4024 39.1639 9.52195 40.7488 9.52195C42.4847 9.52195 44.0004 10.6037 44.6167 12.1571L55.189 15.4087C55.4091 15.2703 55.6292 15.1383 55.8556 15.0251C54.5538 12.7358 52.9248 10.5911 50.9437 8.59742C45.2519 2.88048 38.4344 0 30.5288 0C25.2961 0 20.4094 1.31446 15.8685 3.93708C11.3402 6.57228 7.78052 10.1383 5.19563 14.6225C3.45979 17.6414 2.30256 20.8615 1.72395 24.264C7.67988 24.264 -4.15022 24.264 1.72395 24.264L1.72394 34.5658C-4.25715 34.5658 7.73018 34.5658 1.72394 34.5658C2.68619 40.4022 5.3277 45.5846 9.66101 50.1003C14.032 54.6914 19.3024 57.4713 25.4659 58.4336V58.3958C27.1137 58.6788 28.8118 58.8361 30.5351 58.8361C31.5351 58.8361 32.5413 58.7858 33.5036 58.6977V55.3141H31.2395V48.3519C30.9564 48.3644 30.6609 48.377 30.3778 48.377C25.2081 48.377 20.8622 46.5657 17.3528 42.962C13.9188 39.44 12.1578 34.9998 12.0824 29.6036C12.0824 24.0501 13.8308 19.4716 17.3528 15.8678C20.8559 12.2704 25.2018 10.4528 30.3715 10.4528Z" fill="#253276"/>
<defs>
<linearGradient id="paint0_linear_623_179" x1="52.8085" y1="62.7516" x2="28.002" y2="55.6758" gradientUnits="userSpaceOnUse">
<stop stop-color="#FF4F99"/>
<stop offset="1" stop-color="#7F37FE"/>
</linearGradient>
</defs>
</svg>
