<svg width="320" height="240" viewBox="0 0 320 240" fill="none" xmlns="http://www.w3.org/2000/svg">
<path d="M85.7635 0H9V206.835H85.7635V0Z" fill="#DBD9F7"/>
<path d="M67.9507 10.5359H10V196.298H67.9507V10.5359Z" fill="white"/>
<path d="M76.357 10.5359H67.8306V196.298H76.357V10.5359Z" fill="#F4F1F7"/>
<path d="M85.7635 98.1193H9V108.716H85.7635V98.1193Z" fill="#DBD9F7"/>
<path d="M142.735 37.345H108.209V53.024H142.735V37.345Z" fill="#DBD9F7"/>
<path d="M205.611 76.9575H171.084V92.6366H205.611V76.9575Z" fill="#DBD9F7"/>
<path d="M268.486 116.572H233.96V132.251H268.486V116.572Z" fill="#DBD9F7"/>
<path fill-rule="evenodd" clip-rule="evenodd" d="M18.4062 51.7231C18.5795 51.7127 18.7354 51.7075 18.9017 51.7075C20.2703 51.7073 21.612 52.0869 22.7776 52.8041C23.9432 53.5213 24.8869 54.548 25.5035 55.7697C26.2428 53.1768 27.8234 50.9032 29.9965 49.307C32.1696 47.7108 34.8118 46.8826 37.5072 46.9526C40.2026 47.0226 42.7982 47.987 44.8855 49.6939C46.9728 51.4008 48.4331 53.7534 49.0368 56.3813C49.6259 55.4484 50.5021 54.7321 51.5335 54.3403C52.5648 53.9485 53.6956 53.9023 54.7555 54.2087C55.8154 54.5151 56.7471 55.1575 57.4103 56.0392C58.0735 56.9209 58.4324 57.9942 58.4328 59.0975H18.4062V51.7231Z" fill="#F4F1F7"/>
<path fill-rule="evenodd" clip-rule="evenodd" d="M63.4256 151.192C63.4256 148.693 62.4327 146.296 60.6654 144.528C58.8981 142.761 56.5012 141.768 54.0018 141.768C51.5025 141.768 49.1056 142.761 47.3383 144.528C45.571 146.296 44.5781 148.693 44.5781 151.192H63.4256Z" fill="#F4F1F7"/>
<path fill-rule="evenodd" clip-rule="evenodd" d="M48.1032 151.192C48.0795 149.958 47.5726 148.782 46.6914 147.917C45.8101 147.053 44.6249 146.569 43.3905 146.569C42.156 146.569 40.9708 147.053 40.0895 147.917C39.2083 148.782 38.7014 149.958 38.6777 151.192H48.1032Z" fill="#F4F1F7"/>
<path fill-rule="evenodd" clip-rule="evenodd" d="M98.6567 149.534L83.5198 216.824L51.7373 205.439L71.4526 162.859C72.5171 160.559 74.0831 158.526 76.0357 156.91C77.9884 155.294 80.2781 154.136 82.7368 153.52L98.6567 149.534Z" fill="#09699A"/>
<path fill-rule="evenodd" clip-rule="evenodd" d="M111.93 146.211L100.523 149.066C96.95 149.961 93.7339 151.92 91.3003 154.685C88.8668 157.449 87.3309 160.887 86.8962 164.544C84.3722 185.791 79.4976 226.812 79.4976 226.812H188.345L176.739 171.365L163.206 153.122C161.814 151.247 159.742 149.995 157.436 149.634L135.458 146.211H111.93Z" fill="#45A39E"/>
<path fill-rule="evenodd" clip-rule="evenodd" d="M145.238 207.771L152.422 158.545L161.581 206.833L145.238 207.771Z" fill="#09699A"/>
<path fill-rule="evenodd" clip-rule="evenodd" d="M228.711 174.372C228.814 173.986 228.827 173.581 228.749 173.189C228.671 172.797 228.504 172.428 228.261 172.111C228.018 171.794 227.705 171.537 227.346 171.36C226.988 171.183 226.594 171.091 226.194 171.091H145.405L130.45 226.812H212.23C212.922 226.812 213.594 226.584 214.143 226.163C214.692 225.742 215.087 225.152 215.267 224.484C217.623 215.705 225.972 184.594 228.715 174.372H228.711Z" fill="#DBD9F7"/>
<path fill-rule="evenodd" clip-rule="evenodd" d="M184.981 193.623C188.887 193.623 191.217 196.793 190.162 200.699C189.107 204.606 185.095 207.776 181.189 207.776C177.283 207.776 174.963 204.604 176.009 200.699C177.056 196.795 181.076 193.621 184.981 193.621V193.623Z" fill="white"/>
<path fill-rule="evenodd" clip-rule="evenodd" d="M146.78 173.417C146.854 173.144 146.863 172.856 146.808 172.578C146.753 172.3 146.635 172.039 146.462 171.814C146.29 171.589 146.068 171.406 145.813 171.281C145.559 171.156 145.279 171.091 144.996 171.091H144.823C144.416 171.091 144.021 171.225 143.698 171.472C143.376 171.72 143.144 172.067 143.038 172.459L128.451 226.812H132.454C132.454 226.812 143.953 183.97 146.784 173.417H146.78Z" fill="#C3BFF1"/>
<path fill-rule="evenodd" clip-rule="evenodd" d="M132.151 222.033H100.086C99.707 222.033 99.3438 222.184 99.0758 222.452C98.8079 222.72 98.6572 223.083 98.6567 223.462V225.388C98.6567 225.767 98.8073 226.131 99.0753 226.399C99.3433 226.667 99.7069 226.817 100.086 226.817H132.151V222.033Z" fill="#C3BFF1"/>
<path fill-rule="evenodd" clip-rule="evenodd" d="M78.1221 141.768C78.1221 141.768 81.1692 137.484 82.9725 134.962C83.3228 134.469 83.8449 134.124 84.4362 133.996C85.0275 133.868 85.6454 133.965 86.1686 134.269L89.7458 136.337C90.2123 136.608 90.5695 137.033 90.7556 137.539C90.9416 138.046 90.9447 138.601 90.7644 139.109C90.5793 139.627 90.2169 140.063 89.7413 140.339C89.2657 140.616 88.7077 140.715 88.166 140.62L83.3034 139.754L78.1359 141.768H78.1221Z" fill="#D58866"/>
<path fill-rule="evenodd" clip-rule="evenodd" d="M106.229 137.463H89.583V140.029C89.583 142.234 90.4591 144.349 92.0184 145.909C93.5778 147.468 95.6928 148.344 97.8981 148.344C100.103 148.344 102.218 147.468 103.778 145.909C105.337 144.349 106.213 142.234 106.213 140.029L106.229 137.463Z" fill="#DBD9F7"/>
<path fill-rule="evenodd" clip-rule="evenodd" d="M89.583 137.463H87.3137C86.6366 137.464 85.9874 137.733 85.5086 138.212C85.0299 138.691 84.7607 139.34 84.7603 140.017H89.583V137.463Z" fill="#C3BFF1"/>
<path fill-rule="evenodd" clip-rule="evenodd" d="M78.1065 141.798C78.3334 141.353 78.6644 140.97 79.0714 140.682C79.4783 140.393 79.949 140.207 80.4434 140.14L86.7559 139.274C87.5619 139.164 88.3786 139.377 89.0288 139.866C89.679 140.354 90.1103 141.08 90.2292 141.884C90.683 144.938 91.3725 149.6 91.7883 152.443C91.8924 153.143 91.7528 153.857 91.393 154.467C91.0332 155.076 90.475 155.544 89.8117 155.791L82.7612 158.424C82.7612 158.424 83.8768 189.225 84.6113 209.482C84.6928 211.727 84.321 213.965 83.5183 216.063C82.7155 218.161 81.4981 220.075 79.939 221.692C78.3798 223.309 76.5107 224.595 74.4434 225.474C72.3761 226.352 70.153 226.805 67.9067 226.805H67.8479C65.1348 226.804 62.4629 226.142 60.0627 224.877C57.6626 223.612 55.6064 221.782 54.0716 219.545C52.5369 217.308 51.5697 214.731 51.2535 212.036C50.9374 209.342 51.2819 206.611 52.2571 204.079L70.5624 156.571L78.1065 141.798Z" fill="#FFB28C"/>
<path fill-rule="evenodd" clip-rule="evenodd" d="M132.151 96.4615H102.21V124.613C102.21 125.526 102.389 126.43 102.739 127.274C103.088 128.117 103.6 128.884 104.246 129.529C104.891 130.175 105.658 130.687 106.501 131.036C107.345 131.385 108.249 131.565 109.162 131.565H132.151V96.4615Z" fill="#FFB28C"/>
<path fill-rule="evenodd" clip-rule="evenodd" d="M113.142 128.616C113.142 128.616 112.261 141.373 111.543 151.758C111.428 153.44 111.66 155.127 112.224 156.716C112.788 158.304 113.672 159.76 114.822 160.992C115.972 162.224 117.364 163.207 118.909 163.879C120.455 164.552 122.123 164.899 123.808 164.9H123.893C125.644 164.899 127.374 164.524 128.968 163.801C130.562 163.078 131.984 162.023 133.137 160.707C134.291 159.39 135.151 157.843 135.658 156.168C136.166 154.492 136.31 152.728 136.082 150.993L132.146 121.24L113.142 128.616Z" fill="#FFB28C"/>
<path fill-rule="evenodd" clip-rule="evenodd" d="M112.943 131.565H120.674L112.359 140.017L112.943 131.565Z" fill="#D58866"/>
<path fill-rule="evenodd" clip-rule="evenodd" d="M128.932 113.417C123.663 110.102 126.68 105.404 123.663 103.11C120.645 100.817 109.007 105.068 102.686 99.8101C96.3649 94.5525 98.4887 89.1252 102.21 86.8871C105.931 84.649 108.559 85.4891 116.446 89.1252C123.122 92.2018 127.323 82.1493 133.116 85.4874C141.178 90.1334 134.787 96.4633 135.801 99.3042C137.76 104.787 140.455 104.227 138.877 109.653C137.299 115.079 132.151 119.442 132.151 119.442C132.151 119.442 132.724 115.804 128.932 113.416V113.417Z" fill="#00006C"/>
<path fill-rule="evenodd" clip-rule="evenodd" d="M137.301 117.327C137.3 116.29 136.888 115.295 136.154 114.562C135.42 113.829 134.425 113.417 133.388 113.417H128.931V121.244H133.388C134.426 121.244 135.421 120.832 136.155 120.098C136.889 119.364 137.301 118.368 137.301 117.331V117.327Z" fill="#FFB28C"/>
<path fill-rule="evenodd" clip-rule="evenodd" d="M134.449 117.327C134.449 116.808 134.243 116.31 133.876 115.943C133.509 115.576 133.011 115.37 132.492 115.37H131.782V119.285H132.492C133.011 119.285 133.509 119.078 133.876 118.711C134.243 118.344 134.449 117.846 134.449 117.327Z" fill="#D58866"/>
<path d="M320 226.812H0V240H320V226.812Z" fill="#9694E9"/>
<path d="M90.2651 226.812H0V240H90.2651V226.812Z" fill="#4C4DA4"/>
<path fill-rule="evenodd" clip-rule="evenodd" d="M271.869 202.818C271.869 202.818 275.193 196.304 264.164 187.617C253.922 179.551 249.786 181.632 248.017 185.303C246.901 187.617 247.513 190.993 256.387 193.366C265.262 195.74 270.402 196.677 271.869 202.818Z" fill="#45A39E"/>
<path fill-rule="evenodd" clip-rule="evenodd" d="M271.869 202.818C271.869 202.818 272.648 192.648 279.079 184.965C285.509 177.282 291.245 175.577 293.827 178.961C296.748 182.786 293.086 186.455 286.586 189.138C279.624 192.013 276.471 193.988 271.862 202.823L271.869 202.818Z" fill="#45A39E"/>
<path fill-rule="evenodd" clip-rule="evenodd" d="M271.869 202.818C272.093 200.954 265.718 183.243 264.82 177.828C263.599 170.464 265.435 164.352 270.468 163.569C275.5 162.786 277.826 170.079 276.26 178.682C274.694 187.284 271.869 202.818 271.869 202.818Z" fill="#45A39E"/>
<path fill-rule="evenodd" clip-rule="evenodd" d="M284.083 200.694H260.11C260.11 200.694 261.958 217.833 262.662 224.345C262.737 225.022 263.058 225.648 263.565 226.103C264.072 226.558 264.729 226.811 265.411 226.812H278.782C279.464 226.811 280.121 226.558 280.628 226.103C281.135 225.648 281.457 225.022 281.532 224.345C282.235 217.833 284.085 200.694 284.085 200.694H284.083Z" fill="#4C4DA4"/>
<path d="M199.367 42.7234H267.858C267.955 42.7234 268.049 42.6853 268.118 42.6175C268.186 42.5497 268.225 42.4577 268.225 42.3617C268.225 42.2658 268.186 42.1738 268.118 42.1059C268.049 42.0381 267.955 42 267.858 42H199.367C199.27 42 199.176 42.0381 199.108 42.1059C199.039 42.1738 199 42.2658 199 42.3617C199 42.4577 199.039 42.5497 199.108 42.6175C199.176 42.6853 199.27 42.7234 199.367 42.7234Z" fill="#D7D7E2"/>
<path d="M199.367 48.0263H267.858C267.955 48.0263 268.049 47.9882 268.118 47.9204C268.186 47.8525 268.225 47.7605 268.225 47.6646C268.223 47.5692 268.184 47.4783 268.115 47.4109C268.047 47.3434 267.955 47.3047 267.858 47.3029H199.367C199.27 47.3029 199.176 47.341 199.108 47.4088C199.039 47.4766 199 47.5686 199 47.6646C199 47.7605 199.039 47.8525 199.108 47.9204C199.176 47.9882 199.27 48.0263 199.367 48.0263Z" fill="#D7D7E2"/>
<path d="M199.837 53.3362H268.342C268.439 53.3344 268.531 53.2957 268.6 53.2282C268.668 53.1608 268.708 53.0699 268.709 52.9745C268.709 52.8786 268.671 52.7866 268.602 52.7187C268.533 52.6509 268.44 52.6128 268.342 52.6128H199.837C199.74 52.6128 199.646 52.6509 199.577 52.7187C199.508 52.7866 199.47 52.8786 199.47 52.9745C199.47 53.0705 199.508 53.1625 199.577 53.2303C199.646 53.2981 199.74 53.3362 199.837 53.3362Z" fill="#D7D7E2"/>
</svg>
