<svg width="343" height="238" viewBox="0 0 343 238" fill="none" xmlns="http://www.w3.org/2000/svg">
<path d="M50.0048 36.1997C41.0726 36.1997 33.8081 28.9342 33.8081 20.003C33.8081 11.0718 41.0726 3.80627 50.0048 3.80627C58.937 3.80627 66.2015 11.0728 66.2015 20.003C66.2015 28.9332 58.9309 36.1997 50.0048 36.1997ZM50.0048 4.4295C41.4187 4.4295 34.4334 11.4149 34.4334 20.001C34.4334 28.587 41.4147 35.5744 50.0048 35.5744C58.5949 35.5744 65.5763 28.5891 65.5763 20.003C65.5763 11.4169 58.5868 4.43153 50.0048 4.43153V4.4295Z" fill="#ACCDF9"/>
<mask id="path-2-inside-1_422_1379" fill="white">
<path d="M334.731 151.983C334.497 151.983 334.266 151.938 334.049 151.849C333.756 151.722 333.494 151.532 333.282 151.292C333.049 151.035 332.866 150.737 332.741 150.413L332.691 150.279C332.674 150.235 332.657 150.188 332.642 150.142C332.581 149.957 332.507 149.778 332.42 149.605C332.344 149.452 332.223 149.328 332.073 149.25C331.907 149.182 331.723 149.169 331.55 149.214C331.354 149.261 331.162 149.323 330.976 149.4L330.919 149.422L330.863 149.443C330.616 149.54 330.358 149.607 330.095 149.644C329.876 149.672 329.654 149.664 329.438 149.619C329.169 149.561 328.922 149.425 328.728 149.229C328.544 149.05 328.428 148.812 328.399 148.556C328.387 148.414 328.398 148.27 328.431 148.131C328.461 148.005 328.499 147.881 328.544 147.759L328.742 147.187L328.939 146.614C329.013 146.415 329.066 146.208 329.095 145.997C329.123 145.818 329.085 145.635 328.987 145.483C328.894 145.361 328.764 145.274 328.616 145.234C328.444 145.185 328.267 145.15 328.089 145.13C327.989 145.117 327.889 145.102 327.789 145.083C327.688 145.066 327.588 145.041 327.49 145.011C327.187 144.911 326.918 144.73 326.711 144.487C326.557 144.305 326.442 144.093 326.375 143.864C326.307 143.635 326.288 143.395 326.318 143.159C326.348 142.922 326.427 142.694 326.55 142.49C326.673 142.286 326.837 142.109 327.032 141.972C327.156 141.886 327.289 141.814 327.429 141.757C327.566 141.697 327.705 141.651 327.843 141.602C327.909 141.58 327.978 141.558 328.043 141.534C328.108 141.509 328.176 141.483 328.241 141.456C328.382 141.395 328.514 141.315 328.633 141.22C328.776 141.127 328.879 140.984 328.92 140.819C328.961 140.653 328.938 140.478 328.856 140.329C328.79 140.193 328.714 140.063 328.627 139.939C328.572 139.854 328.516 139.766 328.464 139.675C328.41 139.586 328.363 139.492 328.325 139.395C328.251 139.204 328.218 139 328.228 138.796C328.24 138.581 328.292 138.369 328.382 138.174C328.482 137.954 328.624 137.755 328.8 137.59C328.968 137.426 329.169 137.299 329.39 137.218C329.715 137.102 330.065 137.077 330.403 137.146C330.776 137.222 331.127 137.379 331.433 137.607L331.518 137.668L331.601 137.733C331.692 137.804 331.787 137.873 331.869 137.919C331.944 137.97 332.028 138.006 332.117 138.025C332.171 138.035 332.227 138.029 332.277 138.006C332.401 137.947 332.507 137.854 332.583 137.739C332.671 137.62 332.741 137.489 332.793 137.35C332.846 137.209 332.891 137.059 332.935 136.903C332.958 136.828 332.98 136.754 333.004 136.679C333.028 136.605 333.05 136.533 333.078 136.46C333.187 136.163 333.348 135.887 333.555 135.648C333.743 135.428 333.978 135.253 334.242 135.135C334.542 135.003 334.876 134.967 335.197 135.031C335.504 135.088 335.782 135.249 335.984 135.486C336.108 135.64 336.202 135.816 336.262 136.005C336.322 136.193 336.371 136.384 336.409 136.577C336.443 136.773 336.493 136.966 336.559 137.153C336.619 137.352 336.751 137.521 336.929 137.627C337.108 137.733 337.319 137.767 337.522 137.724C337.795 137.687 338.065 137.624 338.327 137.538C338.636 137.433 338.956 137.362 339.281 137.326C339.433 137.308 339.587 137.319 339.735 137.36C339.882 137.401 340.02 137.471 340.141 137.566C340.262 137.66 340.362 137.778 340.438 137.911C340.513 138.045 340.561 138.192 340.58 138.345C340.624 138.64 340.608 138.941 340.533 139.229C340.509 139.326 340.479 139.415 340.45 139.514C340.42 139.612 340.387 139.699 340.353 139.794C340.299 139.95 340.246 140.101 340.203 140.251C340.16 140.399 340.132 140.55 340.119 140.703C340.111 140.778 340.111 140.854 340.119 140.93C340.127 140.994 340.144 141.056 340.169 141.115C340.247 141.27 340.379 141.389 340.541 141.45C340.727 141.529 340.92 141.591 341.118 141.636C341.231 141.666 341.348 141.695 341.463 141.731C341.577 141.766 341.689 141.809 341.798 141.859C342.063 141.987 342.289 142.182 342.453 142.426C342.704 142.791 342.8 143.241 342.722 143.677C342.644 144.114 342.398 144.502 342.036 144.758C341.926 144.831 341.809 144.893 341.687 144.944C341.568 144.998 341.448 145.044 341.327 145.089L341.142 145.157L340.967 145.232C340.839 145.29 340.72 145.364 340.611 145.453C340.474 145.559 340.38 145.711 340.346 145.88C340.33 146.012 340.349 146.145 340.401 146.267C340.459 146.404 340.526 146.537 340.602 146.665L340.633 146.722L340.665 146.778C340.876 147.164 341.003 147.591 341.036 148.031C341.059 148.254 341.036 148.48 340.97 148.694C340.904 148.909 340.795 149.108 340.65 149.279C340.485 149.455 340.282 149.592 340.058 149.68C339.833 149.767 339.592 149.804 339.351 149.787C338.849 149.767 338.36 149.613 337.937 149.341L337.897 149.315L337.856 149.29C337.789 149.244 337.72 149.201 337.648 149.162C337.583 149.125 337.513 149.098 337.44 149.082C337.339 149.07 337.237 149.083 337.142 149.12C337.047 149.156 336.962 149.216 336.895 149.292C336.729 149.46 336.606 149.665 336.535 149.891C336.511 149.961 336.49 150.034 336.472 150.106C336.453 150.179 336.435 150.251 336.416 150.326C336.37 150.524 336.313 150.72 336.245 150.913C336.174 151.109 336.07 151.291 335.937 151.452C335.79 151.622 335.605 151.756 335.398 151.842C335.187 151.932 334.961 151.98 334.731 151.983ZM331.78 148.798C331.858 148.798 331.935 148.806 332.011 148.822C332.091 148.838 332.168 148.864 332.242 148.898C332.453 149.003 332.627 149.171 332.741 149.378C332.852 149.581 332.944 149.795 333.013 150.017C333.03 150.06 333.045 150.104 333.062 150.147C333.078 150.19 333.093 150.233 333.11 150.274C333.216 150.546 333.37 150.798 333.564 151.017C333.739 151.216 333.956 151.374 334.199 151.48C334.452 151.584 334.73 151.612 334.999 151.56C335.25 151.516 335.48 151.388 335.65 151.197C335.757 151.066 335.84 150.916 335.895 150.755C335.954 150.583 336.004 150.408 336.045 150.231C336.064 150.153 336.084 150.075 336.104 149.999C336.125 149.922 336.147 149.844 336.171 149.77C336.272 149.458 336.452 149.177 336.694 148.956C336.804 148.852 336.936 148.774 337.08 148.729C337.224 148.684 337.376 148.672 337.526 148.696C337.631 148.717 337.733 148.753 337.828 148.804C337.921 148.852 338.014 148.908 338.086 148.96L338.125 148.984L338.162 149.008C338.511 149.233 338.911 149.366 339.325 149.395C339.515 149.415 339.707 149.393 339.887 149.328C340.066 149.264 340.229 149.159 340.362 149.023C340.477 148.884 340.561 148.723 340.611 148.55C340.66 148.377 340.673 148.196 340.648 148.018C340.609 147.652 340.498 147.297 340.322 146.975L340.29 146.921L340.26 146.865C340.168 146.71 340.089 146.548 340.023 146.38C339.955 146.203 339.932 146.011 339.956 145.823C339.997 145.581 340.119 145.362 340.303 145.2C340.452 145.065 340.622 144.954 340.806 144.871L340.991 144.791L341.177 144.717C341.29 144.676 341.4 144.633 341.503 144.587C341.607 144.543 341.706 144.489 341.798 144.425C341.937 144.329 342.054 144.207 342.145 144.066C342.236 143.924 342.298 143.766 342.327 143.6C342.356 143.435 342.353 143.265 342.317 143.101C342.28 142.936 342.212 142.781 342.116 142.643C341.989 142.458 341.816 142.309 341.615 142.21C341.521 142.165 341.424 142.127 341.324 142.099C341.221 142.067 341.114 142.041 341.008 142.013C340.771 141.96 340.539 141.883 340.318 141.783C340.094 141.678 339.913 141.499 339.808 141.275C339.768 141.187 339.741 141.093 339.728 140.997C339.716 140.888 339.716 140.779 339.728 140.671C339.742 140.495 339.774 140.321 339.823 140.151C339.869 139.984 339.926 139.82 339.984 139.658C340.014 139.571 340.045 139.484 340.075 139.395C340.105 139.305 340.131 139.209 340.153 139.127C340.212 138.906 340.228 138.676 340.201 138.449C340.18 138.232 340.076 138.033 339.912 137.891C339.817 137.822 339.71 137.772 339.596 137.745C339.483 137.717 339.365 137.713 339.249 137.731C338.976 137.768 338.706 137.831 338.444 137.917C338.137 138.021 337.821 138.092 337.5 138.129C337.191 138.166 336.88 138.085 336.628 137.902C336.44 137.759 336.296 137.566 336.212 137.345C336.129 137.126 336.067 136.899 336.026 136.668C335.987 136.494 335.95 136.323 335.898 136.167C335.854 136.015 335.781 135.873 335.683 135.748C335.536 135.579 335.334 135.466 335.112 135.429C334.873 135.384 334.626 135.411 334.403 135.507C334.188 135.604 333.998 135.749 333.846 135.931C333.676 136.131 333.542 136.361 333.453 136.609C333.427 136.676 333.405 136.745 333.383 136.815C333.36 136.886 333.34 136.955 333.32 137.023C333.274 137.192 333.22 137.358 333.156 137.521C333.093 137.688 333.007 137.846 332.9 137.99C332.794 138.141 332.656 138.268 332.496 138.361C332.362 138.435 332.206 138.459 332.056 138.43C331.928 138.406 331.806 138.358 331.696 138.289C331.582 138.216 331.472 138.138 331.366 138.055L331.286 137.995L331.206 137.936C330.996 137.78 330.76 137.661 330.51 137.583C330.19 137.482 329.845 137.487 329.527 137.598C329.357 137.66 329.201 137.759 329.071 137.886C328.935 138.016 328.824 138.171 328.746 138.343C328.678 138.49 328.638 138.649 328.627 138.811C328.619 138.962 328.643 139.114 328.698 139.255C328.73 139.337 328.769 139.416 328.815 139.491C328.859 139.569 328.911 139.647 328.963 139.729C329.068 139.881 329.16 140.042 329.238 140.21C329.317 140.382 329.351 140.57 329.336 140.759C329.312 140.986 329.215 141.199 329.061 141.368C328.877 141.568 328.651 141.724 328.399 141.825C328.33 141.855 328.26 141.883 328.189 141.909L327.974 141.983C327.844 142.028 327.718 142.071 327.603 142.123C327.485 142.173 327.372 142.235 327.267 142.309C327.067 142.448 326.91 142.641 326.815 142.866C326.743 143.035 326.707 143.217 326.709 143.4C326.711 143.583 326.751 143.764 326.827 143.931C326.903 144.098 327.012 144.247 327.149 144.369C327.285 144.492 327.446 144.584 327.62 144.641C327.704 144.666 327.789 144.687 327.876 144.702C327.967 144.719 328.061 144.732 328.154 144.745C328.37 144.769 328.582 144.813 328.789 144.879C329 144.945 329.185 145.074 329.319 145.25C329.476 145.489 329.538 145.777 329.494 146.059C329.464 146.293 329.406 146.524 329.321 146.745L329.125 147.317L328.928 147.887C328.89 147.99 328.857 148.095 328.83 148.201C328.803 148.305 328.793 148.412 328.8 148.519C328.824 148.702 328.916 148.869 329.056 148.988C329.192 149.109 329.356 149.194 329.533 149.235C329.712 149.272 329.897 149.277 330.078 149.25C330.303 149.213 330.523 149.15 330.733 149.064L330.789 149.043L330.844 149.023C330.993 148.965 331.149 148.906 331.306 148.861C331.461 148.819 331.62 148.798 331.78 148.798ZM334.854 147.432C333.944 147.432 333.063 147.115 332.361 146.537C331.658 145.959 331.177 145.154 331 144.261C330.823 143.367 330.961 142.44 331.39 141.637C331.818 140.834 332.512 140.204 333.352 139.856C334.193 139.507 335.128 139.461 335.998 139.726C336.868 139.99 337.62 140.549 338.125 141.306C338.63 142.064 338.858 142.973 338.769 143.88C338.68 144.786 338.28 145.634 337.637 146.278C337.272 146.645 336.838 146.936 336.361 147.134C335.883 147.332 335.371 147.433 334.854 147.432ZM334.854 139.963C334.036 139.962 333.243 140.246 332.61 140.765C331.978 141.284 331.544 142.007 331.384 142.81C331.224 143.613 331.347 144.447 331.732 145.17C332.117 145.893 332.74 146.46 333.496 146.773C334.251 147.087 335.092 147.129 335.875 146.892C336.657 146.654 337.334 146.152 337.788 145.471C338.243 144.79 338.448 143.972 338.368 143.157C338.287 142.342 337.928 141.58 337.349 141C337.022 140.672 336.633 140.411 336.205 140.233C335.777 140.055 335.317 139.963 334.854 139.963Z"/>
</mask>
<path d="M334.731 151.983C334.497 151.983 334.266 151.938 334.049 151.849C333.756 151.722 333.494 151.532 333.282 151.292C333.049 151.035 332.866 150.737 332.741 150.413L332.691 150.279C332.674 150.235 332.657 150.188 332.642 150.142C332.581 149.957 332.507 149.778 332.42 149.605C332.344 149.452 332.223 149.328 332.073 149.25C331.907 149.182 331.723 149.169 331.55 149.214C331.354 149.261 331.162 149.323 330.976 149.4L330.919 149.422L330.863 149.443C330.616 149.54 330.358 149.607 330.095 149.644C329.876 149.672 329.654 149.664 329.438 149.619C329.169 149.561 328.922 149.425 328.728 149.229C328.544 149.05 328.428 148.812 328.399 148.556C328.387 148.414 328.398 148.27 328.431 148.131C328.461 148.005 328.499 147.881 328.544 147.759L328.742 147.187L328.939 146.614C329.013 146.415 329.066 146.208 329.095 145.997C329.123 145.818 329.085 145.635 328.987 145.483C328.894 145.361 328.764 145.274 328.616 145.234C328.444 145.185 328.267 145.15 328.089 145.13C327.989 145.117 327.889 145.102 327.789 145.083C327.688 145.066 327.588 145.041 327.49 145.011C327.187 144.911 326.918 144.73 326.711 144.487C326.557 144.305 326.442 144.093 326.375 143.864C326.307 143.635 326.288 143.395 326.318 143.159C326.348 142.922 326.427 142.694 326.55 142.49C326.673 142.286 326.837 142.109 327.032 141.972C327.156 141.886 327.289 141.814 327.429 141.757C327.566 141.697 327.705 141.651 327.843 141.602C327.909 141.58 327.978 141.558 328.043 141.534C328.108 141.509 328.176 141.483 328.241 141.456C328.382 141.395 328.514 141.315 328.633 141.22C328.776 141.127 328.879 140.984 328.92 140.819C328.961 140.653 328.938 140.478 328.856 140.329C328.79 140.193 328.714 140.063 328.627 139.939C328.572 139.854 328.516 139.766 328.464 139.675C328.41 139.586 328.363 139.492 328.325 139.395C328.251 139.204 328.218 139 328.228 138.796C328.24 138.581 328.292 138.369 328.382 138.174C328.482 137.954 328.624 137.755 328.8 137.59C328.968 137.426 329.169 137.299 329.39 137.218C329.715 137.102 330.065 137.077 330.403 137.146C330.776 137.222 331.127 137.379 331.433 137.607L331.518 137.668L331.601 137.733C331.692 137.804 331.787 137.873 331.869 137.919C331.944 137.97 332.028 138.006 332.117 138.025C332.171 138.035 332.227 138.029 332.277 138.006C332.401 137.947 332.507 137.854 332.583 137.739C332.671 137.62 332.741 137.489 332.793 137.35C332.846 137.209 332.891 137.059 332.935 136.903C332.958 136.828 332.98 136.754 333.004 136.679C333.028 136.605 333.05 136.533 333.078 136.46C333.187 136.163 333.348 135.887 333.555 135.648C333.743 135.428 333.978 135.253 334.242 135.135C334.542 135.003 334.876 134.967 335.197 135.031C335.504 135.088 335.782 135.249 335.984 135.486C336.108 135.64 336.202 135.816 336.262 136.005C336.322 136.193 336.371 136.384 336.409 136.577C336.443 136.773 336.493 136.966 336.559 137.153C336.619 137.352 336.751 137.521 336.929 137.627C337.108 137.733 337.319 137.767 337.522 137.724C337.795 137.687 338.065 137.624 338.327 137.538C338.636 137.433 338.956 137.362 339.281 137.326C339.433 137.308 339.587 137.319 339.735 137.36C339.882 137.401 340.02 137.471 340.141 137.566C340.262 137.66 340.362 137.778 340.438 137.911C340.513 138.045 340.561 138.192 340.58 138.345C340.624 138.64 340.608 138.941 340.533 139.229C340.509 139.326 340.479 139.415 340.45 139.514C340.42 139.612 340.387 139.699 340.353 139.794C340.299 139.95 340.246 140.101 340.203 140.251C340.16 140.399 340.132 140.55 340.119 140.703C340.111 140.778 340.111 140.854 340.119 140.93C340.127 140.994 340.144 141.056 340.169 141.115C340.247 141.27 340.379 141.389 340.541 141.45C340.727 141.529 340.92 141.591 341.118 141.636C341.231 141.666 341.348 141.695 341.463 141.731C341.577 141.766 341.689 141.809 341.798 141.859C342.063 141.987 342.289 142.182 342.453 142.426C342.704 142.791 342.8 143.241 342.722 143.677C342.644 144.114 342.398 144.502 342.036 144.758C341.926 144.831 341.809 144.893 341.687 144.944C341.568 144.998 341.448 145.044 341.327 145.089L341.142 145.157L340.967 145.232C340.839 145.29 340.72 145.364 340.611 145.453C340.474 145.559 340.38 145.711 340.346 145.88C340.33 146.012 340.349 146.145 340.401 146.267C340.459 146.404 340.526 146.537 340.602 146.665L340.633 146.722L340.665 146.778C340.876 147.164 341.003 147.591 341.036 148.031C341.059 148.254 341.036 148.48 340.97 148.694C340.904 148.909 340.795 149.108 340.65 149.279C340.485 149.455 340.282 149.592 340.058 149.68C339.833 149.767 339.592 149.804 339.351 149.787C338.849 149.767 338.36 149.613 337.937 149.341L337.897 149.315L337.856 149.29C337.789 149.244 337.72 149.201 337.648 149.162C337.583 149.125 337.513 149.098 337.44 149.082C337.339 149.07 337.237 149.083 337.142 149.12C337.047 149.156 336.962 149.216 336.895 149.292C336.729 149.46 336.606 149.665 336.535 149.891C336.511 149.961 336.49 150.034 336.472 150.106C336.453 150.179 336.435 150.251 336.416 150.326C336.37 150.524 336.313 150.72 336.245 150.913C336.174 151.109 336.07 151.291 335.937 151.452C335.79 151.622 335.605 151.756 335.398 151.842C335.187 151.932 334.961 151.98 334.731 151.983ZM331.78 148.798C331.858 148.798 331.935 148.806 332.011 148.822C332.091 148.838 332.168 148.864 332.242 148.898C332.453 149.003 332.627 149.171 332.741 149.378C332.852 149.581 332.944 149.795 333.013 150.017C333.03 150.06 333.045 150.104 333.062 150.147C333.078 150.19 333.093 150.233 333.11 150.274C333.216 150.546 333.37 150.798 333.564 151.017C333.739 151.216 333.956 151.374 334.199 151.48C334.452 151.584 334.73 151.612 334.999 151.56C335.25 151.516 335.48 151.388 335.65 151.197C335.757 151.066 335.84 150.916 335.895 150.755C335.954 150.583 336.004 150.408 336.045 150.231C336.064 150.153 336.084 150.075 336.104 149.999C336.125 149.922 336.147 149.844 336.171 149.77C336.272 149.458 336.452 149.177 336.694 148.956C336.804 148.852 336.936 148.774 337.08 148.729C337.224 148.684 337.376 148.672 337.526 148.696C337.631 148.717 337.733 148.753 337.828 148.804C337.921 148.852 338.014 148.908 338.086 148.96L338.125 148.984L338.162 149.008C338.511 149.233 338.911 149.366 339.325 149.395C339.515 149.415 339.707 149.393 339.887 149.328C340.066 149.264 340.229 149.159 340.362 149.023C340.477 148.884 340.561 148.723 340.611 148.55C340.66 148.377 340.673 148.196 340.648 148.018C340.609 147.652 340.498 147.297 340.322 146.975L340.29 146.921L340.26 146.865C340.168 146.71 340.089 146.548 340.023 146.38C339.955 146.203 339.932 146.011 339.956 145.823C339.997 145.581 340.119 145.362 340.303 145.2C340.452 145.065 340.622 144.954 340.806 144.871L340.991 144.791L341.177 144.717C341.29 144.676 341.4 144.633 341.503 144.587C341.607 144.543 341.706 144.489 341.798 144.425C341.937 144.329 342.054 144.207 342.145 144.066C342.236 143.924 342.298 143.766 342.327 143.6C342.356 143.435 342.353 143.265 342.317 143.101C342.28 142.936 342.212 142.781 342.116 142.643C341.989 142.458 341.816 142.309 341.615 142.21C341.521 142.165 341.424 142.127 341.324 142.099C341.221 142.067 341.114 142.041 341.008 142.013C340.771 141.96 340.539 141.883 340.318 141.783C340.094 141.678 339.913 141.499 339.808 141.275C339.768 141.187 339.741 141.093 339.728 140.997C339.716 140.888 339.716 140.779 339.728 140.671C339.742 140.495 339.774 140.321 339.823 140.151C339.869 139.984 339.926 139.82 339.984 139.658C340.014 139.571 340.045 139.484 340.075 139.395C340.105 139.305 340.131 139.209 340.153 139.127C340.212 138.906 340.228 138.676 340.201 138.449C340.18 138.232 340.076 138.033 339.912 137.891C339.817 137.822 339.71 137.772 339.596 137.745C339.483 137.717 339.365 137.713 339.249 137.731C338.976 137.768 338.706 137.831 338.444 137.917C338.137 138.021 337.821 138.092 337.5 138.129C337.191 138.166 336.88 138.085 336.628 137.902C336.44 137.759 336.296 137.566 336.212 137.345C336.129 137.126 336.067 136.899 336.026 136.668C335.987 136.494 335.95 136.323 335.898 136.167C335.854 136.015 335.781 135.873 335.683 135.748C335.536 135.579 335.334 135.466 335.112 135.429C334.873 135.384 334.626 135.411 334.403 135.507C334.188 135.604 333.998 135.749 333.846 135.931C333.676 136.131 333.542 136.361 333.453 136.609C333.427 136.676 333.405 136.745 333.383 136.815C333.36 136.886 333.34 136.955 333.32 137.023C333.274 137.192 333.22 137.358 333.156 137.521C333.093 137.688 333.007 137.846 332.9 137.99C332.794 138.141 332.656 138.268 332.496 138.361C332.362 138.435 332.206 138.459 332.056 138.43C331.928 138.406 331.806 138.358 331.696 138.289C331.582 138.216 331.472 138.138 331.366 138.055L331.286 137.995L331.206 137.936C330.996 137.78 330.76 137.661 330.51 137.583C330.19 137.482 329.845 137.487 329.527 137.598C329.357 137.66 329.201 137.759 329.071 137.886C328.935 138.016 328.824 138.171 328.746 138.343C328.678 138.49 328.638 138.649 328.627 138.811C328.619 138.962 328.643 139.114 328.698 139.255C328.73 139.337 328.769 139.416 328.815 139.491C328.859 139.569 328.911 139.647 328.963 139.729C329.068 139.881 329.16 140.042 329.238 140.21C329.317 140.382 329.351 140.57 329.336 140.759C329.312 140.986 329.215 141.199 329.061 141.368C328.877 141.568 328.651 141.724 328.399 141.825C328.33 141.855 328.26 141.883 328.189 141.909L327.974 141.983C327.844 142.028 327.718 142.071 327.603 142.123C327.485 142.173 327.372 142.235 327.267 142.309C327.067 142.448 326.91 142.641 326.815 142.866C326.743 143.035 326.707 143.217 326.709 143.4C326.711 143.583 326.751 143.764 326.827 143.931C326.903 144.098 327.012 144.247 327.149 144.369C327.285 144.492 327.446 144.584 327.62 144.641C327.704 144.666 327.789 144.687 327.876 144.702C327.967 144.719 328.061 144.732 328.154 144.745C328.37 144.769 328.582 144.813 328.789 144.879C329 144.945 329.185 145.074 329.319 145.25C329.476 145.489 329.538 145.777 329.494 146.059C329.464 146.293 329.406 146.524 329.321 146.745L329.125 147.317L328.928 147.887C328.89 147.99 328.857 148.095 328.83 148.201C328.803 148.305 328.793 148.412 328.8 148.519C328.824 148.702 328.916 148.869 329.056 148.988C329.192 149.109 329.356 149.194 329.533 149.235C329.712 149.272 329.897 149.277 330.078 149.25C330.303 149.213 330.523 149.15 330.733 149.064L330.789 149.043L330.844 149.023C330.993 148.965 331.149 148.906 331.306 148.861C331.461 148.819 331.62 148.798 331.78 148.798ZM334.854 147.432C333.944 147.432 333.063 147.115 332.361 146.537C331.658 145.959 331.177 145.154 331 144.261C330.823 143.367 330.961 142.44 331.39 141.637C331.818 140.834 332.512 140.204 333.352 139.856C334.193 139.507 335.128 139.461 335.998 139.726C336.868 139.99 337.62 140.549 338.125 141.306C338.63 142.064 338.858 142.973 338.769 143.88C338.68 144.786 338.28 145.634 337.637 146.278C337.272 146.645 336.838 146.936 336.361 147.134C335.883 147.332 335.371 147.433 334.854 147.432ZM334.854 139.963C334.036 139.962 333.243 140.246 332.61 140.765C331.978 141.284 331.544 142.007 331.384 142.81C331.224 143.613 331.347 144.447 331.732 145.17C332.117 145.893 332.74 146.46 333.496 146.773C334.251 147.087 335.092 147.129 335.875 146.892C336.657 146.654 337.334 146.152 337.788 145.471C338.243 144.79 338.448 143.972 338.368 143.157C338.287 142.342 337.928 141.58 337.349 141C337.022 140.672 336.633 140.411 336.205 140.233C335.777 140.055 335.317 139.963 334.854 139.963Z" fill="#8F6CFE" stroke="#8F6CFE" stroke-width="2" mask="url(#path-2-inside-1_422_1379)"/>
<mask id="path-3-inside-2_422_1379" fill="white">
<path d="M325.242 176.587C325.078 176.587 324.915 176.571 324.754 176.54C324.59 176.508 324.43 176.46 324.277 176.395C323.86 176.217 323.487 175.949 323.184 175.611C322.853 175.243 322.591 174.817 322.412 174.355L322.34 174.169C322.316 174.104 322.292 174.037 322.269 173.972C322.18 173.691 322.066 173.418 321.93 173.156C321.812 172.921 321.622 172.729 321.388 172.61C321.133 172.5 320.85 172.477 320.581 172.545C320.285 172.613 319.994 172.706 319.713 172.821L319.629 172.853L319.546 172.886C319.191 173.025 318.821 173.121 318.444 173.175C318.135 173.217 317.821 173.205 317.516 173.139C317.14 173.058 316.795 172.87 316.522 172.598C316.268 172.35 316.106 172.022 316.063 171.669C316.046 171.472 316.061 171.273 316.108 171.08C316.153 170.897 316.207 170.715 316.271 170.537L316.562 169.699L316.852 168.861C316.965 168.557 317.043 168.241 317.084 167.919C317.126 167.64 317.064 167.356 316.909 167.12C316.762 166.929 316.557 166.79 316.325 166.724C316.065 166.649 315.799 166.597 315.531 166.568C315.388 166.548 315.241 166.525 315.097 166.499C314.953 166.474 314.811 166.44 314.672 166.397C314.245 166.257 313.865 166.002 313.574 165.658C313.284 165.315 313.094 164.897 313.027 164.452C312.96 164.007 313.018 163.553 313.194 163.139C313.37 162.724 313.657 162.368 314.024 162.108C314.202 161.986 314.392 161.884 314.592 161.803C314.789 161.719 314.989 161.649 315.186 161.582C315.286 161.547 315.386 161.513 315.484 161.476C315.583 161.439 315.681 161.403 315.778 161.363C315.995 161.266 316.198 161.141 316.382 160.991C316.604 160.843 316.762 160.618 316.827 160.36C316.891 160.101 316.857 159.828 316.731 159.593C316.631 159.387 316.515 159.189 316.384 159.001C316.304 158.876 316.223 158.752 316.149 158.629C316.072 158.501 316.005 158.366 315.95 158.228C315.846 157.96 315.8 157.673 315.815 157.386C315.832 157.083 315.905 156.787 316.032 156.512C316.173 156.201 316.374 155.92 316.622 155.685C316.861 155.456 317.145 155.278 317.457 155.163C317.919 155 318.416 154.965 318.896 155.063C319.428 155.172 319.929 155.396 320.364 155.721L320.486 155.81L320.607 155.903C320.738 156.007 320.874 156.105 321.015 156.196C321.132 156.275 321.263 156.331 321.401 156.36C321.508 156.378 321.618 156.363 321.717 156.317C321.899 156.219 322.056 156.078 322.173 155.906C322.304 155.727 322.41 155.53 322.488 155.321C322.57 155.111 322.635 154.886 322.702 154.656C322.735 154.548 322.767 154.438 322.8 154.33C322.833 154.223 322.871 154.115 322.909 154.009C323.065 153.585 323.296 153.193 323.59 152.851C323.857 152.54 324.189 152.29 324.563 152.121C324.986 151.936 325.456 151.885 325.91 151.974C326.338 152.053 326.727 152.278 327.01 152.61C327.185 152.831 327.317 153.083 327.401 153.353C327.487 153.621 327.557 153.894 327.611 154.171C327.664 154.465 327.742 154.754 327.843 155.035C327.939 155.339 328.143 155.598 328.416 155.761C328.69 155.925 329.014 155.982 329.327 155.921C329.738 155.864 330.142 155.768 330.535 155.633C330.977 155.485 331.432 155.382 331.895 155.328C332.109 155.299 332.326 155.312 332.534 155.368C332.742 155.424 332.937 155.522 333.107 155.654C333.277 155.787 333.419 155.953 333.524 156.141C333.629 156.33 333.695 156.537 333.719 156.752C333.781 157.168 333.758 157.592 333.65 157.999C333.615 158.138 333.572 158.276 333.528 158.413C333.483 158.551 333.437 158.685 333.389 158.817C333.309 159.047 333.231 159.272 333.168 159.495C333.103 159.715 333.061 159.942 333.043 160.171C333.03 160.29 333.03 160.41 333.043 160.528C333.056 160.628 333.083 160.726 333.125 160.818C333.243 161.06 333.446 161.25 333.695 161.351C333.974 161.471 334.263 161.564 334.559 161.63C334.726 161.673 334.893 161.716 335.058 161.766C335.223 161.816 335.384 161.878 335.539 161.952C335.912 162.132 336.231 162.407 336.465 162.749C336.699 163.09 336.839 163.488 336.873 163.901C336.907 164.314 336.832 164.729 336.656 165.104C336.48 165.479 336.21 165.802 335.871 166.04C335.714 166.148 335.548 166.241 335.374 166.317C335.201 166.395 335.027 166.462 334.854 166.527C334.767 166.561 334.678 166.592 334.591 166.627C334.504 166.663 334.418 166.698 334.333 166.737C334.133 166.826 333.945 166.943 333.776 167.083C333.562 167.251 333.415 167.491 333.363 167.759C333.338 167.965 333.368 168.174 333.45 168.365C333.536 168.572 333.637 168.774 333.75 168.967L333.795 169.049L333.839 169.131C334.143 169.681 334.327 170.289 334.379 170.915C334.413 171.231 334.382 171.551 334.289 171.856C334.196 172.16 334.042 172.442 333.838 172.686C333.605 172.935 333.32 173.13 333.004 173.255C332.687 173.38 332.346 173.432 332.006 173.409C331.289 173.375 330.592 173.152 329.99 172.76L329.932 172.723L329.874 172.686C329.767 172.615 329.661 172.546 329.555 172.491C329.454 172.433 329.345 172.393 329.231 172.37C329.071 172.35 328.908 172.369 328.757 172.425C328.606 172.48 328.471 172.572 328.362 172.691C328.105 172.952 327.914 173.271 327.806 173.621C327.772 173.726 327.743 173.832 327.713 173.94C327.683 174.048 327.657 174.156 327.631 174.265C327.565 174.551 327.482 174.833 327.385 175.109C327.285 175.388 327.137 175.648 326.949 175.877C326.742 176.116 326.482 176.304 326.19 176.425C325.887 176.541 325.565 176.595 325.242 176.587ZM320.921 172.108C321.028 172.107 321.136 172.118 321.242 172.139C321.351 172.162 321.456 172.197 321.557 172.245C321.854 172.394 322.097 172.631 322.255 172.924C322.411 173.214 322.541 173.518 322.642 173.832C322.665 173.897 322.689 173.961 322.711 174.018C322.733 174.076 322.757 174.143 322.781 174.204C322.94 174.617 323.172 174.998 323.466 175.328C323.731 175.628 324.06 175.866 324.427 176.023C324.815 176.184 325.242 176.226 325.654 176.146C326.041 176.078 326.394 175.882 326.657 175.589C326.819 175.389 326.944 175.162 327.028 174.92C327.118 174.663 327.193 174.402 327.253 174.137C327.281 174.024 327.31 173.91 327.34 173.799C327.37 173.687 327.403 173.576 327.438 173.466C327.577 173.028 327.827 172.633 328.164 172.322C328.313 172.173 328.495 172.063 328.695 171.998C328.895 171.934 329.107 171.917 329.314 171.95C329.461 171.978 329.602 172.028 329.733 172.098C329.863 172.167 329.986 172.247 330.105 172.325L330.16 172.361L330.214 172.398C330.742 172.737 331.348 172.935 331.975 172.974C332.583 173.002 333.16 172.836 333.556 172.392C333.73 172.182 333.86 171.937 333.936 171.675C334.012 171.412 334.033 171.136 333.997 170.865C333.942 170.312 333.775 169.776 333.505 169.29L333.461 169.211L333.416 169.131C333.286 168.91 333.173 168.679 333.081 168.439C332.984 168.195 332.95 167.931 332.982 167.67C333.04 167.334 333.213 167.029 333.47 166.806C333.679 166.617 333.917 166.462 334.173 166.347C334.262 166.306 334.359 166.269 334.444 166.232L334.704 166.144C334.873 166.081 335.036 166.02 335.192 165.949C335.346 165.881 335.494 165.799 335.634 165.704C335.914 165.505 336.139 165.236 336.284 164.924C336.43 164.611 336.492 164.266 336.464 163.923C336.435 163.579 336.318 163.249 336.124 162.965C335.93 162.68 335.665 162.452 335.355 162.301C335.214 162.235 335.067 162.181 334.917 162.138C334.763 162.089 334.606 162.048 334.45 162.007C334.108 161.934 333.775 161.824 333.457 161.679C333.146 161.536 332.896 161.288 332.752 160.978C332.697 160.856 332.659 160.726 332.641 160.593C332.62 160.442 332.616 160.288 332.63 160.136C332.65 159.884 332.696 159.635 332.767 159.393C332.834 159.151 332.917 158.913 332.999 158.681C333.043 158.553 333.09 158.423 333.133 158.291C333.175 158.159 333.214 158.027 333.248 157.897C333.338 157.557 333.362 157.203 333.318 156.854C333.285 156.514 333.122 156.2 332.863 155.977C332.572 155.762 332.207 155.671 331.849 155.724C331.434 155.781 331.026 155.876 330.63 156.01C330.193 156.159 329.742 156.262 329.285 156.317C328.849 156.37 328.41 156.258 328.053 156.003C327.789 155.8 327.587 155.528 327.47 155.217C327.352 154.903 327.263 154.58 327.203 154.251C327.156 153.996 327.094 153.745 327.017 153.498C326.948 153.268 326.836 153.053 326.687 152.864C326.457 152.6 326.142 152.424 325.796 152.366C325.429 152.296 325.049 152.338 324.706 152.487C324.38 152.634 324.091 152.852 323.861 153.126C323.603 153.429 323.401 153.776 323.264 154.15C323.225 154.252 323.192 154.355 323.16 154.457C323.128 154.559 323.097 154.665 323.065 154.771C322.997 155.007 322.926 155.249 322.833 155.483C322.741 155.721 322.616 155.944 322.462 156.148C322.315 156.354 322.125 156.526 321.906 156.652C321.726 156.747 321.519 156.783 321.318 156.752C321.14 156.718 320.969 156.651 320.817 156.553C320.654 156.451 320.497 156.34 320.347 156.22C320.308 156.191 320.269 156.159 320.229 156.131L320.112 156.042C319.792 155.809 319.436 155.63 319.058 155.512C318.573 155.36 318.053 155.368 317.573 155.537C317.312 155.634 317.074 155.784 316.872 155.977C316.664 156.177 316.495 156.415 316.375 156.678C316.268 156.904 316.205 157.149 316.189 157.399C316.175 157.632 316.212 157.866 316.295 158.084C316.348 158.209 316.41 158.329 316.481 158.443C316.549 158.56 316.625 158.677 316.7 158.792C316.849 159.009 316.98 159.238 317.091 159.476C317.203 159.716 317.251 159.98 317.232 160.244C317.185 160.639 316.985 161.001 316.676 161.251C316.446 161.449 316.187 161.611 315.907 161.729C315.807 161.771 315.705 161.81 315.603 161.85L315.291 161.959C315.106 162.024 314.909 162.089 314.735 162.165C314.558 162.237 314.388 162.328 314.23 162.435C313.923 162.653 313.682 162.952 313.534 163.299C313.425 163.558 313.371 163.836 313.375 164.117C313.378 164.398 313.44 164.675 313.556 164.931C313.673 165.187 313.84 165.415 314.049 165.603C314.258 165.79 314.504 165.932 314.77 166.02C314.897 166.059 315.027 166.09 315.158 166.113C315.293 166.137 315.431 166.157 315.568 166.176C315.876 166.209 316.181 166.271 316.477 166.362C316.795 166.457 317.068 166.663 317.249 166.942C317.43 167.22 317.506 167.554 317.464 167.884C317.426 168.262 317.338 168.634 317.204 168.989L316.915 169.828L316.625 170.664C316.572 170.824 316.516 170.985 316.479 171.145C316.437 171.302 316.423 171.465 316.436 171.626C316.472 171.915 316.615 172.18 316.835 172.37C317.046 172.56 317.301 172.693 317.577 172.756C317.847 172.813 318.125 172.822 318.397 172.782C318.736 172.731 319.067 172.642 319.386 172.518L319.47 172.487L319.553 172.455C319.765 172.374 319.987 172.29 320.214 172.225C320.439 172.153 320.674 172.114 320.911 172.108H320.921ZM325.422 169.922C324.111 169.924 322.841 169.47 321.827 168.638C320.814 167.807 320.12 166.648 319.863 165.361C319.606 164.074 319.803 162.738 320.42 161.58C321.037 160.422 322.036 159.515 323.246 159.012C324.456 158.509 325.803 158.442 327.057 158.822C328.311 159.203 329.395 160.007 330.123 161.098C330.851 162.189 331.179 163.499 331.051 164.806C330.923 166.112 330.346 167.333 329.42 168.261C328.895 168.789 328.27 169.208 327.582 169.493C326.894 169.778 326.157 169.924 325.412 169.922H325.422ZM325.422 158.986C324.203 158.983 323.022 159.404 322.079 160.176C321.136 160.948 320.489 162.025 320.249 163.221C320.01 164.417 320.192 165.66 320.765 166.737C321.338 167.814 322.266 168.658 323.391 169.127C324.516 169.595 325.768 169.658 326.934 169.304C328.1 168.951 329.108 168.204 329.785 167.19C330.463 166.175 330.768 164.957 330.649 163.743C330.53 162.528 329.994 161.393 329.132 160.53C328.644 160.04 328.064 159.652 327.426 159.387C326.788 159.122 326.103 158.985 325.412 158.986H325.422Z"/>
</mask>
<path d="M325.242 176.587C325.078 176.587 324.915 176.571 324.754 176.54C324.59 176.508 324.43 176.46 324.277 176.395C323.86 176.217 323.487 175.949 323.184 175.611C322.853 175.243 322.591 174.817 322.412 174.355L322.34 174.169C322.316 174.104 322.292 174.037 322.269 173.972C322.18 173.691 322.066 173.418 321.93 173.156C321.812 172.921 321.622 172.729 321.388 172.61C321.133 172.5 320.85 172.477 320.581 172.545C320.285 172.613 319.994 172.706 319.713 172.821L319.629 172.853L319.546 172.886C319.191 173.025 318.821 173.121 318.444 173.175C318.135 173.217 317.821 173.205 317.516 173.139C317.14 173.058 316.795 172.87 316.522 172.598C316.268 172.35 316.106 172.022 316.063 171.669C316.046 171.472 316.061 171.273 316.108 171.08C316.153 170.897 316.207 170.715 316.271 170.537L316.562 169.699L316.852 168.861C316.965 168.557 317.043 168.241 317.084 167.919C317.126 167.64 317.064 167.356 316.909 167.12C316.762 166.929 316.557 166.79 316.325 166.724C316.065 166.649 315.799 166.597 315.531 166.568C315.388 166.548 315.241 166.525 315.097 166.499C314.953 166.474 314.811 166.44 314.672 166.397C314.245 166.257 313.865 166.002 313.574 165.658C313.284 165.315 313.094 164.897 313.027 164.452C312.96 164.007 313.018 163.553 313.194 163.139C313.37 162.724 313.657 162.368 314.024 162.108C314.202 161.986 314.392 161.884 314.592 161.803C314.789 161.719 314.989 161.649 315.186 161.582C315.286 161.547 315.386 161.513 315.484 161.476C315.583 161.439 315.681 161.403 315.778 161.363C315.995 161.266 316.198 161.141 316.382 160.991C316.604 160.843 316.762 160.618 316.827 160.36C316.891 160.101 316.857 159.828 316.731 159.593C316.631 159.387 316.515 159.189 316.384 159.001C316.304 158.876 316.223 158.752 316.149 158.629C316.072 158.501 316.005 158.366 315.95 158.228C315.846 157.96 315.8 157.673 315.815 157.386C315.832 157.083 315.905 156.787 316.032 156.512C316.173 156.201 316.374 155.92 316.622 155.685C316.861 155.456 317.145 155.278 317.457 155.163C317.919 155 318.416 154.965 318.896 155.063C319.428 155.172 319.929 155.396 320.364 155.721L320.486 155.81L320.607 155.903C320.738 156.007 320.874 156.105 321.015 156.196C321.132 156.275 321.263 156.331 321.401 156.36C321.508 156.378 321.618 156.363 321.717 156.317C321.899 156.219 322.056 156.078 322.173 155.906C322.304 155.727 322.41 155.53 322.488 155.321C322.57 155.111 322.635 154.886 322.702 154.656C322.735 154.548 322.767 154.438 322.8 154.33C322.833 154.223 322.871 154.115 322.909 154.009C323.065 153.585 323.296 153.193 323.59 152.851C323.857 152.54 324.189 152.29 324.563 152.121C324.986 151.936 325.456 151.885 325.91 151.974C326.338 152.053 326.727 152.278 327.01 152.61C327.185 152.831 327.317 153.083 327.401 153.353C327.487 153.621 327.557 153.894 327.611 154.171C327.664 154.465 327.742 154.754 327.843 155.035C327.939 155.339 328.143 155.598 328.416 155.761C328.69 155.925 329.014 155.982 329.327 155.921C329.738 155.864 330.142 155.768 330.535 155.633C330.977 155.485 331.432 155.382 331.895 155.328C332.109 155.299 332.326 155.312 332.534 155.368C332.742 155.424 332.937 155.522 333.107 155.654C333.277 155.787 333.419 155.953 333.524 156.141C333.629 156.33 333.695 156.537 333.719 156.752C333.781 157.168 333.758 157.592 333.65 157.999C333.615 158.138 333.572 158.276 333.528 158.413C333.483 158.551 333.437 158.685 333.389 158.817C333.309 159.047 333.231 159.272 333.168 159.495C333.103 159.715 333.061 159.942 333.043 160.171C333.03 160.29 333.03 160.41 333.043 160.528C333.056 160.628 333.083 160.726 333.125 160.818C333.243 161.06 333.446 161.25 333.695 161.351C333.974 161.471 334.263 161.564 334.559 161.63C334.726 161.673 334.893 161.716 335.058 161.766C335.223 161.816 335.384 161.878 335.539 161.952C335.912 162.132 336.231 162.407 336.465 162.749C336.699 163.09 336.839 163.488 336.873 163.901C336.907 164.314 336.832 164.729 336.656 165.104C336.48 165.479 336.21 165.802 335.871 166.04C335.714 166.148 335.548 166.241 335.374 166.317C335.201 166.395 335.027 166.462 334.854 166.527C334.767 166.561 334.678 166.592 334.591 166.627C334.504 166.663 334.418 166.698 334.333 166.737C334.133 166.826 333.945 166.943 333.776 167.083C333.562 167.251 333.415 167.491 333.363 167.759C333.338 167.965 333.368 168.174 333.45 168.365C333.536 168.572 333.637 168.774 333.75 168.967L333.795 169.049L333.839 169.131C334.143 169.681 334.327 170.289 334.379 170.915C334.413 171.231 334.382 171.551 334.289 171.856C334.196 172.16 334.042 172.442 333.838 172.686C333.605 172.935 333.32 173.13 333.004 173.255C332.687 173.38 332.346 173.432 332.006 173.409C331.289 173.375 330.592 173.152 329.99 172.76L329.932 172.723L329.874 172.686C329.767 172.615 329.661 172.546 329.555 172.491C329.454 172.433 329.345 172.393 329.231 172.37C329.071 172.35 328.908 172.369 328.757 172.425C328.606 172.48 328.471 172.572 328.362 172.691C328.105 172.952 327.914 173.271 327.806 173.621C327.772 173.726 327.743 173.832 327.713 173.94C327.683 174.048 327.657 174.156 327.631 174.265C327.565 174.551 327.482 174.833 327.385 175.109C327.285 175.388 327.137 175.648 326.949 175.877C326.742 176.116 326.482 176.304 326.19 176.425C325.887 176.541 325.565 176.595 325.242 176.587ZM320.921 172.108C321.028 172.107 321.136 172.118 321.242 172.139C321.351 172.162 321.456 172.197 321.557 172.245C321.854 172.394 322.097 172.631 322.255 172.924C322.411 173.214 322.541 173.518 322.642 173.832C322.665 173.897 322.689 173.961 322.711 174.018C322.733 174.076 322.757 174.143 322.781 174.204C322.94 174.617 323.172 174.998 323.466 175.328C323.731 175.628 324.06 175.866 324.427 176.023C324.815 176.184 325.242 176.226 325.654 176.146C326.041 176.078 326.394 175.882 326.657 175.589C326.819 175.389 326.944 175.162 327.028 174.92C327.118 174.663 327.193 174.402 327.253 174.137C327.281 174.024 327.31 173.91 327.34 173.799C327.37 173.687 327.403 173.576 327.438 173.466C327.577 173.028 327.827 172.633 328.164 172.322C328.313 172.173 328.495 172.063 328.695 171.998C328.895 171.934 329.107 171.917 329.314 171.95C329.461 171.978 329.602 172.028 329.733 172.098C329.863 172.167 329.986 172.247 330.105 172.325L330.16 172.361L330.214 172.398C330.742 172.737 331.348 172.935 331.975 172.974C332.583 173.002 333.16 172.836 333.556 172.392C333.73 172.182 333.86 171.937 333.936 171.675C334.012 171.412 334.033 171.136 333.997 170.865C333.942 170.312 333.775 169.776 333.505 169.29L333.461 169.211L333.416 169.131C333.286 168.91 333.173 168.679 333.081 168.439C332.984 168.195 332.95 167.931 332.982 167.67C333.04 167.334 333.213 167.029 333.47 166.806C333.679 166.617 333.917 166.462 334.173 166.347C334.262 166.306 334.359 166.269 334.444 166.232L334.704 166.144C334.873 166.081 335.036 166.02 335.192 165.949C335.346 165.881 335.494 165.799 335.634 165.704C335.914 165.505 336.139 165.236 336.284 164.924C336.43 164.611 336.492 164.266 336.464 163.923C336.435 163.579 336.318 163.249 336.124 162.965C335.93 162.68 335.665 162.452 335.355 162.301C335.214 162.235 335.067 162.181 334.917 162.138C334.763 162.089 334.606 162.048 334.45 162.007C334.108 161.934 333.775 161.824 333.457 161.679C333.146 161.536 332.896 161.288 332.752 160.978C332.697 160.856 332.659 160.726 332.641 160.593C332.62 160.442 332.616 160.288 332.63 160.136C332.65 159.884 332.696 159.635 332.767 159.393C332.834 159.151 332.917 158.913 332.999 158.681C333.043 158.553 333.09 158.423 333.133 158.291C333.175 158.159 333.214 158.027 333.248 157.897C333.338 157.557 333.362 157.203 333.318 156.854C333.285 156.514 333.122 156.2 332.863 155.977C332.572 155.762 332.207 155.671 331.849 155.724C331.434 155.781 331.026 155.876 330.63 156.01C330.193 156.159 329.742 156.262 329.285 156.317C328.849 156.37 328.41 156.258 328.053 156.003C327.789 155.8 327.587 155.528 327.47 155.217C327.352 154.903 327.263 154.58 327.203 154.251C327.156 153.996 327.094 153.745 327.017 153.498C326.948 153.268 326.836 153.053 326.687 152.864C326.457 152.6 326.142 152.424 325.796 152.366C325.429 152.296 325.049 152.338 324.706 152.487C324.38 152.634 324.091 152.852 323.861 153.126C323.603 153.429 323.401 153.776 323.264 154.15C323.225 154.252 323.192 154.355 323.16 154.457C323.128 154.559 323.097 154.665 323.065 154.771C322.997 155.007 322.926 155.249 322.833 155.483C322.741 155.721 322.616 155.944 322.462 156.148C322.315 156.354 322.125 156.526 321.906 156.652C321.726 156.747 321.519 156.783 321.318 156.752C321.14 156.718 320.969 156.651 320.817 156.553C320.654 156.451 320.497 156.34 320.347 156.22C320.308 156.191 320.269 156.159 320.229 156.131L320.112 156.042C319.792 155.809 319.436 155.63 319.058 155.512C318.573 155.36 318.053 155.368 317.573 155.537C317.312 155.634 317.074 155.784 316.872 155.977C316.664 156.177 316.495 156.415 316.375 156.678C316.268 156.904 316.205 157.149 316.189 157.399C316.175 157.632 316.212 157.866 316.295 158.084C316.348 158.209 316.41 158.329 316.481 158.443C316.549 158.56 316.625 158.677 316.7 158.792C316.849 159.009 316.98 159.238 317.091 159.476C317.203 159.716 317.251 159.98 317.232 160.244C317.185 160.639 316.985 161.001 316.676 161.251C316.446 161.449 316.187 161.611 315.907 161.729C315.807 161.771 315.705 161.81 315.603 161.85L315.291 161.959C315.106 162.024 314.909 162.089 314.735 162.165C314.558 162.237 314.388 162.328 314.23 162.435C313.923 162.653 313.682 162.952 313.534 163.299C313.425 163.558 313.371 163.836 313.375 164.117C313.378 164.398 313.44 164.675 313.556 164.931C313.673 165.187 313.84 165.415 314.049 165.603C314.258 165.79 314.504 165.932 314.77 166.02C314.897 166.059 315.027 166.09 315.158 166.113C315.293 166.137 315.431 166.157 315.568 166.176C315.876 166.209 316.181 166.271 316.477 166.362C316.795 166.457 317.068 166.663 317.249 166.942C317.43 167.22 317.506 167.554 317.464 167.884C317.426 168.262 317.338 168.634 317.204 168.989L316.915 169.828L316.625 170.664C316.572 170.824 316.516 170.985 316.479 171.145C316.437 171.302 316.423 171.465 316.436 171.626C316.472 171.915 316.615 172.18 316.835 172.37C317.046 172.56 317.301 172.693 317.577 172.756C317.847 172.813 318.125 172.822 318.397 172.782C318.736 172.731 319.067 172.642 319.386 172.518L319.47 172.487L319.553 172.455C319.765 172.374 319.987 172.29 320.214 172.225C320.439 172.153 320.674 172.114 320.911 172.108H320.921ZM325.422 169.922C324.111 169.924 322.841 169.47 321.827 168.638C320.814 167.807 320.12 166.648 319.863 165.361C319.606 164.074 319.803 162.738 320.42 161.58C321.037 160.422 322.036 159.515 323.246 159.012C324.456 158.509 325.803 158.442 327.057 158.822C328.311 159.203 329.395 160.007 330.123 161.098C330.851 162.189 331.179 163.499 331.051 164.806C330.923 166.112 330.346 167.333 329.42 168.261C328.895 168.789 328.27 169.208 327.582 169.493C326.894 169.778 326.157 169.924 325.412 169.922H325.422ZM325.422 158.986C324.203 158.983 323.022 159.404 322.079 160.176C321.136 160.948 320.489 162.025 320.249 163.221C320.01 164.417 320.192 165.66 320.765 166.737C321.338 167.814 322.266 168.658 323.391 169.127C324.516 169.595 325.768 169.658 326.934 169.304C328.1 168.951 329.108 168.204 329.785 167.19C330.463 166.175 330.768 164.957 330.649 163.743C330.53 162.528 329.994 161.393 329.132 160.53C328.644 160.04 328.064 159.652 327.426 159.387C326.788 159.122 326.103 158.985 325.412 158.986H325.422Z" fill="#8F6CFE" stroke="#8F6CFE" stroke-width="2" mask="url(#path-3-inside-2_422_1379)"/>
<path d="M206.069 19.7551C205.204 19.7551 204.359 19.4983 203.639 19.0173C202.92 18.5363 202.359 17.8526 202.028 17.0527C201.697 16.2529 201.611 15.3727 201.779 14.5235C201.948 13.6744 202.365 12.8944 202.976 12.2822C203.588 11.6699 204.368 11.253 205.216 11.0841C206.064 10.9152 206.944 11.0019 207.743 11.3332C208.542 11.6645 209.226 12.2256 209.706 12.9455C210.187 13.6654 210.443 14.5117 210.443 15.3775C210.441 16.5379 209.98 17.6501 209.16 18.4706C208.34 19.2911 207.229 19.753 206.069 19.7551ZM206.069 11.3128C205.267 11.3128 204.483 11.5509 203.816 11.9969C203.149 12.4429 202.629 13.0769 202.322 13.8186C202.015 14.5603 201.935 15.3765 202.091 16.1639C202.248 16.9513 202.634 17.6745 203.201 18.2422C203.769 18.8099 204.491 19.1965 205.278 19.3531C206.065 19.5098 206.88 19.4294 207.621 19.1221C208.363 18.8149 208.996 18.2946 209.442 17.6271C209.887 16.9596 210.125 16.1748 210.125 15.372C210.123 14.296 209.695 13.2646 208.935 12.5038C208.175 11.743 207.144 11.3147 206.069 11.3128Z" fill="#604549"/>
<path d="M29.7712 124.525L26 113.368L39.0346 115.169L29.7712 124.525ZM26.4668 113.753L29.908 123.936L38.361 115.401L26.4668 113.753Z" fill="#604549"/>
<path d="M55.3869 79.723L55.1992 79.9808L62.0668 84.9871L62.2544 84.7293L55.3869 79.723Z" fill="#604549"/>
<path d="M60.7676 79.1282L55.7578 85.9738L56.0144 86.1619L61.0242 79.3164L60.7676 79.1282Z" fill="#604549"/>
<path fill-rule="evenodd" clip-rule="evenodd" d="M45.5799 183.271C45.5799 183.271 59.253 165.317 41.8182 146.095C36.6227 140.364 30.7567 138.779 30.2168 140.901C29.9503 141.949 29.4143 145.566 31.5687 152.516C34.1677 160.906 43.2489 178.505 45.5799 183.271Z" fill="#6DB39A"/>
<path fill-rule="evenodd" clip-rule="evenodd" d="M49.0195 182.127C49.0195 182.127 50.2124 161.761 66.3772 156.285C66.4837 156.249 66.5989 156.249 66.7056 156.284C66.8122 156.32 66.9046 156.389 66.9689 156.481C67.4707 157.203 68.3622 159.266 66.3215 163.312C63.6908 168.529 51.5143 179.631 49.0195 182.127Z" fill="#6DB39A"/>
<path fill-rule="evenodd" clip-rule="evenodd" d="M38.585 181.905C38.585 181.905 39.1902 172.57 32.9051 161.768C26.9278 151.489 20.6865 151.714 19.6861 151.773C17.4307 151.912 17.9365 163.915 23.3905 172.275C28.8445 180.635 38.585 181.905 38.585 181.905Z" fill="#6DB39A"/>
<path fill-rule="evenodd" clip-rule="evenodd" d="M52.457 187.284C52.457 187.284 55.1785 177.255 61.7959 173.974C68.4134 170.693 68.1725 171.235 68.0834 172.635C67.9943 174.036 67.6539 179.626 63.0867 183.822C58.5194 188.018 52.457 187.284 52.457 187.284Z" fill="#6DB39A"/>
<path fill-rule="evenodd" clip-rule="evenodd" d="M27.6983 187.707C27.6983 187.707 31.6746 203.395 17.4392 213.205C17.4392 213.205 11.4015 200.923 18.3244 191.921C19.0624 190.966 21.3663 188.908 22.3644 188.419C25.2265 187.013 27.6983 187.707 27.6983 187.707Z" fill="#6DB39A"/>
<path d="M45.5001 207.255C45.4937 207.184 44.8304 200.082 41.4632 190.193C38.3529 181.069 32.2452 167.641 20.7773 155.474L21.0088 155.256C26.1494 160.727 30.6077 166.803 34.2859 173.349C37.2897 178.691 39.7941 184.299 41.767 190.102C45.1454 200.026 45.811 207.158 45.8174 207.229L45.5001 207.255Z" fill="#615F5D"/>
<path d="M17.1953 208.621C17.1953 208.597 17.2025 206.249 18.2292 202.607C19.1779 199.252 21.2162 194.075 25.5346 188.459C27.4218 186.005 29.4465 184.92 31.554 185.233C34.1275 185.616 36.7583 188.03 39.3723 192.409C40.59 194.472 41.6443 196.628 42.5256 198.856L42.2274 198.968C41.3528 196.756 40.3062 194.616 39.0972 192.568C37.3357 189.619 34.5888 186.006 31.5071 185.548C29.5229 185.253 27.5983 186.298 25.7867 188.652C21.5033 194.223 19.4809 199.353 18.5393 202.678C17.5182 206.28 17.5102 208.596 17.5102 208.619L17.1953 208.621Z" fill="#615F5D"/>
<path d="M41.567 204.732L41.2736 204.608C41.2839 204.585 42.2637 202.232 43.2466 197.759C44.1533 193.631 45.2476 186.801 45.3144 177.708C45.3772 168.627 42.3591 160.198 39.8166 154.734C37.0594 148.804 34.2497 144.975 34.2227 144.937L34.4787 144.748C34.5066 144.786 37.3314 148.636 40.1021 154.592C41.686 157.972 42.9705 161.485 43.9409 165.089C45.0909 169.425 45.6603 173.671 45.6325 177.71C45.5688 186.838 44.469 193.695 43.5576 197.84C42.5643 202.338 41.5766 204.708 41.567 204.732Z" fill="#615F5D"/>
<path d="M45.504 197.46C45.4944 193.261 46.5148 188.618 48.5372 183.66C50.1524 179.7 52.407 175.53 55.2381 171.266C60.0575 164.01 64.9461 158.93 64.9946 158.877L65.2236 159.098C65.1751 159.149 60.3032 164.214 55.4998 171.447C51.0733 178.114 45.7974 188.038 45.8221 197.459L45.504 197.46Z" fill="#615F5D"/>
<path d="M48.8589 200.394C48.3563 197.042 48.9861 193.535 50.731 189.967C52.1219 187.125 54.2222 184.241 56.9723 181.393C61.6501 176.551 66.6611 173.45 66.7112 173.419L66.8774 173.69C66.8281 173.721 61.8457 176.804 57.1966 181.619C52.9196 186.048 48.0565 192.892 49.1738 200.343L48.8589 200.394Z" fill="#615F5D"/>
<path d="M56.2959 191.574H32.1211V220.466H56.2959V191.574Z" fill="#C7C4BF"/>
<path fill-rule="evenodd" clip-rule="evenodd" d="M32.1758 193.96V198.758L56.2885 193.96H32.1758Z" fill="#A19E9A"/>
<path d="M57.4015 189.979H31.0039V193.96H57.4015V189.979Z" fill="#C7C4BF"/>
<path d="M50.0045 9.31396C49.7558 9.31396 49.5172 9.41278 49.3413 9.58866C49.1655 9.76455 49.0667 10.0031 49.0667 10.2518V20.1595L44.4889 24.7382C44.3131 24.914 44.2144 25.1525 44.2144 25.4011C44.2144 25.6497 44.3131 25.8881 44.4889 26.0639C44.6647 26.2397 44.9031 26.3384 45.1517 26.3384C45.4003 26.3384 45.6387 26.2397 45.8145 26.0639L50.9333 20.94V10.2518C50.9333 10.0047 50.8357 9.7675 50.6618 9.59187C50.4879 9.41625 50.2517 9.31637 50.0045 9.31396Z" fill="#ACCDF9"/>
<path d="M50.0041 0C38.9738 0 30 8.9728 30 20.003C30 31.0333 38.9697 40.0071 50.0041 40.0071C61.0384 40.0071 70 31.0333 70 20.003C70 8.9728 61.0292 0 50.0041 0ZM50.9369 37.4848V33.1303H49.0621V37.4848C40.1553 37.0128 32.9943 29.8518 32.5172 20.9399H36.8676V19.0652H32.5172C32.9892 10.1594 40.1502 2.99837 49.0621 2.52537V6.87576H50.9369V2.52537C59.8437 2.99837 67.0047 10.1594 67.4817 19.0702H63.1313V20.9399H67.4817C67.0047 29.8477 59.8437 37.0087 50.9369 37.4848Z" fill="#ACCDF9"/>
<path d="M260.342 235.296C260.342 235.296 292.305 176.801 270.225 139.863C249.749 105.609 217.419 125.633 179.261 113.533C141.102 101.434 107.569 35.1672 60.4718 60.8745C-7.59089 98.0253 44.2302 230.865 55.3115 237L260.342 235.296Z" fill="#010F1C" fill-opacity="0.05"/>
<path d="M226.056 99.8858C226.369 100.617 226.613 101.378 226.784 102.157C229.57 115.105 204.599 110.362 198.381 109.159C180.074 105.616 163.874 95.4869 149.885 83.2768C146.656 80.4591 141.794 76.0245 145.11 71.4874C147.292 68.5046 152.092 67.4094 155.519 67.1494C174.188 65.7328 194.061 74.6059 209.552 84.5516C215.703 88.5002 223.059 92.8118 226.056 99.8858Z" fill="#010F1C" fill-opacity="0.06"/>
<path d="M96.5903 194.633L102.092 230.937H190.11L183.507 194.633H96.5903Z" fill="#8F6CFE"/>
<path d="M125.169 86.6759C125.169 86.6759 128.899 104.39 122.364 109.094C114.767 114.526 99.0112 116.573 86.8673 132.447C79.5381 142.186 75.2977 153.9 74.6938 166.074L102.721 180.088V198.786L179.315 192.251V173.553C179.315 173.553 192.393 161.409 198.013 153.005C198.013 153.005 195.474 130.961 164.553 120.795C163.063 120.313 161.716 119.467 160.634 118.335C159.552 117.203 158.768 115.82 158.353 114.31L158.806 105.374L125.169 86.6759Z" fill="#FFB28C"/>
<path opacity="0.49" d="M127.836 102.569C127.836 102.569 132.57 120.086 159.731 117.233C159.001 116.25 158.531 115.099 158.363 113.887C158.363 112.41 158.639 108.11 158.639 108.11L127.836 102.569Z" fill="#D58866"/>
<path d="M127.039 75.4178C127.039 75.4178 126.104 69.8182 121.43 69.8182C116.755 69.8182 113.96 79.1574 116.765 86.6268C119.57 94.0962 125.169 88.4966 125.169 88.4966C125.169 88.4966 125.169 101.575 134.508 107.195C143.848 112.814 157.861 111.869 165.331 96.9206C172.8 81.9719 170.153 63.1853 162.526 53.0194C154.122 41.8104 138.248 45.55 134.508 48.3548C130.769 51.1595 126.104 53.9347 127.039 75.4178Z" fill="#FFB28C"/>
<path opacity="0.38" d="M125.405 77.8681C125.394 76.8817 125.023 75.9332 124.362 75.2012C124.157 74.8973 123.894 74.6372 123.588 74.4362C123.282 74.2351 122.939 74.0971 122.579 74.0302C122.219 73.9633 121.849 73.9689 121.491 74.0466C121.133 74.1243 120.794 74.2726 120.494 74.4828C118.3 75.9491 117.689 85.6918 122.364 85.6918C127.038 85.6918 122.364 81.0271 124.234 80.0922C124.623 79.8739 124.94 79.5478 125.148 79.1532C125.356 78.7586 125.445 78.3123 125.405 77.8681Z" fill="#DBA7A7"/>
<path d="M150.116 65.6948C150.045 65.2807 149.833 64.9041 149.515 64.6294C149.197 64.3548 148.794 64.1991 148.374 64.1891C145.422 64.012 139.182 63.3231 136.378 65.1732C134.636 66.3345 134.508 70.7826 140.108 69.8477C144.92 69.1097 150.401 68.2633 150.116 65.6948Z" fill="#604549"/>
<path d="M155.391 65.8522C155.456 65.4363 155.665 65.0565 155.981 64.7794C156.298 64.5023 156.702 64.3455 157.123 64.3367C160.075 64.1595 168.362 63.8151 169.119 65.3208C170.103 67.1906 170.989 70.9302 165.39 69.9953C160.597 69.2178 155.106 68.4109 155.391 65.8522Z" fill="#604549"/>
<path d="M147.587 73.1346C147.509 73.4881 147.333 73.8123 147.078 74.0699C146.824 74.3274 146.502 74.5077 146.149 74.59C145.797 74.6723 145.428 74.6532 145.086 74.5349C144.744 74.4167 144.442 74.204 144.216 73.9216C143.989 73.6391 143.847 73.2984 143.806 72.9388C143.765 72.5791 143.827 72.2152 143.984 71.889C144.141 71.5628 144.387 71.2877 144.694 71.0954C145 70.9031 145.355 70.8015 145.717 70.8023C146.272 70.869 146.779 71.1507 147.128 71.5867C147.478 72.0228 147.642 72.5785 147.587 73.1346Z" fill="#1D1D1B"/>
<path d="M161.601 73.1346C161.523 73.4881 161.346 73.8123 161.092 74.0699C160.837 74.3274 160.515 74.5077 160.163 74.59C159.81 74.6723 159.442 74.6532 159.1 74.5349C158.758 74.4167 158.456 74.204 158.229 73.9216C158.003 73.6391 157.861 73.2984 157.82 72.9388C157.779 72.5791 157.841 72.2152 157.998 71.889C158.155 71.5628 158.401 71.2877 158.707 71.0954C159.014 70.9031 159.369 70.8015 159.731 70.8023C160.286 70.869 160.792 71.1507 161.142 71.5867C161.491 72.0228 161.656 72.5785 161.601 73.1346Z" fill="#1D1D1B"/>
<path d="M169.67 80.4465C169.228 83.9795 166.393 90.6321 150.392 88.5458C128.899 85.7411 126.95 74.0302 126.95 74.0302L126.104 79.2361C126.104 79.2361 119.56 113.798 145.717 112.863C167.938 112.036 169.71 80.4465 169.67 80.4465Z" fill="#604549"/>
<path d="M152.251 72.0619C152.251 72.0619 155.056 84.2058 155.056 86.0756C155.056 87.9454 148.502 88.7917 148.502 86.9613C148.502 85.1309 150.391 69.208 152.251 72.0619Z" fill="#D58866"/>
<path d="M152.252 48.3843C152.252 48.3843 150.392 57.7235 146.652 59.5933C142.913 61.4631 127.039 62.3882 123.299 61.4631C119.56 60.538 125.169 39.98 143.848 39.98C160.577 39.98 168.273 51.1496 170.418 56.8673C170.492 57.0677 170.516 57.2831 170.488 57.4948C170.459 57.7065 170.379 57.908 170.255 58.0817C170.131 58.2554 169.966 58.3961 169.775 58.4915C169.584 58.5869 169.372 58.634 169.159 58.6289C166.59 58.6289 161.995 58.3828 160.676 57.7235C158.796 56.7886 152.252 48.3843 152.252 48.3843Z" fill="#604549"/>
<path d="M154.879 92.9546C154.24 92.8826 153.595 93.0471 153.069 93.4171C151.976 94.1355 149.132 95.3854 144.92 93.0235C139.35 89.9236 140.58 97.9441 146.15 99.8237C147.977 100.415 149.95 100.371 151.748 99.697C153.546 99.0232 155.063 97.7601 156.05 96.1136C156.572 95.0803 156.651 93.1908 154.879 92.9546Z" fill="white"/>
<path d="M129.548 64.9074C129.82 64.9074 130.04 64.6871 130.04 64.4154C130.04 64.1436 129.82 63.9233 129.548 63.9233C129.276 63.9233 129.056 64.1436 129.056 64.4154C129.056 64.6871 129.276 64.9074 129.548 64.9074Z" fill="#1D1D1B"/>
<path d="M129.283 68.834C129.554 68.834 129.775 68.6137 129.775 68.3419C129.775 68.0702 129.554 67.8499 129.283 67.8499C129.011 67.8499 128.791 68.0702 128.791 68.3419C128.791 68.6137 129.011 68.834 129.283 68.834Z" fill="#1D1D1B"/>
<path d="M131.005 67.1413C131.277 67.1413 131.497 66.921 131.497 66.6493C131.497 66.3775 131.277 66.1572 131.005 66.1572C130.733 66.1572 130.513 66.3775 130.513 66.6493C130.513 66.921 130.733 67.1413 131.005 67.1413Z" fill="#1D1D1B"/>
<path d="M130.513 71.0779C130.784 71.0779 131.005 70.8576 131.005 70.5858C131.005 70.3141 130.784 70.0938 130.513 70.0938C130.241 70.0938 130.021 70.3141 130.021 70.5858C130.021 70.8576 130.241 71.0779 130.513 71.0779Z" fill="#1D1D1B"/>
<path d="M126.36 77.6516L124.175 61.6205L126.852 60.2526L128.328 60.9316L127.039 77.6516H126.36Z" fill="#1D1D1B"/>
<path d="M114.964 112.853C114.964 112.853 119.56 129.642 136.378 134.317C153.197 138.991 161.788 127.33 162.152 119.614C162.152 119.614 175.073 124.298 181.214 128.707C187.355 133.116 196.153 140.851 198.928 152.995C198.928 152.995 188.654 166.074 179.315 173.543V192.241L102.722 202.515V180.088L73.7593 166.074C73.7593 166.074 75.6291 142.721 84.0432 131.512C95.3605 116.455 114.964 112.853 114.964 112.853Z" fill="#8F6CFE"/>
<path d="M75.6777 157.679C75.6777 157.679 75.6777 195.971 76.6127 205.32C77.5476 214.669 83.157 224.018 91.5613 225.868C99.9656 227.719 127.973 220.259 133.593 218.389C139.212 216.519 159.75 209.05 159.75 209.05C159.75 209.05 155.991 197.831 148.502 194.091C148.502 194.091 141.958 195.017 127.954 196.886C113.95 198.756 113.005 197.821 104.601 198.756L102.731 168.869C102.731 168.869 92.4765 148.33 75.6777 157.679Z" fill="#FFB28C"/>
<path d="M73.7886 166.074C73.7886 166.074 80.7561 180.363 103.43 179.763L106.491 160.474L92.4768 140.851L84.0725 141.835L76.7311 148.822L73.7886 166.074Z" fill="#8F6CFE"/>
<path d="M154.722 211.087C154.848 211.058 154.976 211.038 155.105 211.028L155.302 210.949C162.772 208.548 170.546 207.475 178.183 205.753C177.966 199.849 177.041 194.111 174.67 193.166C170.005 191.297 147.587 194.101 147.587 194.101L148.522 212.799L154.722 211.087Z" fill="#FFB28C"/>
<path d="M175.604 194.092C175.604 194.092 184.009 206.226 186.813 209.965C189.618 213.705 191.488 219.304 191.488 220.239C191.488 221.174 185.879 220.239 182.149 214.64C178.212 208.735 177.474 209.965 177.474 209.965L175.604 194.092Z" fill="#F5D4C3"/>
<path d="M163.195 218.999L184.58 147.661C184.687 147.314 184.902 147.01 185.195 146.794C185.487 146.578 185.84 146.461 186.204 146.461H285.412C285.677 146.46 285.938 146.521 286.174 146.64C286.411 146.759 286.617 146.931 286.775 147.144C286.932 147.356 287.038 147.603 287.084 147.863C287.129 148.124 287.113 148.392 287.036 148.645L266.596 216.244C266.49 216.592 266.275 216.897 265.982 217.113C265.69 217.329 265.336 217.445 264.972 217.444L164.839 221.184C164.572 221.188 164.309 221.129 164.07 221.011C163.83 220.894 163.622 220.722 163.462 220.509C163.302 220.296 163.194 220.048 163.148 219.786C163.102 219.524 163.118 219.254 163.195 218.999Z" fill="#C7CDEA"/>
<path d="M130.375 220.259H269.016V223.999H127.029V223.605C127.029 223.165 127.115 222.73 127.284 222.324C127.452 221.918 127.698 221.55 128.009 221.239C128.32 220.928 128.688 220.682 129.094 220.514C129.5 220.345 129.935 220.259 130.375 220.259Z" fill="#ABB4D3"/>
<path d="M130.375 220.259H166.265V223.999H127.029V223.605C127.029 223.165 127.115 222.73 127.284 222.324C127.452 221.918 127.698 221.55 128.009 221.239C128.32 220.928 128.688 220.682 129.094 220.514C129.5 220.345 129.935 220.259 130.375 220.259Z" fill="#C7CDEA"/>
<path d="M286.72 147.09L289.456 149.807L286.76 151.135L285.825 148.33L286.72 147.09Z" fill="#C7CDEA"/>
<path d="M166.925 218.064L187.384 150.466C187.49 150.118 187.705 149.813 187.998 149.597C188.29 149.381 188.644 149.264 189.008 149.265H288.246C288.51 149.267 288.77 149.329 289.005 149.449C289.241 149.568 289.446 149.74 289.603 149.952C289.761 150.164 289.867 150.41 289.913 150.67C289.959 150.93 289.944 151.197 289.87 151.45L269.41 219.048C269.303 219.396 269.087 219.699 268.795 219.916C268.503 220.132 268.149 220.248 267.786 220.249H168.548C168.284 220.248 168.024 220.185 167.789 220.066C167.553 219.946 167.349 219.774 167.191 219.562C167.034 219.35 166.928 219.105 166.881 218.845C166.835 218.585 166.85 218.318 166.925 218.064Z" fill="#E1E5FF"/>
<path d="M236.088 188.236C235.698 189.161 235.047 189.952 234.215 190.513C233.382 191.073 232.404 191.379 231.401 191.392C230.397 191.404 229.412 191.124 228.565 190.585C227.719 190.046 227.048 189.272 226.635 188.357C226.222 187.442 226.085 186.427 226.241 185.435C226.396 184.444 226.838 183.519 227.511 182.775C228.185 182.031 229.061 181.5 230.032 181.246C231.003 180.992 232.027 181.027 232.978 181.347C234.297 181.857 235.363 182.865 235.945 184.154C236.527 185.443 236.578 186.909 236.088 188.236Z" fill="white"/>
<path d="M109.138 115.363C109.138 115.363 114.531 141.442 143.089 141.442C168.676 141.442 166.856 121.445 166.856 121.445" stroke="white" stroke-linecap="round" stroke-linejoin="round"/>
<path d="M92.7231 124.485C92.7231 124.485 105.694 130.616 104.71 153.251L103.725 179.822" stroke="#7155E5" stroke-linecap="round" stroke-linejoin="round"/>
<path d="M178.527 127.802C181.639 134.857 182.961 142.571 182.375 150.259" stroke="#7155E5" stroke-linecap="round" stroke-linejoin="round"/>
<path opacity="0.49" d="M104.217 193.107L97.3281 201.964L104.217 199.012V193.107Z" fill="#EA9E79"/>
<path d="M320 223.989H0V237.068H320V223.989Z" fill="#E1E5FF"/>
<path d="M76.9078 2.61333C76.9078 3.10577 76.7618 3.58714 76.4882 3.99659C76.2146 4.40603 75.8258 4.72516 75.3708 4.91361C74.9159 5.10205 74.4152 5.15137 73.9323 5.0553C73.4493 4.95923 73.0057 4.72209 72.6575 4.37389C72.3093 4.02569 72.0721 3.58205 71.9761 3.09908C71.88 2.61611 71.9293 2.11548 72.1178 1.66053C72.3062 1.20558 72.6253 0.816734 73.0347 0.543151C73.4442 0.269569 73.9256 0.123535 74.418 0.123535C75.0784 0.123535 75.7116 0.38586 76.1786 0.852788C76.6455 1.31972 76.9078 1.953 76.9078 2.61333Z" fill="white"/>
<path d="M85.6275 2.61333C85.6275 3.10577 85.4815 3.58714 85.208 3.99659C84.9344 4.40603 84.5455 4.72516 84.0906 4.91361C83.6356 5.10205 83.135 5.15137 82.652 5.0553C82.1691 4.95923 81.7254 4.72209 81.3772 4.37389C81.029 4.02569 80.7919 3.58205 80.6958 3.09908C80.5997 2.61611 80.649 2.11548 80.8375 1.66053C81.0259 1.20558 81.3451 0.816734 81.7545 0.543151C82.1639 0.269569 82.6453 0.123535 83.1377 0.123535C83.7981 0.123535 84.4314 0.38586 84.8983 0.852788C85.3652 1.31972 85.6275 1.953 85.6275 2.61333Z" fill="white"/>
<path d="M94.3757 2.61335C94.3777 3.10856 94.2325 3.5932 93.9586 4.00577C93.6846 4.41834 93.2944 4.74024 92.8372 4.93065C92.3801 5.12106 91.8767 5.1714 91.3909 5.07526C90.9051 4.97913 90.4588 4.74087 90.1086 4.3907C89.7584 4.04052 89.5202 3.59422 89.424 3.10842C89.3279 2.62263 89.3782 2.11922 89.5686 1.66207C89.759 1.20492 90.0809 0.814637 90.4935 0.540723C90.9061 0.266809 91.3907 0.121609 91.8859 0.123554C92.5463 0.123554 93.1795 0.385879 93.6465 0.852807C94.1134 1.31973 94.3757 1.95302 94.3757 2.61335Z" fill="white"/>
<path d="M313.728 29.5H232.888C229.899 29.5 227.5 31.8512 227.5 34.7216V85.0227C227.5 87.893 229.899 90.2443 232.888 90.2443H313.728C316.717 90.2443 319.116 87.8931 319.116 85.0227V34.7216C319.116 31.8512 316.717 29.5 313.728 29.5Z" stroke="#010F1C" stroke-opacity="0.1"/>
<g filter="url(#filter0_d_422_1379)">
<path d="M249.06 41.349H334.251C337.678 41.349 340.456 44.1274 340.456 47.5547V102.111C340.456 105.538 337.678 108.317 334.251 108.317H249.06C245.633 108.317 242.855 105.538 242.855 102.111V47.5547C242.855 44.1274 245.633 41.349 249.06 41.349Z" fill="white"/>
</g>
<path d="M298.229 52.2937H332.905C333.278 52.2937 333.636 52.1455 333.9 51.8817C334.163 51.6179 334.312 51.2602 334.312 50.8872C334.311 50.5143 334.163 50.1568 333.899 49.8933C333.636 49.6297 333.278 49.4817 332.905 49.4817H298.229C297.856 49.4817 297.499 49.6297 297.235 49.8933C296.971 50.1568 296.823 50.5143 296.823 50.8872C296.823 51.2602 296.971 51.6179 297.235 51.8817C297.498 52.1455 297.856 52.2937 298.229 52.2937Z" fill="#F0EDEA"/>
<path d="M262.327 52.2937H278.964C279.337 52.2937 279.694 52.1455 279.958 51.8817C280.222 51.6179 280.37 51.2602 280.37 50.8872C280.37 50.5143 280.222 50.1568 279.958 49.8933C279.694 49.6297 279.337 49.4817 278.964 49.4817H262.327C261.954 49.4817 261.597 49.6297 261.333 49.8933C261.069 50.1568 260.921 50.5143 260.921 50.8872C260.921 51.2602 261.069 51.6179 261.333 51.8817C261.597 52.1455 261.954 52.2937 262.327 52.2937Z" fill="#F0EDEA"/>
<path d="M298.226 60.8699H332.903C333.312 60.8699 333.706 60.707 333.996 60.4171C334.285 60.1272 334.448 59.734 334.448 59.324C334.448 58.914 334.285 58.5209 333.996 58.231C333.706 57.9411 333.312 57.7782 332.903 57.7782H298.226C297.816 57.7782 297.423 57.9411 297.133 58.231C296.844 58.5209 296.681 58.914 296.681 59.324C296.681 59.734 296.844 60.1272 297.133 60.4171C297.423 60.707 297.816 60.8699 298.226 60.8699ZM332.903 58.0579C333.238 58.0579 333.56 58.1913 333.798 58.4287C334.035 58.6662 334.169 58.9882 334.169 59.324C334.169 59.6598 334.035 59.9819 333.798 60.2193C333.56 60.4568 333.238 60.5902 332.903 60.5902H298.226C297.891 60.5902 297.569 60.4568 297.331 60.2193C297.094 59.9819 296.96 59.6598 296.96 59.324C296.96 58.9882 297.094 58.6662 297.331 58.4287C297.569 58.1913 297.891 58.0579 298.226 58.0579H332.903Z" fill="#736FED"/>
<path d="M273.613 60.7297H290.25C290.623 60.7297 290.98 60.5816 291.244 60.3181C291.507 60.0545 291.655 59.697 291.655 59.3242C291.655 58.9514 291.507 58.5938 291.244 58.33C290.98 58.0663 290.623 57.918 290.25 57.9177H273.613C273.24 57.9177 272.883 58.0659 272.619 58.3297C272.355 58.5934 272.207 58.9512 272.207 59.3242C272.207 59.6971 272.356 60.0546 272.619 60.3181C272.883 60.5817 273.241 60.7297 273.613 60.7297Z" fill="#B6D2EF"/>
<path d="M261.278 60.7297H266.511C266.883 60.7297 267.241 60.5817 267.505 60.3181C267.768 60.0546 267.917 59.6971 267.917 59.3242C267.917 58.9512 267.769 58.5934 267.505 58.3297C267.241 58.0659 266.884 57.9177 266.511 57.9177H261.278C260.905 57.9177 260.547 58.0659 260.283 58.3297C260.019 58.5934 259.871 58.9512 259.871 59.3242C259.872 59.6971 260.02 60.0546 260.284 60.3181C260.547 60.5817 260.905 60.7297 261.278 60.7297Z" fill="#B6D2EF"/>
<path d="M314.707 86.8194H331.34C331.712 86.8194 332.07 86.6714 332.333 86.4078C332.597 86.1442 332.745 85.7867 332.745 85.414C332.745 85.0411 332.597 84.6835 332.334 84.4198C332.07 84.156 331.713 84.0077 331.34 84.0074H314.703C314.33 84.0074 313.973 84.1556 313.709 84.4194C313.445 84.6832 313.297 85.0409 313.297 85.414C313.297 85.5989 313.334 85.782 313.405 85.9528C313.476 86.1236 313.58 86.2787 313.711 86.4093C313.842 86.5398 313.997 86.6433 314.168 86.7136C314.339 86.784 314.522 86.82 314.707 86.8194Z" fill="#B6D2EF"/>
<path d="M249.868 86.8194H298.147C298.52 86.8194 298.878 86.6714 299.141 86.4078C299.405 86.1443 299.553 85.7868 299.554 85.414C299.554 85.0409 299.406 84.6832 299.142 84.4194C298.878 84.1556 298.52 84.0074 298.147 84.0074H249.868C249.495 84.0074 249.137 84.1556 248.874 84.4194C248.61 84.6832 248.462 85.0409 248.462 85.414C248.462 85.7868 248.61 86.1443 248.874 86.4078C249.138 86.6714 249.495 86.8194 249.868 86.8194Z" fill="#B6D2EF"/>
<path d="M298.969 95.0581H315.606C316.016 95.0581 316.409 94.8952 316.699 94.6053C316.989 94.3154 317.151 93.9222 317.151 93.5123C317.151 93.1023 316.989 92.7091 316.699 92.4192C316.409 92.1293 316.016 91.9664 315.606 91.9664H298.969C298.559 91.9664 298.166 92.1293 297.876 92.4192C297.586 92.7091 297.424 93.1023 297.424 93.5123C297.424 93.9222 297.586 94.3154 297.876 94.6053C298.166 94.8952 298.559 95.0581 298.969 95.0581ZM315.606 92.2461C315.941 92.2461 316.263 92.3795 316.501 92.6169C316.738 92.8544 316.872 93.1765 316.872 93.5123C316.872 93.8481 316.738 94.1701 316.501 94.4076C316.263 94.645 315.941 94.7784 315.606 94.7784H298.969C298.633 94.7784 298.311 94.645 298.074 94.4076C297.837 94.1701 297.703 93.8481 297.703 93.5123C297.703 93.1765 297.837 92.8544 298.074 92.6169C298.311 92.3795 298.633 92.2461 298.969 92.2461H315.606Z" fill="#B6D2EF"/>
<path d="M283.226 69.2308H317.903C318.313 69.2308 318.706 69.0679 318.996 68.778C319.285 68.4882 319.448 68.095 319.448 67.685C319.448 67.275 319.285 66.8818 318.996 66.5919C318.706 66.302 318.313 66.1392 317.903 66.1392H283.226C283.023 66.1392 282.822 66.1791 282.635 66.2568C282.447 66.3345 282.277 66.4484 282.133 66.5919C281.99 66.7355 281.876 66.9059 281.798 67.0934C281.721 67.281 281.681 67.482 281.681 67.685C281.681 67.888 281.721 68.089 281.798 68.2765C281.876 68.4641 281.99 68.6345 282.133 68.778C282.277 68.9216 282.447 69.0355 282.635 69.1131C282.822 69.1908 283.023 69.2308 283.226 69.2308ZM317.903 66.4188C318.238 66.4188 318.56 66.5522 318.798 66.7897C319.035 67.0271 319.169 67.3492 319.169 67.685C319.169 68.0208 319.035 68.3428 318.798 68.5803C318.56 68.8177 318.238 68.9511 317.903 68.9511H283.226C282.891 68.9511 282.569 68.8177 282.331 68.5803C282.094 68.3428 281.96 68.0208 281.96 67.685C281.96 67.3492 282.094 67.0271 282.331 66.7897C282.569 66.5522 282.891 66.4188 283.226 66.4188H317.903Z" fill="#B6D2EF"/>
<path d="M259.594 91.2445H276.229C277.006 91.2445 277.636 91.874 277.636 92.6505C277.636 93.427 277.006 94.0565 276.229 94.0565H259.594C258.817 94.0565 258.188 93.427 258.188 92.6505C258.188 91.874 258.817 91.2445 259.594 91.2445Z" fill="#736FED"/>
<path d="M283.227 102.557H331.336C331.746 102.557 332.139 102.394 332.429 102.104C332.719 101.814 332.882 101.421 332.882 101.011C332.882 100.601 332.719 100.208 332.429 99.9176C332.139 99.6277 331.746 99.4648 331.336 99.4648H283.227C282.817 99.4648 282.424 99.6277 282.134 99.9176C281.844 100.208 281.681 100.601 281.681 101.011C281.681 101.421 281.844 101.814 282.134 102.104C282.424 102.394 282.817 102.557 283.227 102.557ZM331.336 99.7486C331.672 99.7486 331.994 99.882 332.231 100.119C332.469 100.357 332.602 100.679 332.602 101.015C332.602 101.351 332.469 101.673 332.231 101.91C331.994 102.148 331.672 102.281 331.336 102.281H283.227C282.891 102.281 282.569 102.148 282.332 101.91C282.094 101.673 281.961 101.351 281.961 101.015C281.961 100.679 282.094 100.357 282.332 100.119C282.569 99.882 282.891 99.7486 283.227 99.7486H331.336Z" fill="#B6D2EF"/>
<path d="M258.617 69.2308H275.254C275.664 69.2308 276.057 69.0679 276.347 68.778C276.637 68.4882 276.8 68.095 276.8 67.685C276.8 67.275 276.637 66.8818 276.347 66.5919C276.057 66.302 275.664 66.1392 275.254 66.1392H258.617C258.207 66.1392 257.814 66.302 257.524 66.5919C257.234 66.8818 257.071 67.275 257.071 67.685C257.071 68.095 257.234 68.4882 257.524 68.778C257.814 69.0679 258.207 69.2308 258.617 69.2308ZM275.254 66.4188C275.59 66.4188 275.912 66.5522 276.149 66.7897C276.387 67.0271 276.52 67.3492 276.52 67.685C276.52 68.0208 276.387 68.3428 276.149 68.5803C275.912 68.8177 275.59 68.9511 275.254 68.9511H258.617C258.281 68.9511 257.959 68.8177 257.721 68.5803C257.484 68.3428 257.351 68.0208 257.351 67.685C257.351 67.3492 257.484 67.0271 257.721 66.7897C257.959 66.5522 258.281 66.4188 258.617 66.4188H275.254Z" fill="#736FED"/>
<path d="M296.664 74.8333H331.343C332.119 74.8333 332.749 75.4627 332.749 76.2392C332.749 77.0158 332.119 77.6452 331.343 77.6452H296.664C295.888 77.6452 295.258 77.0158 295.258 76.2392C295.258 75.4627 295.888 74.8333 296.664 74.8333Z" fill="#736FED"/>
<path d="M272.051 74.8333H288.686C289.463 74.8333 290.093 75.4627 290.093 76.2392C290.093 77.0158 289.463 77.6452 288.686 77.6452H272.051C271.274 77.6452 270.645 77.0158 270.645 76.2392C270.645 75.4627 271.274 74.8333 272.051 74.8333Z" fill="#B6D2EF"/>
<path d="M249.871 74.8333H266.507C267.283 74.8333 267.913 75.4627 267.913 76.2392C267.913 77.0158 267.283 77.6452 266.507 77.6452H249.871C249.095 77.6452 248.465 77.0158 248.465 76.2392C248.465 75.4627 249.095 74.8333 249.871 74.8333Z" fill="#B6D2EF"/>
<defs>
<filter id="filter0_d_422_1379" x="214.855" y="41.349" width="125.601" height="100.968" filterUnits="userSpaceOnUse" color-interpolation-filters="sRGB">
<feFlood flood-opacity="0" result="BackgroundImageFix"/>
<feColorMatrix in="SourceAlpha" type="matrix" values="0 0 0 0 0 0 0 0 0 0 0 0 0 0 0 0 0 0 127 0" result="hardAlpha"/>
<feOffset dx="-14" dy="20"/>
<feGaussianBlur stdDeviation="7"/>
<feComposite in2="hardAlpha" operator="out"/>
<feColorMatrix type="matrix" values="0 0 0 0 0.00392157 0 0 0 0 0.0588235 0 0 0 0 0.109804 0 0 0 0.1 0"/>
<feBlend mode="normal" in2="BackgroundImageFix" result="effect1_dropShadow_422_1379"/>
<feBlend mode="normal" in="SourceGraphic" in2="effect1_dropShadow_422_1379" result="shape"/>
</filter>
</defs>
</svg>
