<svg width="334" height="250" viewBox="0 0 334 250" fill="none" xmlns="http://www.w3.org/2000/svg">
<path d="M66.763 200.93C67.6139 200.079 67.6139 198.699 66.7629 197.848C65.912 196.997 64.5323 196.997 63.6814 197.848C62.8305 198.699 62.8304 200.079 63.6814 200.93C64.5323 201.781 65.912 201.781 66.763 200.93Z" fill="#292929"/>
<path d="M275.217 35.1394C277.054 35.1394 278.544 33.6499 278.544 31.8125C278.544 29.9751 277.054 28.4856 275.217 28.4856C273.38 28.4856 271.891 29.9751 271.891 31.8125C271.891 33.6499 273.38 35.1394 275.217 35.1394Z" fill="#B6D2EF"/>
<path d="M313.916 246.712C313.916 246.712 349.544 192.073 324.932 157.569C302.107 125.574 266.069 144.278 223.534 132.976C180.999 121.674 143.62 59.7753 91.1209 83.7881C15.2517 118.49 73.0165 242.573 85.3687 248.304L313.916 246.712Z" fill="#010F1C" fill-opacity="0.05"/>
<path d="M278.454 119.562C278.859 120.489 279.173 121.453 279.393 122.44C282.987 138.852 250.783 132.84 242.764 131.315C219.155 126.825 198.263 113.987 180.223 98.511C176.059 94.9397 169.788 89.3189 174.065 83.5685C176.878 79.7879 183.068 78.3998 187.488 78.0703C211.564 76.2747 237.193 87.521 257.17 100.127C265.103 105.131 274.59 110.596 278.454 119.562Z" fill="#010F1C" fill-opacity="0.06"/>
<path d="M54.8218 13.1008H135.662C138.651 13.1008 141.05 15.4521 141.05 18.3225V68.6235C141.05 71.4939 138.651 73.8451 135.662 73.8451H54.8218C51.8324 73.8451 49.4336 71.4939 49.4336 68.6235V18.3225C49.4336 15.4521 51.8324 13.1008 54.8218 13.1008Z" stroke="#010F1C" stroke-opacity="0.1"/>
<g filter="url(#filter0_d_239_1134)">
<path d="M119.489 24.9497H34.2989C30.8719 24.9497 28.0938 27.7281 28.0938 31.1554V85.7119C28.0938 89.1392 30.8719 91.9176 34.2989 91.9176H119.489C122.916 91.9176 125.694 89.1392 125.694 85.7119V31.1554C125.694 27.7281 122.916 24.9497 119.489 24.9497Z" fill="white"/>
</g>
<path d="M70.3208 35.8945H35.6447C35.2717 35.8945 34.9139 35.7463 34.6502 35.4825C34.3865 35.2188 34.2383 34.861 34.2383 34.488C34.2386 34.1152 34.3868 33.7577 34.6506 33.4941C34.9143 33.2306 35.2718 33.0825 35.6447 33.0825H70.3208C70.6936 33.0825 71.0512 33.2306 71.3149 33.4941C71.5786 33.7577 71.7269 34.1152 71.7272 34.488C71.7272 34.861 71.579 35.2188 71.3153 35.4825C71.0515 35.7463 70.6938 35.8945 70.3208 35.8945Z" fill="#F0EDEA"/>
<path d="M106.222 35.8945H89.5861C89.2131 35.8945 88.8554 35.7463 88.5916 35.4825C88.3279 35.2188 88.1797 34.861 88.1797 34.488C88.18 34.1152 88.3283 33.7577 88.592 33.4941C88.8557 33.2306 89.2132 33.0825 89.5861 33.0825H106.222C106.595 33.0825 106.953 33.2306 107.217 33.4941C107.48 33.7577 107.629 34.1152 107.629 34.488C107.629 34.861 107.481 35.2188 107.217 35.4825C106.953 35.7463 106.595 35.8945 106.222 35.8945Z" fill="#F0EDEA"/>
<path d="M70.3234 44.4706H35.6472C35.2373 44.4706 34.8442 44.3077 34.5543 44.0178C34.2644 43.7279 34.1016 43.3347 34.1016 42.9247C34.1016 42.5148 34.2644 42.1216 34.5543 41.8317C34.8442 41.5418 35.2373 41.3789 35.6472 41.3789H70.3234C70.7334 41.3789 71.1265 41.5418 71.4164 41.8317C71.7063 42.1216 71.8691 42.5148 71.8691 42.9247C71.8691 43.3347 71.7063 43.7279 71.4164 44.0178C71.1265 44.3077 70.7334 44.4706 70.3234 44.4706ZM35.6472 41.6586C35.3115 41.6586 34.9895 41.792 34.752 42.0294C34.5146 42.2669 34.3812 42.5889 34.3812 42.9247C34.3812 43.2605 34.5146 43.5826 34.752 43.82C34.9895 44.0575 35.3115 44.1909 35.6472 44.1909H70.3234C70.6592 44.1909 70.9812 44.0575 71.2187 43.82C71.4561 43.5826 71.5895 43.2605 71.5895 42.9247C71.5895 42.5889 71.4561 42.2669 71.2187 42.0294C70.9812 41.792 70.6592 41.6586 70.3234 41.6586H35.6472Z" fill="#736FED"/>
<path d="M94.9363 44.3305H78.2999C77.9272 44.3305 77.5697 44.1825 77.3061 43.9189C77.0426 43.6553 76.8945 43.2978 76.8945 42.9251C76.8945 42.5522 77.0426 42.1946 77.3061 41.9309C77.5696 41.6671 77.9271 41.5188 78.2999 41.5186H94.9363C95.3093 41.5186 95.667 41.6667 95.9308 41.9305C96.1945 42.1943 96.3427 42.552 96.3427 42.9251C96.3424 43.2979 96.1941 43.6554 95.9304 43.9189C95.6667 44.1825 95.3091 44.3305 94.9363 44.3305Z" fill="#B6D2EF"/>
<path d="M107.272 44.3305H102.039C101.666 44.3305 101.309 44.1825 101.045 43.9189C100.781 43.6554 100.633 43.2979 100.633 42.9251C100.633 42.552 100.781 42.1943 101.045 41.9305C101.308 41.6667 101.666 41.5186 102.039 41.5186H107.272C107.645 41.5186 108.003 41.6667 108.267 41.9305C108.53 42.1943 108.679 42.552 108.679 42.9251C108.678 43.2979 108.53 43.6554 108.266 43.9189C108.003 44.1825 107.645 44.3305 107.272 44.3305Z" fill="#B6D2EF"/>
<path d="M53.8424 70.4204H37.21C36.8373 70.4204 36.4799 70.2723 36.2163 70.0087C35.9528 69.7452 35.8047 69.3877 35.8047 69.0149C35.8047 68.6421 35.9527 68.2845 36.2162 68.0207C36.4798 67.757 36.8372 67.6087 37.21 67.6084H53.8465C54.2195 67.6084 54.5772 67.7566 54.8409 68.0204C55.1047 68.2841 55.2528 68.6419 55.2528 69.0149C55.2527 69.1999 55.2161 69.383 55.1451 69.5538C55.0741 69.7246 54.9701 69.8797 54.8391 70.0102C54.7081 70.1408 54.5526 70.2442 54.3816 70.3146C54.2106 70.385 54.0274 70.4209 53.8424 70.4204Z" fill="#B6D2EF"/>
<path d="M118.682 70.4204H70.4025C70.0297 70.4204 69.6721 70.2723 69.4084 70.0088C69.1447 69.7452 68.9964 69.3878 68.9961 69.0149C68.9961 68.6419 69.1443 68.2841 69.408 68.0204C69.6718 67.7566 70.0295 67.6084 70.4025 67.6084H118.682C119.055 67.6084 119.412 67.7566 119.676 68.0204C119.94 68.2841 120.088 68.6419 120.088 69.0149C120.088 69.3878 119.939 69.7452 119.676 70.0088C119.412 70.2723 119.054 70.4204 118.682 70.4204Z" fill="#B6D2EF"/>
<path d="M69.5805 78.659H52.9441C52.5342 78.659 52.141 78.4962 51.8512 78.2063C51.5613 77.9164 51.3984 77.5232 51.3984 77.1132C51.3984 76.7032 51.5613 76.31 51.8512 76.0202C52.141 75.7303 52.5342 75.5674 52.9441 75.5674H69.5805C69.9905 75.5674 70.3836 75.7303 70.6735 76.0202C70.9634 76.31 71.1262 76.7032 71.1262 77.1132C71.1262 77.5232 70.9634 77.9164 70.6735 78.2063C70.3836 78.4962 69.9905 78.659 69.5805 78.659ZM52.9441 75.8471C52.6083 75.8471 52.2863 75.9804 52.0489 76.2179C51.8115 76.4553 51.6781 76.7774 51.6781 77.1132C51.6781 77.449 51.8115 77.7711 52.0489 78.0085C52.2863 78.246 52.6083 78.3794 52.9441 78.3794H69.5805C69.9163 78.3794 70.2383 78.246 70.4758 78.0085C70.7132 77.7711 70.8466 77.449 70.8466 77.1132C70.8466 76.7774 70.7132 76.4553 70.4758 76.2179C70.2383 75.9804 69.9163 75.8471 69.5805 75.8471H52.9441Z" fill="#B6D2EF"/>
<path d="M85.3234 52.8316H50.6472C50.2373 52.8316 49.8442 52.6688 49.5543 52.3789C49.2644 52.089 49.1016 51.6958 49.1016 51.2858C49.1016 50.8758 49.2644 50.4827 49.5543 50.1928C49.8442 49.9029 50.2373 49.74 50.6472 49.74H85.3234C85.5264 49.74 85.7274 49.78 85.9149 49.8577C86.1025 49.9353 86.2729 50.0492 86.4164 50.1928C86.5599 50.3363 86.6738 50.5067 86.7514 50.6943C86.8291 50.8818 86.8691 51.0828 86.8691 51.2858C86.8691 51.4888 86.8291 51.6898 86.7514 51.8774C86.6738 52.0649 86.5599 52.2353 86.4164 52.3789C86.2729 52.5224 86.1025 52.6363 85.9149 52.714C85.7274 52.7917 85.5264 52.8316 85.3234 52.8316ZM50.6472 50.0197C50.3115 50.0197 49.9894 50.1531 49.752 50.3905C49.5146 50.628 49.3812 50.95 49.3812 51.2858C49.3812 51.6216 49.5146 51.9437 49.752 52.1811C49.9894 52.4186 50.3115 52.552 50.6472 52.552H85.3234C85.6592 52.552 85.9812 52.4186 86.2186 52.1811C86.4561 51.9437 86.5895 51.6216 86.5895 51.2858C86.5895 50.95 86.4561 50.628 86.2186 50.3905C85.9812 50.1531 85.6592 50.0197 85.3234 50.0197H50.6472Z" fill="#B6D2EF"/>
<path d="M108.956 74.8452H92.3204C91.5437 74.8452 90.9141 75.4747 90.9141 76.2512C90.9141 77.0277 91.5437 77.6572 92.3204 77.6572H108.956C109.733 77.6572 110.362 77.0277 110.362 76.2512C110.362 75.4747 109.733 74.8452 108.956 74.8452Z" fill="#736FED"/>
<path d="M85.323 86.1573H37.2137C36.8037 86.1573 36.4106 85.9945 36.1207 85.7046C35.8308 85.4147 35.668 85.0215 35.668 84.6115C35.668 84.2015 35.8308 83.8083 36.1207 83.5184C36.4106 83.2285 36.8037 83.0657 37.2137 83.0657H85.323C85.733 83.0657 86.1261 83.2285 86.416 83.5184C86.7059 83.8083 86.8687 84.2015 86.8687 84.6115C86.8687 85.0215 86.7059 85.4147 86.416 85.7046C86.1261 85.9945 85.733 86.1573 85.323 86.1573ZM37.2137 83.3494C36.8779 83.3494 36.5559 83.4828 36.3184 83.7203C36.081 83.9577 35.9476 84.2798 35.9476 84.6156C35.9476 84.9514 36.081 85.2734 36.3184 85.5109C36.5559 85.7483 36.8779 85.8817 37.2137 85.8817H85.323C85.6588 85.8817 85.9808 85.7483 86.2183 85.5109C86.4557 85.2734 86.5891 84.9514 86.5891 84.6156C86.5891 84.2798 86.4557 83.9577 86.2183 83.7203C85.9808 83.4828 85.6588 83.3494 85.323 83.3494H37.2137Z" fill="#B6D2EF"/>
<path d="M109.933 52.8316H93.2957C92.8858 52.8316 92.4926 52.6688 92.2027 52.3789C91.9129 52.089 91.75 51.6958 91.75 51.2858C91.75 50.8758 91.9129 50.4827 92.2027 50.1928C92.4926 49.9029 92.8858 49.74 93.2957 49.74H109.933C110.343 49.74 110.736 49.9029 111.026 50.1928C111.316 50.4827 111.479 50.8758 111.479 51.2858C111.479 51.6958 111.316 52.089 111.026 52.3789C110.736 52.6688 110.343 52.8316 109.933 52.8316ZM93.2957 50.0197C92.9599 50.0197 92.6379 50.1531 92.4005 50.3905C92.163 50.628 92.0296 50.95 92.0296 51.2858C92.0296 51.6216 92.163 51.9437 92.4005 52.1811C92.6379 52.4186 92.9599 52.552 93.2957 52.552H109.933C110.269 52.552 110.591 52.4186 110.828 52.1811C111.066 51.9437 111.199 51.6216 111.199 51.2858C111.199 50.95 111.066 50.628 110.828 50.3905C110.591 50.1531 110.269 50.0197 109.933 50.0197H93.2957Z" fill="#736FED"/>
<path d="M71.8854 58.4341H37.2072C36.4304 58.4341 35.8008 59.0636 35.8008 59.8401C35.8008 60.6166 36.4304 61.2461 37.2072 61.2461H71.8854C72.6621 61.2461 73.2917 60.6166 73.2917 59.8401C73.2917 59.0636 72.6621 58.4341 71.8854 58.4341Z" fill="#736FED"/>
<path d="M96.4988 58.4341H79.8634C79.0867 58.4341 78.457 59.0636 78.457 59.8401C78.457 60.6166 79.0867 61.2461 79.8634 61.2461H96.4988C97.2755 61.2461 97.9052 60.6166 97.9052 59.8401C97.9052 59.0636 97.2755 58.4341 96.4988 58.4341Z" fill="#B6D2EF"/>
<path d="M118.679 58.4341H102.043C101.266 58.4341 100.637 59.0636 100.637 59.8401C100.637 60.6166 101.266 61.2461 102.043 61.2461H118.679C119.455 61.2461 120.085 60.6166 120.085 59.8401C120.085 59.0636 119.455 58.4341 118.679 58.4341Z" fill="#B6D2EF"/>
<g filter="url(#filter1_d_239_1134)">
<path d="M303.642 28.5327H274.071C272.388 28.5327 271.023 29.9041 271.023 31.5958V44.6743C271.023 46.366 272.388 47.7374 274.071 47.7374H303.642C305.325 47.7374 306.689 46.366 306.689 44.6743V31.5958C306.689 29.9041 305.325 28.5327 303.642 28.5327Z" fill="white"/>
<path d="M274.071 29.0327H303.642C305.046 29.0327 306.189 30.1779 306.189 31.5958V44.6743C306.189 46.0922 305.046 47.2374 303.642 47.2374H274.071C272.666 47.2374 271.523 46.0922 271.523 44.6743V31.5958C271.523 30.1779 272.666 29.0327 274.071 29.0327Z" stroke="#EAECEE"/>
</g>
<path d="M277.234 40.0555C277.196 40.056 277.158 40.0424 277.128 40.0169C277.098 39.9914 277.076 39.9555 277.067 39.9152C277.058 39.8748 277.062 39.8324 277.078 39.7947C277.094 39.757 277.122 39.7263 277.156 39.7077L283.399 36.2352C283.439 36.2127 283.486 36.2085 283.529 36.2233C283.571 36.2381 283.607 36.2708 283.628 36.3142C283.649 36.3575 283.653 36.408 283.639 36.4545C283.625 36.501 283.595 36.5398 283.555 36.5622L277.307 40.0384C277.284 40.0497 277.259 40.0556 277.234 40.0555Z" fill="#736FED"/>
<path d="M283.478 42.7991C283.451 42.7991 283.424 42.7934 283.4 42.7823L277.155 39.8048C277.115 39.7857 277.084 39.7526 277.071 39.7128C277.057 39.673 277.061 39.6298 277.081 39.5925C277.102 39.5553 277.137 39.5272 277.18 39.5144C277.223 39.5016 277.27 39.5051 277.31 39.5242L283.556 42.5048C283.596 42.5241 283.625 42.5569 283.639 42.5962C283.652 42.6355 283.649 42.6781 283.629 42.715C283.615 42.7406 283.593 42.762 283.566 42.7768C283.54 42.7917 283.509 42.7994 283.478 42.7991Z" fill="#736FED"/>
<path d="M299.954 40.0531C299.929 40.0527 299.904 40.0456 299.882 40.0323L294.154 36.5586C294.118 36.5359 294.091 36.4977 294.078 36.4521C294.065 36.4064 294.068 36.3568 294.086 36.3136C294.105 36.2708 294.137 36.2385 294.176 36.2236C294.215 36.2087 294.257 36.2124 294.294 36.2339L300.023 39.7076C300.054 39.727 300.078 39.7578 300.092 39.7952C300.107 39.8326 300.11 39.8744 300.102 39.9142C300.093 39.954 300.074 39.9895 300.047 40.0151C300.02 40.0406 299.987 40.0549 299.952 40.0555L299.954 40.0531Z" fill="#736FED"/>
<path d="M294.226 42.7991C294.191 42.799 294.157 42.7871 294.13 42.7653C294.102 42.7435 294.083 42.7131 294.075 42.6789C294.066 42.6447 294.07 42.6087 294.084 42.5766C294.099 42.5445 294.123 42.5182 294.154 42.5019L299.879 39.5245C299.915 39.5052 299.958 39.5016 299.997 39.5143C300.037 39.527 300.07 39.555 300.089 39.5922C300.108 39.6293 300.111 39.6726 300.099 39.7125C300.086 39.7524 300.058 39.7856 300.022 39.8048L294.296 42.7823C294.274 42.7934 294.25 42.7991 294.226 42.7991Z" fill="#736FED"/>
<path d="M286.018 43.3478C285.991 43.3478 285.965 43.3417 285.941 43.3299C285.92 43.3202 285.902 43.3067 285.887 43.2902C285.872 43.2737 285.86 43.2545 285.853 43.2337C285.846 43.2129 285.843 43.1909 285.844 43.169C285.846 43.147 285.852 43.1256 285.862 43.1059L289.354 36.3081C289.364 36.2884 289.378 36.2707 289.395 36.2562C289.412 36.2417 289.432 36.2305 289.454 36.2235C289.476 36.2164 289.499 36.2135 289.522 36.215C289.545 36.2164 289.567 36.2222 289.587 36.232C289.608 36.2418 289.626 36.2554 289.641 36.272C289.657 36.2886 289.668 36.3079 289.675 36.3288C289.683 36.3497 289.686 36.3718 289.684 36.3938C289.683 36.4158 289.677 36.4373 289.667 36.4571L286.175 43.2548C286.16 43.2827 286.138 43.3062 286.11 43.3226C286.082 43.339 286.05 43.3477 286.018 43.3478Z" fill="#736FED"/>
<path d="M288.731 43.3478C288.708 43.3478 288.685 43.3417 288.665 43.3299C288.63 43.3101 288.603 43.2755 288.59 43.2336C288.577 43.1916 288.58 43.1458 288.597 43.1059L291.59 36.3081C291.608 36.2682 291.639 36.2377 291.677 36.2235C291.714 36.2092 291.755 36.2122 291.791 36.232C291.827 36.2517 291.854 36.2866 291.866 36.3288C291.879 36.371 291.876 36.4171 291.859 36.4571L288.866 43.2548C288.853 43.2829 288.834 43.3065 288.81 43.3229C288.786 43.3393 288.759 43.3479 288.731 43.3478Z" fill="#736FED"/>
<path d="M306.522 32.9225H271.189C271.145 32.9225 271.103 32.8936 271.072 32.8422C271.041 32.7907 271.023 32.7209 271.023 32.6481C271.023 32.5754 271.041 32.5056 271.072 32.4542C271.103 32.4027 271.145 32.3738 271.189 32.3738H306.524C306.568 32.3738 306.61 32.4027 306.641 32.4542C306.672 32.5056 306.689 32.5754 306.689 32.6481C306.689 32.7209 306.672 32.7907 306.641 32.8422C306.61 32.8936 306.568 32.9225 306.524 32.9225H306.522Z" fill="#736FED"/>
<path d="M272.461 38.4093H240.507C239.433 38.4081 238.404 37.976 237.645 37.2077C236.885 36.4394 236.458 35.3978 236.457 34.3113V7.93883C236.458 6.85233 236.885 5.81069 237.645 5.04242C238.404 4.27415 239.433 3.842 240.507 3.84082H276.347C276.391 3.84082 276.433 3.85848 276.464 3.88989C276.495 3.9213 276.513 3.96389 276.513 4.00831V34.3113C276.511 35.3979 276.084 36.4395 275.324 37.2078C274.565 37.976 273.535 38.4081 272.461 38.4093ZM240.507 4.18028C239.521 4.18146 238.576 4.57829 237.879 5.28374C237.181 5.98918 236.789 6.94565 236.788 7.9433V34.3157C236.789 35.3134 237.181 36.2699 237.879 36.9753C238.576 37.6808 239.521 38.0776 240.507 38.0788H272.461C273.448 38.0779 274.393 37.6812 275.091 36.9757C275.788 36.2702 276.18 35.3136 276.182 34.3157V4.18028H240.507Z" fill="#736FED"/>
<path d="M277.532 0H245.313C243.149 0 241.395 1.7492 241.395 3.90696V30.1128C241.395 32.2706 243.149 34.0198 245.313 34.0198H277.532C279.696 34.0198 281.45 32.2706 281.45 30.1128V3.90696C281.45 1.7492 279.696 0 277.532 0Z" fill="#736FED"/>
<path d="M260.338 25.2404L258.656 20.5367H252.082L250.406 25.2404H247.43L253.829 8.23047H256.957L263.342 25.2404H260.338ZM257.926 18.161L256.292 13.515C256.229 13.314 256.14 13.0319 256.021 12.6687C255.903 12.3055 255.787 11.9312 255.668 11.5447C255.55 11.1582 255.453 10.8339 255.375 10.5718C255.3 10.8879 255.204 11.2411 255.087 11.6313C254.969 12.0216 254.86 12.3884 254.757 12.732C254.651 13.0763 254.571 13.3373 254.516 13.515L252.87 18.161H257.926Z" fill="#F0EDEA"/>
<path d="M270.436 12.0718C272.076 12.0718 273.316 12.4276 274.155 13.1392C274.995 13.8507 275.416 14.9591 275.419 16.4643V25.0075H273.464L272.925 23.208H272.832C272.5 23.6307 272.119 24.0137 271.696 24.3491C271.295 24.6556 270.837 24.8833 270.348 25.0196C269.741 25.1777 269.114 25.2517 268.486 25.2394C267.768 25.2522 267.056 25.1092 266.401 24.8206C265.8 24.549 265.299 24.1026 264.966 23.5422C264.618 22.9699 264.445 22.2437 264.445 21.3635C264.445 20.0569 264.943 19.0746 265.938 18.4165C266.934 17.7585 268.439 17.3953 270.454 17.3272L272.691 17.2469V16.5874C272.691 15.7154 272.484 15.0925 272.069 14.7187C271.655 14.345 271.069 14.1578 270.314 14.157C269.674 14.1555 269.038 14.2481 268.427 14.4318C267.82 14.6133 267.225 14.8336 266.647 15.0914L265.749 13.1875C266.439 12.8402 267.168 12.5709 267.921 12.3851C268.742 12.1761 269.587 12.0708 270.436 12.0718ZM272.673 18.9419L271.011 19.0101C269.636 19.0563 268.671 19.2838 268.118 19.6927C267.564 20.1016 267.286 20.6656 267.286 21.3844C267.286 22.011 267.477 22.4675 267.859 22.7541C268.242 23.0406 268.746 23.1842 269.37 23.185C270.324 23.185 271.113 22.9193 271.737 22.388C272.361 21.8567 272.673 21.0789 272.673 20.0544V18.9419Z" fill="#F0EDEA"/>
<path fill-rule="evenodd" clip-rule="evenodd" d="M161.746 133.377L165.267 152.019L149.558 158.29L138.915 147.785L135.367 110.503L161.746 133.377Z" fill="#FFB28C"/>
<mask id="mask0_239_1134" style="mask-type:luminance" maskUnits="userSpaceOnUse" x="135" y="110" width="31" height="49">
<path d="M161.75 133.376L165.27 152.019L149.561 158.29L138.918 147.785L135.371 110.502L161.75 133.376Z" fill="white"/>
</mask>
<g mask="url(#mask0_239_1134)">
<g style="mix-blend-mode:multiply" opacity="0.4">
<path fill-rule="evenodd" clip-rule="evenodd" d="M165.123 140.139C165.123 140.139 149.338 141.994 145.162 130.827C143.004 125.059 142.906 123.63 142.906 123.63L166.981 130.236L165.123 140.139Z" fill="#966954"/>
</g>
</g>
<path fill-rule="evenodd" clip-rule="evenodd" d="M167.972 103.209C170.014 106.414 171.029 113.419 171.3 119.634C171.588 126.247 171.929 130.458 169.703 132.965C165.351 137.867 154.96 142.321 137.848 126.611C132.827 122.001 130.255 106.2 141.769 99.6612C153.283 93.1228 164.108 97.1461 167.972 103.209Z" fill="#FFB28C"/>
<path fill-rule="evenodd" clip-rule="evenodd" d="M159.429 116.595C158.944 116.57 158.526 117.051 158.494 117.67C158.462 118.29 158.83 118.81 159.313 118.835C159.797 118.86 160.216 118.379 160.248 117.76C160.279 117.14 159.912 116.62 159.429 116.595Z" fill="#604549"/>
<path d="M169.127 116.548C169.159 115.93 168.792 115.408 168.308 115.384C167.824 115.359 167.405 115.84 167.374 116.459C167.342 117.077 167.709 117.599 168.193 117.624C168.678 117.648 169.096 117.167 169.127 116.548Z" fill="#604549"/>
<path d="M163.893 124.579C163.856 124.579 163.82 124.566 163.792 124.542C163.764 124.519 163.744 124.486 163.737 124.45C163.73 124.414 163.736 124.376 163.753 124.344C163.771 124.312 163.799 124.286 163.833 124.272C165.657 123.531 164.939 120.56 164.415 118.391C164.247 117.696 164.102 117.095 164.052 116.64C163.893 115.156 164.568 113.815 166.004 112.761C166.681 112.27 167.428 111.885 168.22 111.617C168.24 111.61 168.261 111.607 168.282 111.608C168.304 111.61 168.324 111.616 168.343 111.625C168.362 111.635 168.379 111.648 168.393 111.665C168.407 111.681 168.417 111.7 168.423 111.72C168.43 111.74 168.432 111.762 168.43 111.783C168.427 111.804 168.421 111.825 168.411 111.844C168.401 111.862 168.387 111.879 168.37 111.892C168.353 111.905 168.334 111.915 168.314 111.921C168.271 111.934 164.013 113.294 164.369 116.607C164.416 117.044 164.559 117.636 164.725 118.321C165.276 120.602 166.031 123.726 163.952 124.571C163.933 124.577 163.913 124.58 163.893 124.579Z" fill="#604549"/>
<path fill-rule="evenodd" clip-rule="evenodd" d="M137.528 99.1017C135.728 99.7957 134.087 100.848 132.704 102.195C131.322 103.542 130.227 105.156 129.485 106.938C128.744 108.721 128.372 110.636 128.391 112.567C128.411 114.498 128.821 116.404 129.599 118.172C132.285 124.28 136.377 129.935 141.777 126.987C149.456 122.797 148.201 105.443 148.201 105.443C148.201 105.443 173.582 111.736 175.779 101.34C175.805 101.212 175.794 101.078 175.746 100.956C175.698 100.834 175.616 100.729 175.509 100.653C175.402 100.577 175.276 100.534 175.145 100.529C175.014 100.523 174.885 100.556 174.773 100.624C174.312 100.906 173.811 101.118 173.288 101.251C173.167 101.28 173.041 101.281 172.92 101.253C172.799 101.226 172.686 101.17 172.59 101.09C172.495 101.011 172.419 100.91 172.369 100.796C172.319 100.682 172.297 100.558 172.304 100.434C172.251 101.337 172.276 101.026 172.299 100.518C172.42 98.1281 171.802 95.7585 170.53 93.7317C169.258 91.7049 167.393 90.1192 165.189 89.1902C161.611 87.6828 156.731 86.4586 151.318 87.448C139.85 89.5428 137.528 99.1017 137.528 99.1017Z" fill="#604549"/>
<path fill-rule="evenodd" clip-rule="evenodd" d="M149.698 120.093C150.08 119.505 141.801 112.808 137.507 116.645C132.903 120.761 140.502 127.51 142.915 127.629L149.698 120.093Z" fill="#FFB28C"/>
<path d="M140.719 119.95L140.535 120.21L143.468 122.284L143.651 122.024L140.719 119.95Z" fill="#4B3735"/>
<path d="M157.933 123.791C156.615 123.791 155.349 123.279 154.4 122.363C153.451 121.448 152.895 120.199 152.847 118.881C152.799 117.563 153.265 116.278 154.145 115.296C155.025 114.314 156.251 113.712 157.565 113.616C158.88 113.521 160.18 113.94 161.193 114.784C162.205 115.629 162.85 116.834 162.993 118.145C163.136 119.456 162.765 120.772 161.958 121.815C161.152 122.858 159.972 123.547 158.668 123.737C158.425 123.773 158.179 123.791 157.933 123.791ZM157.228 113.811L157.251 113.97C156.054 114.139 154.966 114.757 154.206 115.698C153.446 116.639 153.072 117.834 153.159 119.041C153.245 120.248 153.787 121.376 154.673 122.199C155.559 123.022 156.724 123.478 157.933 123.474C158.164 123.474 158.394 123.457 158.623 123.424C159.876 123.242 161.005 122.569 161.762 121.553C162.519 120.538 162.842 119.263 162.66 118.009C162.478 116.755 161.806 115.625 160.791 114.867C159.777 114.11 158.503 113.786 157.25 113.968L157.228 113.811Z" fill="white"/>
<path d="M169.887 122.054C168.569 122.052 167.302 121.538 166.354 120.621C165.406 119.703 164.85 118.454 164.804 117.135C164.758 115.816 165.224 114.53 166.106 113.549C166.987 112.567 168.214 111.966 169.53 111.871C170.845 111.776 172.146 112.196 173.158 113.042C174.171 113.887 174.816 115.093 174.958 116.405C175.101 117.717 174.729 119.033 173.922 120.077C173.115 121.12 171.934 121.81 170.629 122C170.384 122.036 170.136 122.054 169.887 122.054ZM169.901 112.184C169.216 112.184 168.539 112.332 167.916 112.617C167.294 112.902 166.739 113.317 166.291 113.836C165.843 114.354 165.511 114.962 165.318 115.62C165.126 116.278 165.077 116.969 165.175 117.647C165.306 118.553 165.695 119.401 166.295 120.092C166.894 120.783 167.68 121.286 168.557 121.543C169.434 121.8 170.367 121.799 171.244 121.541C172.121 121.282 172.905 120.777 173.504 120.086C174.102 119.394 174.49 118.545 174.62 117.639C174.75 116.733 174.617 115.809 174.237 114.977C173.858 114.145 173.247 113.439 172.479 112.944C171.71 112.449 170.815 112.185 169.901 112.184Z" fill="white"/>
<path d="M162.816 118.146C162.773 118.149 162.732 118.135 162.7 118.108C162.668 118.08 162.648 118.041 162.645 117.999C162.642 117.956 162.656 117.915 162.683 117.883C162.711 117.851 162.75 117.831 162.792 117.828L164.991 117.509C165.034 117.503 165.076 117.514 165.111 117.54C165.145 117.565 165.167 117.603 165.174 117.646C165.18 117.688 165.169 117.731 165.143 117.765C165.118 117.799 165.08 117.822 165.038 117.828L162.839 118.146H162.816Z" fill="white"/>
<path d="M153.32 117.165C153.302 117.165 153.283 117.162 153.266 117.156L147.768 115.156C147.747 115.15 147.728 115.14 147.711 115.126C147.694 115.112 147.68 115.095 147.67 115.076C147.66 115.056 147.654 115.035 147.653 115.013C147.651 114.991 147.654 114.969 147.662 114.949C147.669 114.928 147.681 114.909 147.696 114.893C147.711 114.877 147.729 114.865 147.749 114.856C147.77 114.848 147.791 114.844 147.813 114.844C147.835 114.844 147.857 114.849 147.877 114.858L153.375 116.856C153.41 116.869 153.44 116.894 153.459 116.926C153.477 116.959 153.484 116.997 153.477 117.034C153.471 117.071 153.452 117.104 153.423 117.128C153.394 117.152 153.358 117.165 153.32 117.165Z" fill="white"/>
<path fill-rule="evenodd" clip-rule="evenodd" d="M188.822 152.122C183.861 148.982 178.47 146.581 172.819 144.994L163.373 142.348C163.373 142.348 164.06 150.656 152.988 151.613C141.916 152.57 138.013 144.064 138.013 144.064C138.013 144.064 100.249 151.442 101.238 173.906C102.227 196.37 107.704 249.975 107.704 249.975H199.877L194.707 196.171L203.694 202.459L220.692 172.282L188.822 152.122Z" fill="#E9D3BF"/>
<path fill-rule="evenodd" clip-rule="evenodd" d="M209.579 234.534L189.593 245.903L120.79 248.378L113.696 225.003L113.696 225.002L111.931 219.189L111.149 216.613L110.609 214.834L110.09 213.124L143.571 203.414L143.596 203.497L144.464 206.378L144.469 206.393L146.502 213.143L150.331 225.859L209.579 234.534Z" fill="#FFB28C"/>
<path fill-rule="evenodd" clip-rule="evenodd" d="M137.837 156.442L150.536 204.516L110.273 216.804L101.207 171.632L137.837 156.442Z" fill="#E9D3BF"/>
<path d="M110.38 217.017L110.285 216.713L146.518 205.509L140.49 182.677L140.797 182.596L146.903 205.723L110.38 217.017Z" fill="#4B3735"/>
<path fill-rule="evenodd" clip-rule="evenodd" d="M258.21 210.849C257.21 213.21 255.713 215.327 253.82 217.055C251.928 218.784 249.685 220.084 247.245 220.865C244.805 221.647 242.225 221.892 239.681 221.584C237.138 221.276 234.69 220.422 232.507 219.081C225.453 214.751 216.776 209.999 210.601 206.704C205.909 204.202 202.664 202.539 202.664 202.539C202.664 202.539 218.261 175.657 218.908 175.037C218.958 174.988 219.271 175.089 219.806 175.316C223.789 177.009 240.064 185.708 251.577 191.929C254.841 193.687 257.33 196.603 258.557 200.103C259.784 203.603 259.66 207.435 258.21 210.849Z" fill="#FFB28C"/>
<path d="M233.877 191.977C233.877 191.977 252.503 156.605 251.878 152.691C251.254 148.778 247.644 142.678 250.116 139.679C252.588 136.68 254.712 142.397 257.157 142.745C259.141 143.018 261.28 129.875 266.573 126.3C266.972 126.035 267.44 125.892 267.919 125.888C268.398 125.885 268.867 126.022 269.27 126.281C269.672 126.541 269.99 126.913 270.185 127.351C270.379 127.789 270.442 128.275 270.364 128.748C269.532 133.691 267.761 143.052 265.894 145.334C263.319 148.467 267.313 136.238 269.562 137.295C270.009 137.506 276.81 138.864 273.22 146.599C273.22 146.599 273.22 142.254 276.036 143.494C280.528 145.477 278.562 150.101 275.321 158.334C272.079 166.568 275.877 148.585 278.442 149.507C283.134 151.187 280.564 156.971 274.973 173.862C268.69 192.844 260.984 214.362 249.372 219.969C231.437 228.635 233.877 191.977 233.877 191.977Z" fill="#FFB28C"/>
<path d="M264.628 157.378C264.598 157.378 264.568 157.369 264.542 157.353C264.516 157.336 264.496 157.313 264.483 157.285L261.143 149.936C261.126 149.898 261.124 149.854 261.139 149.814C261.154 149.775 261.184 149.743 261.222 149.725C261.26 149.708 261.304 149.706 261.344 149.721C261.383 149.736 261.415 149.766 261.433 149.804L264.71 157.01C265.451 156.685 268.883 155.19 271.114 154.411C271.154 154.397 271.198 154.4 271.236 154.418C271.274 154.436 271.303 154.469 271.317 154.509C271.331 154.549 271.328 154.593 271.31 154.631C271.291 154.669 271.258 154.698 271.219 154.712C268.73 155.581 264.735 157.347 264.697 157.364C264.676 157.374 264.652 157.379 264.628 157.378Z" fill="#604549"/>
<path d="M269.274 151.498C268.775 151.49 268.285 151.366 267.843 151.134C264.344 149.394 265.96 145.732 265.977 145.696C265.996 145.659 266.028 145.631 266.066 145.617C266.105 145.604 266.147 145.606 266.185 145.623C266.222 145.64 266.252 145.67 266.267 145.708C266.282 145.747 266.282 145.789 266.267 145.827C266.018 146.437 265.894 147.091 265.902 147.749C265.934 149.135 266.635 150.178 267.984 150.853C268.78 151.251 269.549 151.288 270.274 150.967C272.517 149.975 273.694 145.898 273.704 145.857C273.716 145.816 273.743 145.782 273.78 145.761C273.816 145.74 273.86 145.735 273.9 145.747C273.941 145.758 273.975 145.785 273.996 145.822C274.017 145.859 274.022 145.903 274.01 145.943C273.962 146.117 272.783 150.205 270.403 151.259C270.048 151.417 269.663 151.498 269.274 151.498Z" fill="#604549"/>
<path d="M273.89 155.525C273.499 155.522 273.114 155.432 272.761 155.261C271.917 154.869 271.352 154.279 271.078 153.51C270.531 151.964 271.35 150.252 271.386 150.18C271.395 150.161 271.408 150.143 271.423 150.129C271.439 150.114 271.457 150.103 271.477 150.096C271.497 150.089 271.519 150.086 271.54 150.087C271.561 150.088 271.582 150.093 271.601 150.103C271.62 150.112 271.637 150.125 271.651 150.141C271.665 150.157 271.676 150.176 271.682 150.196C271.689 150.217 271.691 150.238 271.689 150.259C271.688 150.281 271.682 150.301 271.672 150.32C271.664 150.337 270.876 151.987 271.379 153.405C271.622 154.092 272.133 154.62 272.896 154.975C273.188 155.121 273.509 155.2 273.835 155.207C274.162 155.214 274.486 155.149 274.784 155.017C277.002 154.062 278.413 149.874 278.427 149.831C278.433 149.811 278.444 149.793 278.457 149.777C278.471 149.761 278.488 149.748 278.506 149.739C278.525 149.73 278.545 149.724 278.566 149.723C278.587 149.721 278.608 149.724 278.628 149.73C278.648 149.737 278.666 149.747 278.682 149.761C278.698 149.775 278.711 149.791 278.72 149.81C278.73 149.829 278.735 149.849 278.737 149.87C278.738 149.891 278.736 149.912 278.729 149.932C278.67 150.109 277.26 154.296 274.912 155.31C274.59 155.451 274.242 155.524 273.89 155.525Z" fill="#604549"/>
<path d="M277.071 159.375C276.594 159.375 276.108 159.195 275.615 158.835C274.661 158.142 274.129 157.402 274.033 156.637C273.968 156.16 274.091 155.677 274.377 155.29C274.39 155.272 274.406 155.257 274.425 155.246C274.443 155.235 274.464 155.228 274.486 155.225C274.507 155.222 274.529 155.224 274.55 155.23C274.571 155.236 274.591 155.247 274.607 155.261C274.624 155.275 274.638 155.292 274.648 155.311C274.658 155.331 274.663 155.352 274.665 155.374C274.666 155.396 274.663 155.417 274.655 155.438C274.648 155.458 274.636 155.477 274.621 155.493C274.392 155.816 274.295 156.215 274.349 156.607C274.436 157.279 274.925 157.943 275.802 158.579C276.428 159.036 277.033 159.167 277.601 158.967C279.331 158.358 280.271 154.956 280.279 154.922C280.292 154.884 280.319 154.853 280.355 154.834C280.39 154.815 280.431 154.81 280.47 154.82C280.508 154.83 280.542 154.854 280.564 154.888C280.585 154.922 280.593 154.962 280.586 155.002C280.547 155.148 279.595 158.598 277.707 159.263C277.503 159.336 277.288 159.374 277.071 159.375Z" fill="#604549"/>
<path d="M265.573 147.762C265.559 147.762 265.545 147.76 265.531 147.757C265.49 147.745 265.456 147.719 265.435 147.682C265.414 147.646 265.409 147.602 265.42 147.562L269.798 131.518C269.811 131.48 269.838 131.449 269.874 131.43C269.909 131.411 269.95 131.406 269.989 131.416C270.027 131.426 270.061 131.451 270.082 131.484C270.104 131.518 270.112 131.558 270.105 131.598L265.727 147.641C265.718 147.676 265.698 147.706 265.671 147.728C265.643 147.75 265.608 147.762 265.573 147.762Z" fill="#604549"/>
<g style="mix-blend-mode:multiply" opacity="0.4">
<path fill-rule="evenodd" clip-rule="evenodd" d="M219.806 175.319L210.601 206.704C205.909 204.202 202.664 202.539 202.664 202.539C202.664 202.539 218.261 175.657 218.908 175.037C218.958 174.988 219.271 175.089 219.806 175.319Z" fill="#966954"/>
</g>
<path d="M194.137 180.502L193.82 180.529L199.71 250L200.027 249.973L194.137 180.502Z" fill="#4B3735"/>
<path d="M326.369 249.975H39.6726C39.2507 249.975 38.8462 249.807 38.5479 249.509C38.2496 249.21 38.082 248.806 38.082 248.383C38.082 247.961 38.2496 247.556 38.5479 247.258C38.8462 246.959 39.2507 246.792 39.6726 246.792H326.369C326.791 246.792 327.196 246.959 327.494 247.258C327.792 247.556 327.96 247.961 327.96 248.383C327.96 248.806 327.792 249.21 327.494 249.509C327.196 249.807 326.791 249.975 326.369 249.975Z" fill="#C7C4BF"/>
<path fill-rule="evenodd" clip-rule="evenodd" d="M203.785 241.91C203.785 241.656 203.834 241.406 203.93 241.172C204.027 240.938 204.168 240.725 204.347 240.546C204.526 240.367 204.738 240.226 204.972 240.129C205.206 240.032 205.456 239.983 205.709 239.983H207.715C207.968 239.983 208.218 240.033 208.452 240.13C208.686 240.226 208.898 240.368 209.077 240.547C209.256 240.726 209.398 240.938 209.495 241.172C209.592 241.406 209.642 241.656 209.642 241.91V242.785C209.642 243.038 209.592 243.289 209.495 243.523C209.398 243.756 209.256 243.969 209.077 244.148C208.898 244.327 208.686 244.468 208.452 244.565C208.218 244.662 207.968 244.711 207.715 244.711H205.709C205.456 244.712 205.206 244.662 204.972 244.566C204.738 244.469 204.526 244.327 204.347 244.148C204.168 243.969 204.027 243.757 203.93 243.523C203.834 243.289 203.785 243.038 203.785 242.785V241.91Z" fill="#808080"/>
<path fill-rule="evenodd" clip-rule="evenodd" d="M195.961 241.91C195.96 241.656 196.009 241.406 196.106 241.172C196.202 240.938 196.344 240.725 196.522 240.546C196.701 240.367 196.914 240.225 197.147 240.129C197.381 240.032 197.632 239.983 197.885 239.983H199.89C200.143 239.983 200.394 240.033 200.628 240.13C200.861 240.226 201.074 240.368 201.253 240.547C201.432 240.726 201.574 240.938 201.671 241.172C201.768 241.406 201.818 241.656 201.818 241.91V242.785C201.818 243.038 201.768 243.289 201.671 243.523C201.574 243.756 201.432 243.969 201.253 244.148C201.074 244.327 200.861 244.468 200.628 244.565C200.394 244.662 200.143 244.711 199.89 244.711H197.888C197.635 244.712 197.384 244.663 197.151 244.566C196.917 244.469 196.704 244.328 196.526 244.149C196.347 243.97 196.205 243.757 196.109 243.523C196.012 243.289 195.963 243.038 195.964 242.785L195.961 241.91Z" fill="#808080"/>
<path fill-rule="evenodd" clip-rule="evenodd" d="M188.141 241.91C188.14 241.656 188.189 241.406 188.286 241.172C188.382 240.938 188.524 240.725 188.703 240.546C188.881 240.367 189.094 240.226 189.327 240.129C189.561 240.032 189.812 239.983 190.064 239.983H192.07C192.323 239.983 192.574 240.033 192.807 240.13C193.041 240.226 193.254 240.368 193.433 240.547C193.612 240.726 193.754 240.938 193.851 241.172C193.948 241.406 193.998 241.656 193.998 241.91V242.785C193.998 243.038 193.948 243.289 193.851 243.523C193.754 243.756 193.612 243.969 193.433 244.148C193.254 244.327 193.041 244.468 192.807 244.565C192.574 244.662 192.323 244.711 192.07 244.711H190.064C189.812 244.712 189.561 244.662 189.327 244.566C189.094 244.469 188.881 244.327 188.703 244.148C188.524 243.969 188.382 243.757 188.286 243.523C188.189 243.289 188.14 243.038 188.141 242.785V241.91Z" fill="#808080"/>
<path fill-rule="evenodd" clip-rule="evenodd" d="M180.316 241.91C180.316 241.656 180.365 241.406 180.462 241.172C180.558 240.938 180.7 240.725 180.878 240.546C181.057 240.367 181.269 240.226 181.503 240.129C181.737 240.032 181.987 239.983 182.24 239.983H184.246C184.499 239.983 184.749 240.033 184.983 240.13C185.217 240.226 185.429 240.368 185.608 240.547C185.787 240.726 185.929 240.938 186.026 241.172C186.123 241.406 186.173 241.656 186.174 241.91V242.785C186.173 243.038 186.123 243.289 186.026 243.523C185.929 243.756 185.787 243.969 185.608 244.148C185.429 244.327 185.217 244.468 184.983 244.565C184.749 244.662 184.499 244.711 184.246 244.711H182.241C181.988 244.712 181.738 244.662 181.504 244.566C181.27 244.469 181.058 244.327 180.879 244.148C180.7 243.969 180.559 243.757 180.462 243.523C180.366 243.289 180.317 243.038 180.317 242.785L180.316 241.91Z" fill="#808080"/>
<path fill-rule="evenodd" clip-rule="evenodd" d="M172.496 241.91C172.495 241.656 172.544 241.406 172.641 241.172C172.737 240.938 172.879 240.725 173.058 240.546C173.236 240.367 173.449 240.225 173.683 240.129C173.916 240.032 174.167 239.983 174.42 239.983H176.426C176.679 239.983 176.929 240.033 177.163 240.13C177.397 240.226 177.609 240.368 177.788 240.547C177.967 240.726 178.109 240.938 178.206 241.172C178.303 241.406 178.353 241.656 178.353 241.91V242.785C178.353 243.038 178.303 243.289 178.206 243.523C178.109 243.756 177.967 243.969 177.788 244.148C177.609 244.327 177.397 244.468 177.163 244.565C176.929 244.662 176.679 244.711 176.426 244.711H174.42C174.167 244.712 173.916 244.663 173.683 244.566C173.449 244.469 173.236 244.328 173.058 244.149C172.879 243.97 172.737 243.757 172.641 243.523C172.544 243.289 172.495 243.038 172.496 242.785V241.91Z" fill="#808080"/>
<path fill-rule="evenodd" clip-rule="evenodd" d="M164.672 241.91C164.671 241.657 164.72 241.406 164.817 241.172C164.913 240.938 165.055 240.725 165.233 240.546C165.412 240.367 165.625 240.225 165.858 240.129C166.092 240.032 166.343 239.983 166.596 239.984H168.601C168.854 239.983 169.105 240.033 169.339 240.13C169.572 240.226 169.785 240.368 169.964 240.547C170.143 240.726 170.285 240.938 170.382 241.172C170.479 241.406 170.529 241.657 170.529 241.91V242.785C170.529 243.038 170.479 243.289 170.382 243.523C170.285 243.757 170.143 243.969 169.964 244.148C169.785 244.327 169.572 244.469 169.339 244.565C169.105 244.662 168.854 244.712 168.601 244.711H166.596C166.343 244.712 166.092 244.663 165.858 244.566C165.625 244.47 165.412 244.328 165.233 244.149C165.055 243.97 164.913 243.757 164.817 243.523C164.72 243.289 164.671 243.038 164.672 242.785V241.91Z" fill="#808080"/>
<path fill-rule="evenodd" clip-rule="evenodd" d="M220.742 240.934H159.436C158.667 240.934 157.929 241.24 157.385 241.784C156.841 242.329 156.535 243.067 156.535 243.837C156.535 244.607 156.841 245.346 157.385 245.89C157.929 246.435 158.667 246.741 159.436 246.741H220.742V240.934Z" fill="#604549"/>
<path fill-rule="evenodd" clip-rule="evenodd" d="M288.517 200.081C288.692 199.28 288.686 198.45 288.499 197.652C288.311 196.853 287.947 196.107 287.434 195.469C286.92 194.83 286.269 194.314 285.53 193.961C284.791 193.607 283.982 193.424 283.162 193.424H207.385C206.134 193.424 204.92 193.852 203.946 194.638C202.972 195.424 202.296 196.519 202.03 197.743C199.995 207.071 195.186 228.76 192.762 239.895C192.588 240.696 192.595 241.526 192.784 242.324C192.973 243.122 193.337 243.867 193.851 244.506C194.365 245.144 195.016 245.659 195.755 246.013C196.494 246.367 197.303 246.551 198.122 246.552H273.894C275.146 246.551 276.361 246.122 277.336 245.336C278.311 244.549 278.988 243.453 279.254 242.228C281.285 232.899 286.098 211.214 288.517 200.081Z" fill="#604549"/>
<path fill-rule="evenodd" clip-rule="evenodd" d="M293.279 199.673C293.452 198.873 293.443 198.043 293.254 197.246C293.065 196.449 292.7 195.704 292.186 195.066C291.672 194.428 291.022 193.914 290.284 193.56C289.545 193.206 288.737 193.022 287.919 193.022H212.142C210.89 193.021 209.675 193.449 208.7 194.235C207.725 195.021 207.048 196.118 206.781 197.342C204.751 206.709 199.933 228.918 197.508 240.083C197.334 240.884 197.342 241.714 197.53 242.512C197.719 243.31 198.083 244.056 198.597 244.694C199.112 245.332 199.762 245.848 200.501 246.202C201.24 246.556 202.049 246.74 202.868 246.74H278.645C279.897 246.738 281.111 246.309 282.086 245.522C283.06 244.736 283.738 243.64 284.005 242.416C286.035 233.045 290.856 210.836 293.279 199.673Z" fill="white"/>
<path d="M257.185 219.351C257.212 216.231 254.706 213.68 251.589 213.654C248.471 213.627 245.923 216.135 245.896 219.255C245.869 222.375 248.375 224.925 251.492 224.952C254.61 224.979 257.159 222.471 257.185 219.351Z" fill="#F0EDE6"/>
<path d="M208.069 80.4614C207.204 80.4614 206.359 80.2046 205.639 79.7236C204.92 79.2426 204.359 78.5589 204.028 77.759C203.697 76.9592 203.611 76.079 203.779 75.2298C203.948 74.3807 204.365 73.6007 204.976 72.9885C205.588 72.3762 206.368 71.9593 207.216 71.7904C208.064 71.6215 208.944 71.7082 209.743 72.0395C210.542 72.3708 211.226 72.9319 211.706 73.6518C212.187 74.3717 212.443 75.218 212.443 76.0838C212.441 77.2442 211.98 78.3564 211.16 79.1769C210.34 79.9974 209.229 80.4593 208.069 80.4614ZM208.069 72.0191C207.267 72.0191 206.483 72.2572 205.816 72.7032C205.149 73.1492 204.629 73.7832 204.322 74.5249C204.015 75.2666 203.935 76.0828 204.091 76.8702C204.248 77.6576 204.634 78.3808 205.201 78.9485C205.769 79.5162 206.491 79.9028 207.278 80.0594C208.065 80.2161 208.88 80.1357 209.621 79.8284C210.363 79.5212 210.996 79.0009 211.442 78.3334C211.887 77.6659 212.125 76.8811 212.125 76.0783C212.123 75.0023 211.695 73.9709 210.935 73.2101C210.175 72.4493 209.144 72.021 208.069 72.0191Z" fill="#604549"/>
<path d="M306.752 157.326L301.297 146.89L314.452 146.651L306.752 157.326ZM301.817 147.198L306.796 156.722L313.822 146.977L301.817 147.198Z" fill="#604549"/>
<path d="M31.7712 185.232L28 174.074L41.0346 175.876L31.7712 185.232ZM28.4668 174.46L31.908 184.642L40.361 176.107L28.4668 174.46Z" fill="#604549"/>
<path d="M57.3869 140.429L57.1992 140.687L64.0668 145.693L64.2544 145.435L57.3869 140.429Z" fill="#604549"/>
<path d="M62.7676 139.835L57.7578 146.68L58.0144 146.868L63.0242 140.023L62.7676 139.835Z" fill="#604549"/>
<path d="M311.731 221.306L305.191 218.81L307.685 212.266L314.224 214.761L311.731 221.306ZM305.602 218.626L311.546 220.895L313.814 214.945L307.869 212.676L305.602 218.626Z" fill="#604549"/>
<path fill-rule="evenodd" clip-rule="evenodd" d="M289.307 100.321C289.304 99.9324 289.148 99.5606 288.873 99.2863C288.596 99.0085 288.221 98.8505 287.829 98.8462H236.884C236.492 98.8505 236.117 99.0085 235.84 99.2863C235.565 99.5606 235.409 99.9324 235.406 100.321V131.424C235.41 131.815 235.566 132.19 235.84 132.468C236.118 132.743 236.493 132.897 236.884 132.896H287.829C288.22 132.897 288.595 132.743 288.873 132.468C289.147 132.19 289.303 131.815 289.307 131.424V100.321Z" fill="#FAB74E"/>
<mask id="mask1_239_1134" style="mask-type:luminance" maskUnits="userSpaceOnUse" x="235" y="98" width="55" height="35">
<path d="M289.311 100.321C289.308 99.9324 289.152 99.5606 288.876 99.2863C288.6 99.0085 288.225 98.8505 287.833 98.8462H236.888C236.496 98.8505 236.121 99.0085 235.844 99.2863C235.569 99.5606 235.413 99.9324 235.41 100.321V131.424C235.414 131.815 235.57 132.19 235.844 132.468C236.122 132.743 236.497 132.897 236.888 132.896H287.833C288.224 132.897 288.599 132.743 288.876 132.468C289.151 132.19 289.307 131.815 289.311 131.424V100.321Z" fill="white"/>
</mask>
<g mask="url(#mask1_239_1134)">
<path d="M263.134 118.13L235.32 98.9799L235.5 98.718L263.13 117.741L288.86 99.2099L289.046 99.4686L263.134 118.13Z" fill="#604549"/>
</g>
<path d="M295.648 100.13C295.687 96.2556 292.58 93.0834 288.708 93.0446C284.837 93.0059 281.667 96.1153 281.629 99.9897C281.59 103.864 284.697 107.036 288.568 107.075C292.439 107.114 295.609 104.004 295.648 100.13Z" fill="#F44640"/>
<path d="M288.772 101.658C288.624 101.658 288.482 101.599 288.378 101.495C288.273 101.39 288.215 101.249 288.215 101.101V95.9839C288.215 95.8361 288.273 95.6944 288.378 95.5899C288.482 95.4855 288.624 95.4268 288.772 95.4268C288.919 95.4268 289.061 95.4855 289.165 95.5899C289.27 95.6944 289.328 95.8361 289.328 95.9839V101.101C289.328 101.249 289.27 101.39 289.165 101.495C289.061 101.599 288.919 101.658 288.772 101.658Z" fill="white"/>
<path d="M288.763 104.216C289.165 104.216 289.491 103.89 289.491 103.488C289.491 103.086 289.165 102.76 288.763 102.76C288.361 102.76 288.035 103.086 288.035 103.488C288.035 103.89 288.361 104.216 288.763 104.216Z" fill="white"/>
<path d="M162.15 128.465C161.318 128.465 160.634 128.266 160.111 127.872C159.638 127.522 159.314 127.008 159.201 126.431C159.198 126.41 159.199 126.389 159.204 126.369C159.21 126.348 159.219 126.329 159.232 126.312C159.245 126.295 159.261 126.281 159.279 126.271C159.297 126.26 159.317 126.253 159.338 126.25C159.359 126.247 159.38 126.248 159.4 126.254C159.421 126.259 159.44 126.268 159.457 126.281C159.474 126.294 159.488 126.31 159.498 126.328C159.509 126.346 159.516 126.366 159.519 126.387C159.532 126.478 159.867 128.53 162.997 128.083C163.018 128.08 163.039 128.081 163.06 128.086C163.08 128.092 163.1 128.101 163.116 128.113C163.133 128.126 163.147 128.142 163.158 128.16C163.169 128.179 163.176 128.199 163.179 128.22C163.182 128.24 163.18 128.262 163.175 128.282C163.17 128.303 163.161 128.322 163.148 128.339C163.135 128.355 163.119 128.37 163.101 128.38C163.083 128.391 163.063 128.398 163.042 128.401C162.747 128.443 162.449 128.465 162.15 128.465Z" fill="#604549"/>
<path fill-rule="evenodd" clip-rule="evenodd" d="M84.7908 209.517C84.7908 209.517 98.464 191.562 81.0292 172.34C75.8336 166.61 69.9677 165.024 69.4277 167.146C69.1613 168.194 68.6253 171.811 70.7797 178.761C73.3786 187.151 82.4599 204.751 84.7908 209.517Z" fill="#6DB39A"/>
<path fill-rule="evenodd" clip-rule="evenodd" d="M88.2305 208.372C88.2305 208.372 89.4234 188.006 105.588 182.53C105.695 182.495 105.81 182.494 105.917 182.53C106.023 182.565 106.116 182.634 106.18 182.726C106.682 183.448 107.573 185.512 105.532 189.557C102.902 194.775 90.7252 205.876 88.2305 208.372Z" fill="#6DB39A"/>
<path fill-rule="evenodd" clip-rule="evenodd" d="M77.7959 208.15C77.7959 208.15 78.4011 198.815 72.1161 188.014C66.1388 177.734 59.8975 177.96 58.897 178.019C56.6416 178.157 57.1474 190.16 62.6014 198.52C68.0554 206.881 77.7959 208.15 77.7959 208.15Z" fill="#6DB39A"/>
<path fill-rule="evenodd" clip-rule="evenodd" d="M91.668 213.529C91.668 213.529 94.3894 203.5 101.007 200.219C107.624 196.939 107.383 197.481 107.294 198.881C107.205 200.281 106.865 205.871 102.298 210.067C97.7304 214.263 91.668 213.529 91.668 213.529Z" fill="#6DB39A"/>
<path fill-rule="evenodd" clip-rule="evenodd" d="M66.9092 213.952C66.9092 213.952 70.8856 229.64 56.6502 239.45C56.6502 239.45 50.6124 227.168 57.5353 218.166C58.2733 217.211 60.5772 215.153 61.5753 214.664C64.4375 213.258 66.9092 213.952 66.9092 213.952Z" fill="#6DB39A"/>
<path d="M84.711 233.5C84.7046 233.429 84.0414 226.327 80.6742 216.438C77.5639 207.315 71.4561 193.886 59.9883 181.72L60.2197 181.501C65.3604 186.973 69.8187 193.048 73.4968 199.594C76.5007 204.936 79.005 210.544 80.978 216.347C84.3563 226.271 85.0219 233.403 85.0283 233.474L84.711 233.5Z" fill="#615F5D"/>
<path d="M56.4062 234.866C56.4062 234.843 56.4134 232.494 57.4401 228.853C58.3889 225.498 60.4272 220.32 64.7455 214.704C66.6327 212.251 68.6575 211.165 70.7649 211.479C73.3384 211.861 75.9692 214.275 78.5833 218.655C79.801 220.718 80.8553 222.873 81.7366 225.101L81.4383 225.214C80.5637 223.002 79.5171 220.862 78.3081 218.814C76.5466 215.864 73.7997 212.251 70.718 211.793C68.7338 211.498 66.8092 212.543 64.9976 214.897C60.7143 220.468 58.6919 225.599 57.7503 228.923C56.7291 232.526 56.7212 234.841 56.7212 234.864L56.4062 234.866Z" fill="#615F5D"/>
<path d="M80.778 230.978L80.4845 230.854C80.4948 230.831 81.4746 228.478 82.4576 224.005C83.3642 219.876 84.4585 213.047 84.5253 203.953C84.5881 194.872 81.5701 186.443 79.0276 180.979C76.2703 175.05 73.4606 171.22 73.4336 171.182L73.6897 170.994C73.7175 171.032 76.5423 174.881 79.3131 180.838C80.8969 184.218 82.1814 187.73 83.1519 191.335C84.3018 195.67 84.8712 199.916 84.8434 203.955C84.7798 213.083 83.6799 219.94 82.7685 224.085C81.7752 228.583 80.7875 230.953 80.778 230.978Z" fill="#615F5D"/>
<path d="M84.7149 223.705C84.7054 219.506 85.7257 214.864 87.7481 209.906C89.3633 205.945 91.6179 201.775 94.4491 197.512C99.2684 190.255 104.157 185.175 104.206 185.123L104.435 185.344C104.386 185.394 99.5142 190.459 94.7107 197.692C90.2842 204.359 85.0084 214.283 85.033 223.705L84.7149 223.705Z" fill="#615F5D"/>
<path d="M88.0698 226.639C87.5672 223.288 88.1971 219.781 89.9419 216.213C91.3329 213.371 93.4332 210.486 96.1832 207.638C100.861 202.796 105.872 199.695 105.922 199.664L106.088 199.935C106.039 199.967 101.057 203.049 96.4075 207.864C92.1305 212.294 87.2674 219.137 88.3848 226.588L88.0698 226.639Z" fill="#615F5D"/>
<path d="M95.5068 217.819H71.332V246.711H95.5068V217.819Z" fill="#C7C4BF"/>
<path fill-rule="evenodd" clip-rule="evenodd" d="M71.3867 220.205V225.004L95.4995 220.205H71.3867Z" fill="#A19E9A"/>
<path d="M96.6124 216.224H70.2148V220.205H96.6124V216.224Z" fill="#C7C4BF"/>
<g style="mix-blend-mode:multiply" opacity="0.4">
<path fill-rule="evenodd" clip-rule="evenodd" d="M144.685 206.359L144.628 206.394L113.856 225.004L113.855 225.002L112.09 219.19L111.309 216.613L144.623 206.378L144.685 206.359Z" fill="#966954"/>
</g>
<defs>
<filter id="filter0_d_239_1134" x="0.09375" y="24.9497" width="125.601" height="100.968" filterUnits="userSpaceOnUse" color-interpolation-filters="sRGB">
<feFlood flood-opacity="0" result="BackgroundImageFix"/>
<feColorMatrix in="SourceAlpha" type="matrix" values="0 0 0 0 0 0 0 0 0 0 0 0 0 0 0 0 0 0 127 0" result="hardAlpha"/>
<feOffset dx="-14" dy="20"/>
<feGaussianBlur stdDeviation="7"/>
<feComposite in2="hardAlpha" operator="out"/>
<feColorMatrix type="matrix" values="0 0 0 0 0.00392157 0 0 0 0 0.0588235 0 0 0 0 0.109804 0 0 0 0.1 0"/>
<feBlend mode="normal" in2="BackgroundImageFix" result="effect1_dropShadow_239_1134"/>
<feBlend mode="normal" in="SourceGraphic" in2="effect1_dropShadow_239_1134" result="shape"/>
</filter>
<filter id="filter1_d_239_1134" x="269.023" y="27.5327" width="39.666" height="23.2048" filterUnits="userSpaceOnUse" color-interpolation-filters="sRGB">
<feFlood flood-opacity="0" result="BackgroundImageFix"/>
<feColorMatrix in="SourceAlpha" type="matrix" values="0 0 0 0 0 0 0 0 0 0 0 0 0 0 0 0 0 0 127 0" result="hardAlpha"/>
<feOffset dy="1"/>
<feGaussianBlur stdDeviation="1"/>
<feComposite in2="hardAlpha" operator="out"/>
<feColorMatrix type="matrix" values="0 0 0 0 0.00392157 0 0 0 0 0.0588235 0 0 0 0 0.109804 0 0 0 0.1 0"/>
<feBlend mode="normal" in2="BackgroundImageFix" result="effect1_dropShadow_239_1134"/>
<feBlend mode="normal" in="SourceGraphic" in2="effect1_dropShadow_239_1134" result="shape"/>
</filter>
</defs>
</svg>
