<svg width="105" height="26" viewBox="0 0 105 26" fill="none" xmlns="http://www.w3.org/2000/svg">
<path fill-rule="evenodd" clip-rule="evenodd" d="M50.953 12.563C50.953 14.8455 50.2038 16.7587 48.6946 18.3133C47.4477 19.5977 45.9813 20.3603 44.2956 20.5771V22.7445H45.2589V24.8771C47.8143 24.4891 50.0406 23.3332 51.9457 21.4146C54.3433 19.0064 55.5394 16.063 55.5394 12.5844C55.5394 11.5836 55.435 10.6257 55.2397 9.70788C55.1969 9.49382 55.1407 9.28243 55.0872 9.07372C55.5367 8.92655 55.8578 8.50376 55.8578 8.00606C55.8578 7.73313 55.7588 7.48695 55.6009 7.29429L58.638 2.81229C58.7209 2.82834 58.5283 2.83905 58.8788 2.83905C59.2293 2.83905 60 2.33599 60 1.71787C60 1.09976 59.4969 0.596704 58.8788 0.596704C58.2607 0.596704 57.763 1.28707 57.763 1.71787C57.763 2.15136 57.8406 2.18882 57.9717 2.37345L54.9079 6.89827L54.7393 6.88222C54.5814 6.88222 54.4316 6.91432 54.2951 6.97587C54.1319 7.04812 53.982 7.16318 53.875 7.29964L48.6732 5.69682C48.6063 5.13758 48.1327 4.71212 47.5627 4.71212C47.1587 4.71212 46.8028 4.92619 46.6048 5.24729C46.5004 5.41586 46.4416 5.61387 46.4416 5.83329C46.4416 6.08482 46.5299 6.31494 46.6717 6.50492L43.3617 11.4445C43.2948 11.4338 43.2306 11.4284 43.1637 11.4284C42.5456 11.4284 42.0425 11.9261 42.0425 12.5443C42.0425 13.1624 42.5456 13.6654 43.1637 13.6654C43.7818 13.6654 44.2795 13.1624 44.2795 12.5443C44.2795 12.2874 44.1912 12.0519 44.044 11.8592L47.3353 6.9277C47.4075 6.94376 47.4771 6.94911 47.5547 6.94911C47.8999 6.94911 48.2103 6.79124 48.4137 6.54506C48.502 6.63336 48.5876 6.71899 48.6759 6.80729C48.8498 6.9946 49.0211 7.17923 49.1789 7.37724C50.3616 8.83021 50.953 10.5641 50.953 12.563Z" fill="#4260FF"/>
<path fill-rule="evenodd" clip-rule="evenodd" d="M43.1397 4.44722C44.1619 4.44722 45.1198 4.62115 46.0001 4.97168C46.2998 4.42581 46.8805 4.0512 47.5548 4.0512C48.2933 4.0512 48.9382 4.51144 49.2004 5.17237L53.6985 6.55577C53.7922 6.4969 53.8858 6.44071 53.9821 6.39254C53.4282 5.41854 52.7352 4.50609 51.8923 3.65785C49.4707 1.22553 46.5701 0 43.2066 0C40.9803 0 38.9012 0.559247 36.9692 1.67507C35.0427 2.79624 33.5281 4.31343 32.4284 6.22129C31.6898 7.50569 31.1975 8.87571 30.9513 10.3233C28.4521 10.3233 25.9074 10.2966 23.3734 10.2966V14.6742C25.9288 14.6742 28.4066 14.7063 30.9513 14.7063C31.3607 17.1895 32.4846 19.3944 34.3282 21.3156C36.1879 23.269 38.4302 24.4517 41.0525 24.8611V24.845C41.7536 24.9654 42.4761 25.0323 43.2093 25.0323C43.6347 25.0323 44.0629 25.0109 44.4723 24.9735V23.5339H43.509V20.5717C43.3885 20.5771 43.2628 20.5824 43.1424 20.5824C40.9428 20.5824 39.0938 19.8118 37.6007 18.2786C36.1397 16.7801 35.3905 14.891 35.3584 12.5951C35.3584 10.2324 36.1023 8.28435 37.6007 6.7511C39.0912 5.22053 40.9402 4.44722 43.1397 4.44722Z" fill="#253276"/>
<path fill-rule="evenodd" clip-rule="evenodd" d="M17.0477 0.596703H30.0576V5.04392H21.5618C21.5618 10.0236 21.5618 15.0007 21.5618 19.9804H30.0576V24.4276H17.0477V0.596703Z" fill="#253276"/>
<path fill-rule="evenodd" clip-rule="evenodd" d="M14.5752 3.83981L11.2091 6.8073C10.0317 5.17237 8.83025 4.35089 7.61007 4.35089C7.00801 4.35089 6.52101 4.50876 6.14907 4.82719C5.76643 5.14561 5.57912 5.50685 5.57912 5.90554C5.57912 6.30424 5.71024 6.68688 5.97782 7.03742C6.34976 7.51371 7.46023 8.53053 9.31457 10.0959C11.0512 11.5435 12.1028 12.4586 12.4694 12.8359C13.3899 13.7671 14.0454 14.6528 14.4281 15.4957C14.8107 16.3493 15.0087 17.2751 15.0087 18.2759C15.0087 20.2346 14.3291 21.8428 12.9724 23.1245C11.6265 24.3928 9.86044 25.035 7.68232 25.035C5.9805 25.035 4.50344 24.6203 3.24581 23.7881C1.98014 22.9452 0.896432 21.6447 3.05176e-05 19.86L3.82378 17.5561C4.97171 19.662 6.29624 20.7136 7.78935 20.7136C8.57069 20.7136 9.22895 20.4834 9.75876 20.0285C10.2886 19.579 10.5588 19.0492 10.5588 18.4578C10.5588 17.9227 10.3555 17.3795 9.95142 16.839C9.55807 16.3038 8.67238 15.4716 7.30235 14.3611C4.70413 12.2499 3.02371 10.6123 2.26913 9.46439C1.5092 8.31646 1.1319 7.17121 1.1319 6.02328C1.1319 4.3723 1.76072 2.95411 3.01301 1.77675C4.27867 0.591357 5.83333 0 7.68232 0C8.87039 0 10.0023 0.278286 11.0806 0.82683C12.1563 1.37805 13.3176 2.37881 14.5752 3.83981Z" fill="#253276"/>
<path d="M83.8083 24.503H79.2406V8.14876C79.2406 7.82934 79.1767 7.53122 79.0489 7.25439C78.9318 6.97756 78.7668 6.738 78.5538 6.5357C78.3515 6.32275 78.112 6.15772 77.8352 6.0406C77.5583 5.92348 77.2602 5.86492 76.9408 5.86492C76.6214 5.86492 76.3232 5.92348 76.0464 6.0406C75.7696 6.15772 75.5247 6.32275 75.3117 6.5357C75.1094 6.738 74.9497 6.97756 74.8326 7.25439C74.7155 7.53122 74.6569 7.82934 74.6569 8.14876V24.503H70.0733V8.14876C70.0733 7.82934 70.0147 7.53122 69.8976 7.25439C69.7805 6.97756 69.6154 6.738 69.4025 6.5357C69.2002 6.32275 68.9606 6.15772 68.6838 6.0406C68.407 5.92348 68.1088 5.86492 67.7894 5.86492C67.47 5.86492 67.1719 5.92348 66.895 6.0406C66.6182 6.15772 66.3733 6.32275 66.1604 6.5357C65.9581 6.738 65.7984 6.97756 65.6813 7.25439C65.5641 7.53122 65.5056 7.82934 65.5056 8.14876V24.503H60.9219V8.14876C60.9219 7.20115 61.0976 6.3121 61.4489 5.48161C61.811 4.64048 62.3007 3.91114 62.9183 3.29359C63.5465 2.6654 64.2758 2.17562 65.1063 1.82426C65.9474 1.46225 66.8418 1.28125 67.7894 1.28125C68.6412 1.28125 69.461 1.43564 70.2489 1.74441C71.0368 2.04253 71.7449 2.47907 72.3731 3.05403C73.0013 2.47907 73.704 2.04253 74.4813 1.74441C75.2692 1.43564 76.089 1.28125 76.9408 1.28125C77.8884 1.28125 78.7774 1.46225 79.6079 1.82426C80.4491 2.17562 81.1784 2.6654 81.796 3.29359C82.4241 3.91114 82.9139 4.64048 83.2653 5.48161C83.6273 6.3121 83.8083 7.20115 83.8083 8.14876V24.503Z" fill="#253276"/>
<path d="M98.0544 24.503H93.4867V17.3321C92.4752 17.0765 91.5436 16.6666 90.6918 16.1023C89.8506 15.538 89.1266 14.8672 88.5197 14.09C87.9128 13.3021 87.439 12.4343 87.0983 11.4867C86.7682 10.5284 86.6032 9.52227 86.6032 8.46818V1.60067H91.1869V8.46818C91.1869 9.09637 91.304 9.69262 91.5382 10.2569C91.7831 10.8106 92.1132 11.295 92.5284 11.7103C92.9437 12.1255 93.4281 12.4556 93.9818 12.7005C94.5461 12.9347 95.1424 13.0518 95.7705 13.0518C96.3987 13.0518 96.9897 12.9347 97.5433 12.7005C98.1076 12.4556 98.5974 12.1255 99.0126 11.7103C99.4279 11.295 99.7526 10.8106 99.9869 10.2569C100.232 9.69262 100.354 9.09637 100.354 8.46818V1.60067H104.922V8.46818C104.922 9.52227 104.752 10.5284 104.411 11.4867C104.081 12.4343 103.612 13.3021 103.005 14.09C102.398 14.8672 101.674 15.538 100.833 16.1023C99.9922 16.6666 99.0659 17.0765 98.0544 17.3321V24.503Z" fill="#253276"/>
</svg>
