<svg width="167" height="34" viewBox="0 0 167 34" fill="none" xmlns="http://www.w3.org/2000/svg">
<path d="M18.4219 15.1875C18.3047 16.6641 18.0703 18.1523 17.7188 19.6523C17.3672 21.1289 16.9219 22.5586 16.3828 23.9414C15.8672 25.3242 15.2578 26.6133 14.5547 27.8086C13.8516 29.0273 13.0664 30.082 12.1992 30.9727C11.3555 31.8633 10.4414 32.5664 9.45703 33.082C8.49609 33.5977 7.48828 33.8555 6.43359 33.8555C6.22266 33.8555 5.89453 33.8086 5.44922 33.7148C5.02734 33.6445 4.57031 33.457 4.07812 33.1523C3.58594 32.8711 3.08203 32.4492 2.56641 31.8867C2.07422 31.3242 1.64062 30.5625 1.26562 29.6016C0.890625 28.6641 0.621094 27.4922 0.457031 26.0859C0.292969 24.6797 0.292969 22.9805 0.457031 20.9883C0.738281 17.8477 1.3125 15 2.17969 12.4453C3.07031 9.86719 4.07812 7.66406 5.20312 5.83594C6.35156 4.00781 7.53516 2.60156 8.75391 1.61719C9.97266 0.609375 11.0508 0.105469 11.9883 0.105469C12.3633 0.105469 12.668 0.1875 12.9023 0.351562C13.1602 0.492188 13.3594 0.679688 13.5 0.914062C13.6641 0.867187 13.8516 0.832031 14.0625 0.808594C14.2734 0.785156 14.5078 0.773438 14.7656 0.773438C15.4453 0.773438 16.043 1.125 16.5586 1.82812C17.0977 2.53125 17.5312 3.51562 17.8594 4.78125C18.2109 6.04688 18.4336 7.57031 18.5273 9.35156C18.6445 11.1094 18.6094 13.0547 18.4219 15.1875ZM6.53906 31.8164C7.45312 31.8164 8.39062 31.3477 9.35156 30.4102C10.3125 29.4727 11.2031 28.207 12.0234 26.6133C12.8438 24.9961 13.5469 23.1211 14.1328 20.9883C14.7188 18.8555 15.1172 16.5938 15.3281 14.2031C15.375 13.5703 15.4102 12.8438 15.4336 12.0234C15.457 11.2031 15.457 10.3711 15.4336 9.52734C15.4102 8.68359 15.3516 7.85156 15.2578 7.03125C15.1875 6.1875 15.082 5.44922 14.9414 4.81641C14.8008 4.18359 14.625 3.66797 14.4141 3.26953C14.2031 2.87109 13.957 2.67188 13.6758 2.67188C13.3711 2.69531 13.0664 2.78906 12.7617 2.95312C12.5039 3.09375 12.1992 3.32812 11.8477 3.65625C11.5195 3.96094 11.1914 4.39453 10.8633 4.95703C10.793 4.91016 10.7344 4.83984 10.6875 4.74609C10.6641 4.65234 10.6289 4.55859 10.582 4.46484C10.5352 4.37109 10.5 4.26563 10.4766 4.14844C10.4297 4.07812 10.4062 3.99609 10.4062 3.90234C10.4062 3.78516 10.3945 3.65625 10.3711 3.51562C9.90234 4.03125 9.33984 4.76953 8.68359 5.73047C8.05078 6.66797 7.40625 7.83984 6.75 9.24609C6.11719 10.6523 5.53125 12.3164 4.99219 14.2383C4.47656 16.1367 4.11328 18.3047 3.90234 20.7422C3.71484 22.8984 3.66797 24.6914 3.76172 26.1211C3.85547 27.5508 4.03125 28.6875 4.28906 29.5312C4.57031 30.375 4.91016 30.9609 5.30859 31.2891C5.70703 31.6406 6.11719 31.8164 6.53906 31.8164ZM24.7852 27.5625C23.8945 27.5625 23.168 27.4219 22.6055 27.1406C22.043 26.8594 21.5977 26.5195 21.2695 26.1211C20.9648 25.6992 20.7422 25.2539 20.6016 24.7852C20.4844 24.293 20.4258 23.8477 20.4258 23.4492C20.4258 22.7461 20.4844 22.0078 20.6016 21.2344C20.7188 20.4375 20.8594 19.7109 21.0234 19.0547C21.1875 18.375 21.3281 17.8008 21.4453 17.332C21.5859 16.8633 21.6797 16.5703 21.7266 16.4531C21.9375 15.7734 22.207 15.1875 22.5352 14.6953C22.8867 14.1797 23.3672 13.8281 23.9766 13.6406C24.2109 13.5938 24.457 13.5469 24.7148 13.5C24.9258 13.4766 25.1367 13.4648 25.3477 13.4648C25.582 13.4648 25.793 13.5 25.9805 13.5703C25.3477 15.1875 24.8438 16.5352 24.4688 17.6133C24.1172 18.6914 23.8477 19.5703 23.6602 20.25C23.4492 21.0234 23.3203 21.6445 23.2734 22.1133C23.1562 23.168 23.25 23.9648 23.5547 24.5039C23.8594 25.043 24.4805 25.3125 25.418 25.3125C26.0273 25.3125 26.6133 25.0898 27.1758 24.6445C27.7383 24.1758 28.2539 23.5781 28.7227 22.8516C28.6523 22.4766 28.6172 22.0898 28.6172 21.6914C28.6172 20.9414 28.6758 20.2148 28.793 19.5117C28.9336 18.7852 29.0859 18.1172 29.25 17.5078C29.4375 16.875 29.625 16.3125 29.8125 15.8203C30.0234 15.3281 30.1992 14.9414 30.3398 14.6602C30.5977 14.0977 30.832 13.7578 31.043 13.6406C31.2539 13.5 31.5938 13.418 32.0625 13.3945C32.25 13.3711 32.4023 13.3711 32.5195 13.3945C32.6602 13.3945 32.7773 13.4062 32.8711 13.4297C33.1523 13.5 33.293 13.6406 33.293 13.8516C33.293 14.2266 33.2695 14.7891 33.2227 15.5391C33.1758 16.2891 33.0352 17.0625 32.8008 17.8594C32.6367 18.5156 32.4727 19.0781 32.3086 19.5469C32.168 19.9922 32.0273 20.3789 31.8867 20.707C31.7461 21.0117 31.6055 21.2695 31.4648 21.4805C31.3242 21.668 31.1953 21.8438 31.0781 22.0078C31.125 22.7109 31.1836 23.2734 31.2539 23.6953C31.3242 24.1172 31.4062 24.4453 31.5 24.6797C31.6172 24.8906 31.7461 25.043 31.8867 25.1367C32.0508 25.207 32.2266 25.2422 32.4141 25.2422C32.7422 25.2422 33.1289 25.0898 33.5742 24.7852C34.0195 24.457 34.4766 24.0586 34.9453 23.5898C35.4375 23.0977 35.918 22.5703 36.3867 22.0078C36.8789 21.4219 37.3242 20.8711 37.7227 20.3555C38.1211 19.8398 38.4609 19.3945 38.7422 19.0195C39.0234 18.6211 39.1992 18.375 39.2695 18.2812C39.4336 18.0703 39.5859 17.9414 39.7266 17.8945C39.8906 17.8477 40.0195 17.8711 40.1133 17.9648C40.207 18.0352 40.2539 18.1641 40.2539 18.3516C40.2773 18.5156 40.2305 18.7031 40.1133 18.9141C39.6445 19.8047 39.0586 20.7539 38.3555 21.7617C37.6758 22.7461 36.9375 23.6602 36.1406 24.5039C35.3672 25.3477 34.582 26.0508 33.7852 26.6133C32.9883 27.1758 32.2383 27.457 31.5352 27.457C30.9023 27.457 30.3984 27.2461 30.0234 26.8242C29.6719 26.3789 29.3672 25.7461 29.1094 24.9258C28.5703 25.7695 27.9375 26.4258 27.2109 26.8945C26.4844 27.3398 25.6758 27.5625 24.7852 27.5625ZM35.9648 26.8242C35.8008 27.082 35.625 27.2461 35.4375 27.3164C35.2266 27.4102 35.0508 27.4219 34.9102 27.3516C34.7461 27.3047 34.6406 27.1875 34.5938 27C34.5469 26.8125 34.5938 26.5781 34.7344 26.2969C34.8047 26.1562 34.9688 25.8398 35.2266 25.3477C35.4609 24.8555 35.7539 24.2695 36.1055 23.5898C36.4336 22.8867 36.7969 22.1367 37.1953 21.3398C37.5938 20.5195 37.9688 19.7461 38.3203 19.0195C38.6953 18.293 39.0352 17.6484 39.3398 17.0859C39.6445 16.5 39.8672 16.0781 40.0078 15.8203C39.75 15.5859 39.5742 15.4219 39.4805 15.3281C39.3867 15.2109 39.3164 14.9766 39.2695 14.625C39.2227 14.3203 39.293 13.9219 39.4805 13.4297C39.668 12.9375 39.9141 12.4688 40.2188 12.0234C40.5234 11.5547 40.8633 11.1562 41.2383 10.8281C41.6133 10.5 41.9766 10.3359 42.3281 10.3359C42.9844 10.3359 43.4414 10.5469 43.6992 10.9688C43.9805 11.3906 44.1445 11.8242 44.1914 12.2695C44.2383 12.5742 44.2148 12.9609 44.1211 13.4297C44.0273 13.8984 43.8516 14.3203 43.5938 14.6953C43.6641 14.7422 43.7578 14.8008 43.875 14.8711C43.9922 14.918 44.1797 14.9414 44.4375 14.9414C44.8125 14.9414 45.0703 14.918 45.2109 14.8711C45.375 14.8242 45.6211 14.8008 45.9492 14.8008C46.3477 14.8008 46.6758 14.9062 46.9336 15.1172C47.1914 15.3047 47.4023 15.5508 47.5664 15.8555C47.7305 16.1367 47.8477 16.4531 47.918 16.8047C48.0117 17.1328 48.0703 17.4375 48.0938 17.7188C48.1641 18.3047 48.0117 18.9141 47.6367 19.5469C47.2617 20.1797 46.8047 20.8711 46.2656 21.6211C45.9375 22.0898 45.6094 22.6172 45.2812 23.2031C44.9531 23.7891 44.8125 24.3164 44.8594 24.7852C44.9062 25.0898 44.9883 25.3359 45.1055 25.5234C45.2227 25.7109 45.5508 25.8047 46.0898 25.8047C46.4883 25.8047 46.9219 25.6641 47.3906 25.3828C47.8828 25.0781 48.375 24.7031 48.8672 24.2578C49.3828 23.7891 49.8867 23.2852 50.3789 22.7461C50.8711 22.1836 51.3281 21.6445 51.75 21.1289C52.1719 20.5898 52.5234 20.1094 52.8047 19.6875C53.1094 19.2656 53.332 18.9609 53.4727 18.7734C53.5898 18.5859 53.7422 18.457 53.9297 18.3867C54.1172 18.3164 54.2812 18.3164 54.4219 18.3867C54.5625 18.457 54.6445 18.5977 54.668 18.8086C54.7148 19.0195 54.6328 19.3008 54.4219 19.6523C54.2812 19.8867 54.0352 20.2617 53.6836 20.7773C53.3555 21.293 52.9453 21.8672 52.4531 22.5C51.9844 23.1328 51.457 23.7891 50.8711 24.4688C50.2852 25.125 49.6641 25.7344 49.0078 26.2969C48.375 26.8359 47.7305 27.2812 47.0742 27.6328C46.4414 27.9844 45.832 28.1602 45.2461 28.1602C44.6367 28.1602 44.1328 28.043 43.7344 27.8086C43.3359 27.5742 43.0078 27.293 42.75 26.9648C42.5156 26.6133 42.3398 26.2383 42.2227 25.8398C42.1289 25.418 42.0938 25.0312 42.1172 24.6797C42.1406 24.3984 42.2109 24.1055 42.3281 23.8008C42.4688 23.4727 42.6211 23.1445 42.7852 22.8164C42.9727 22.4648 43.1602 22.125 43.3477 21.7969C43.5586 21.4453 43.7461 21.1055 43.9102 20.7773C44.3086 20.0977 44.625 19.5234 44.8594 19.0547C45.1172 18.5625 45.2461 18.1523 45.2461 17.8242C45.2461 17.6133 45.1992 17.4258 45.1055 17.2617C45.0117 17.0977 44.8594 17.0156 44.6484 17.0156C44.5078 17.0156 44.4023 17.0273 44.332 17.0508C44.2852 17.0508 44.2266 17.0508 44.1562 17.0508C44.1094 17.0508 44.0273 17.0625 43.9102 17.0859C43.8164 17.0859 43.6641 17.0859 43.4531 17.0859C43.1484 17.0859 42.8906 17.0391 42.6797 16.9453C42.4688 16.8516 42.2695 16.7812 42.082 16.7344C41.9883 16.8984 41.7773 17.25 41.4492 17.7891C41.1211 18.3281 40.7344 18.9609 40.2891 19.6875C39.8672 20.4141 39.4102 21.1758 38.918 21.9727C38.4492 22.7695 38.0039 23.5195 37.582 24.2227C37.1602 24.9023 36.8086 25.4883 36.5273 25.9805C36.2227 26.4492 36.0352 26.7305 35.9648 26.8242ZM78.3984 25.3828C78.3984 24.8906 78.4453 24.3281 78.5391 23.6953C78.6562 23.0625 78.7969 22.418 78.9609 21.7617C79.125 21.082 79.2891 20.4258 79.4531 19.793C79.6172 19.1602 79.7578 18.5977 79.875 18.1055C80.0156 17.4961 80.0039 17.0273 79.8398 16.6992C79.6758 16.3711 79.3945 16.207 78.9961 16.207C78.8086 16.207 78.4336 16.3711 77.8711 16.6992C77.332 17.0273 76.7344 17.6016 76.0781 18.4219C75.4453 19.2188 74.8125 20.3086 74.1797 21.6914C73.5703 23.0508 73.0898 24.7852 72.7383 26.8945C72.293 27.1289 71.8711 27.2812 71.4727 27.3516C71.2617 27.3984 71.0742 27.4336 70.9102 27.457C70.4414 27.4805 70.1367 27.3984 69.9961 27.2109C69.8555 27.0469 69.8789 26.625 70.0664 25.9453C70.1602 25.6172 70.3242 25.0898 70.5586 24.3633C70.8164 23.6367 71.0625 22.8516 71.2969 22.0078C71.5312 21.1406 71.7305 20.2852 71.8945 19.4414C72.082 18.5742 72.1758 17.8242 72.1758 17.1914C72.1758 16.7461 72.0938 16.4414 71.9297 16.2773C71.7891 16.1133 71.5781 16.0312 71.2969 16.0312C71.0859 16.0312 70.7344 16.1484 70.2422 16.3828C69.75 16.6172 69.1992 17.0742 68.5898 17.7539C67.9805 18.4336 67.3711 19.3828 66.7617 20.6016C66.1758 21.7969 65.6719 23.3555 65.25 25.2773V25.207C65.2031 25.3945 65.1562 25.582 65.1094 25.7695C65.0625 25.9336 65.0273 26.1094 65.0039 26.2969C64.9805 26.4844 64.9453 26.6602 64.8984 26.8242L63.1406 27.5977C63.0234 27.6445 62.8711 27.6797 62.6836 27.7031C62.5195 27.7266 62.3555 27.6914 62.1914 27.5977C62.0508 27.5273 61.9453 27.3633 61.875 27.1055C61.8047 26.8477 61.8281 26.4609 61.9453 25.9453L64.1602 16.7695C64.2305 16.4648 64.2891 16.1719 64.3359 15.8906C64.3828 15.6328 64.4062 15.3867 64.4062 15.1523C64.4297 14.8945 64.418 14.6836 64.3711 14.5195C64.7695 14.332 65.1211 14.1914 65.4258 14.0977C65.7305 14.0039 65.9766 13.9336 66.1641 13.8867C66.3984 13.8164 66.5977 13.7812 66.7617 13.7812C67.5117 13.7812 67.7578 14.4258 67.5 15.7148C67.4062 16.0898 67.2656 16.6406 67.0781 17.3672C67.5234 16.8047 67.9922 16.2773 68.4844 15.7852C69 15.2695 69.5156 14.8125 70.0312 14.4141C70.5469 14.0156 71.0625 13.6992 71.5781 13.4648C72.1172 13.2305 72.6445 13.1133 73.1602 13.1133C73.5586 13.1133 73.8867 13.2305 74.1445 13.4648C74.4258 13.6992 74.6367 14.0156 74.7773 14.4141C74.9414 14.7891 75.0352 15.2461 75.0586 15.7852C75.082 16.3008 75.0586 16.8398 74.9883 17.4023C75.3633 16.9102 75.7734 16.418 76.2188 15.9258C76.6875 15.4102 77.168 14.9531 77.6602 14.5547C78.1758 14.1562 78.7031 13.8281 79.2422 13.5703C79.7812 13.3125 80.3203 13.1836 80.8594 13.1836C81.4922 13.1836 81.9727 13.3711 82.3008 13.7461C82.6523 14.1211 82.8867 14.6016 83.0039 15.1875C83.1445 15.7734 83.1797 16.4062 83.1094 17.0859C83.0625 17.7656 82.9688 18.4219 82.8281 19.0547L81.6328 23.8008C81.375 24.9727 81.6211 25.5586 82.3711 25.5586C82.957 25.5586 83.6016 25.2773 84.3047 24.7148C85.0078 24.1523 85.6875 23.4844 86.3438 22.7109C87.0234 21.9375 87.6562 21.1406 88.2422 20.3203C88.8281 19.5 89.3203 18.8438 89.7188 18.3516C89.8594 18.1875 90 18.0938 90.1406 18.0703C90.3047 18.0469 90.4336 18.082 90.5273 18.1758C90.6445 18.2461 90.7031 18.375 90.7031 18.5625C90.7266 18.75 90.668 18.9844 90.5273 19.2656C90.0586 20.0859 89.4844 21 88.8047 22.0078C88.125 22.9922 87.375 23.918 86.5547 24.7852C85.7578 25.6523 84.9023 26.3789 83.9883 26.9648C83.0742 27.5508 82.125 27.8438 81.1406 27.8438C80.8125 27.8438 80.4844 27.8086 80.1562 27.7383C79.8516 27.668 79.5586 27.5391 79.2773 27.3516C79.0195 27.1641 78.8086 26.918 78.6445 26.6133C78.4805 26.2852 78.3984 25.875 78.3984 25.3828ZM95.5898 6.29297C95.5195 6.55078 95.3789 6.80859 95.168 7.06641C94.9805 7.30078 94.7578 7.5 94.5 7.66406C94.2656 7.80469 94.0195 7.89844 93.7617 7.94531C93.5039 7.99219 93.293 7.94531 93.1289 7.80469C92.6367 7.42969 92.3789 7.03125 92.3555 6.60938C92.332 6.16406 92.4375 5.75391 92.6719 5.37891C92.9062 4.98047 93.1992 4.65234 93.5508 4.39453C93.9023 4.11328 94.207 3.94922 94.4648 3.90234C94.7227 3.85547 94.9336 3.91406 95.0977 4.07812C95.2852 4.21875 95.4258 4.41797 95.5195 4.67578C95.6133 4.91016 95.6602 5.17969 95.6602 5.48438C95.6836 5.78906 95.6602 6.05859 95.5898 6.29297ZM90.7383 13.7812C90.8555 13.6406 91.0781 13.5234 91.4062 13.4297C91.7344 13.3359 92.0742 13.2656 92.4258 13.2188C92.7773 13.1484 93.0938 13.1133 93.375 13.1133C93.6797 13.0898 93.8555 13.0898 93.9023 13.1133C93.9258 13.1367 93.8672 13.3828 93.7266 13.8516C93.5859 14.3203 93.4102 14.8711 93.1992 15.5039C92.9883 16.1367 92.7656 16.793 92.5312 17.4727C92.2969 18.1289 92.1211 18.668 92.0039 19.0898C91.8867 19.5117 91.7461 19.9922 91.582 20.5312C91.418 21.0469 91.2656 21.5625 91.125 22.0781C91.0078 22.5703 90.9258 23.0391 90.8789 23.4844C90.832 23.9297 90.8672 24.2695 90.9844 24.5039C91.1016 24.7852 91.2305 24.9844 91.3711 25.1016C91.5117 25.1953 91.6641 25.2422 91.8281 25.2422C92.2969 25.2422 92.8828 24.9844 93.5859 24.4688C94.3125 23.9531 95.0391 23.3438 95.7656 22.6406C96.5156 21.9141 97.207 21.1875 97.8398 20.4609C98.4727 19.7109 98.9414 19.1133 99.2461 18.668C99.4336 18.4336 99.6211 18.2812 99.8086 18.2109C100.02 18.1406 100.184 18.1523 100.301 18.2461C100.441 18.3398 100.512 18.4922 100.512 18.7031C100.535 18.9141 100.465 19.1602 100.301 19.4414C99.9258 20.0977 99.375 20.8828 98.6484 21.7969C97.9219 22.6875 97.1484 23.5547 96.3281 24.3984C95.5078 25.2188 94.6992 25.9219 93.9023 26.5078C93.1289 27.0938 92.4961 27.3984 92.0039 27.4219C91.6055 27.4453 91.207 27.375 90.8086 27.2109C90.4336 27.0703 90.082 26.8711 89.7539 26.6133C89.4492 26.332 89.1914 26.0156 88.9805 25.6641C88.7695 25.2891 88.6523 24.9023 88.6289 24.5039C88.5586 23.918 88.5586 23.1211 88.6289 22.1133C88.6992 21.082 88.8281 20.0391 89.0156 18.9844C89.2031 17.9062 89.4375 16.8867 89.7188 15.9258C90.0234 14.9648 90.3633 14.25 90.7383 13.7812ZM102.691 25.8047C102.832 25.8984 103.008 25.9453 103.219 25.9453C103.453 25.9453 103.676 25.8984 103.887 25.8047C104.121 25.7109 104.332 25.582 104.52 25.418C104.73 25.2539 104.883 25.043 104.977 24.7852C105.07 24.5273 105.07 24.1641 104.977 23.6953C104.883 23.2031 104.73 22.6875 104.52 22.1484C104.332 21.5859 104.121 21.0234 103.887 20.4609C103.652 19.8984 103.453 19.3828 103.289 18.9141C103.148 18.5625 103.031 18.2344 102.938 17.9297C102.844 17.6719 102.75 17.4258 102.656 17.1914C102.586 16.9336 102.527 16.7578 102.48 16.6641C102.363 16.8516 102.152 17.1562 101.848 17.5781C101.566 18 101.25 18.4453 100.898 18.9141C100.57 19.3594 100.254 19.7812 99.9492 20.1797C99.6445 20.5547 99.4336 20.8125 99.3164 20.9531C99.1289 21.1641 98.9414 21.293 98.7539 21.3398C98.5898 21.3633 98.4492 21.3281 98.332 21.2344C98.2148 21.1172 98.1445 20.9648 98.1211 20.7773C98.1211 20.5664 98.2148 20.3203 98.4023 20.0391C98.543 19.8516 98.7539 19.5586 99.0352 19.1602C99.3164 18.7383 99.5977 18.3164 99.8789 17.8945C100.16 17.4492 100.418 17.0625 100.652 16.7344C100.887 16.3828 101.016 16.1719 101.039 16.1016C101.086 15.9141 101.016 15.668 100.828 15.3633C100.664 15.0586 100.641 14.707 100.758 14.3086C100.852 13.9805 101.062 13.6055 101.391 13.1836C101.719 12.7383 102.105 12.3398 102.551 11.9883C102.996 11.6367 103.453 11.3789 103.922 11.2148C104.391 11.0273 104.812 11.0273 105.188 11.2148C105.492 11.4023 105.738 11.6133 105.926 11.8477C106.113 12.0586 106.184 12.2812 106.137 12.5156C106.09 12.6328 106.02 12.7852 105.926 12.9727C105.832 13.1602 105.691 13.3945 105.504 13.6758C105.316 13.9336 105.047 14.2734 104.695 14.6953C104.766 15.2344 104.859 15.7266 104.977 16.1719C105.117 16.6172 105.246 17.0039 105.363 17.332C105.504 17.7305 105.656 18.0938 105.82 18.4219C106.031 18.8438 106.254 19.2773 106.488 19.7227C106.723 20.168 106.934 20.6133 107.121 21.0586C107.309 21.4805 107.461 21.8789 107.578 22.2539C107.695 22.6289 107.73 22.9453 107.684 23.2031C107.613 23.6016 107.402 24.082 107.051 24.6445C106.723 25.207 106.301 25.7578 105.785 26.2969C105.293 26.8125 104.719 27.2578 104.062 27.6328C103.43 28.0078 102.762 28.1953 102.059 28.1953C101.566 28.1953 101.086 28.043 100.617 27.7383C100.172 27.4336 99.7852 27.082 99.457 26.6836C99.1523 26.2617 98.918 25.8516 98.7539 25.4531C98.6133 25.0547 98.6016 24.75 98.7188 24.5391C98.8594 24.2578 98.9883 24.0352 99.1055 23.8711C99.2227 23.707 99.3984 23.5195 99.6328 23.3086C99.7266 23.2383 99.8438 23.1562 99.9844 23.0625C100.102 22.9922 100.266 22.9219 100.477 22.8516C100.688 22.7812 100.934 22.6992 101.215 22.6055C101.449 23.332 101.66 23.9062 101.848 24.3281C102.035 24.7266 102.188 25.043 102.305 25.2773C102.445 25.5352 102.574 25.7109 102.691 25.8047ZM115.348 25.8047C115.488 25.8984 115.664 25.9453 115.875 25.9453C116.109 25.9453 116.332 25.8984 116.543 25.8047C116.777 25.7109 116.988 25.582 117.176 25.418C117.387 25.2539 117.539 25.043 117.633 24.7852C117.727 24.5273 117.727 24.1641 117.633 23.6953C117.539 23.2031 117.387 22.6875 117.176 22.1484C116.988 21.5859 116.777 21.0234 116.543 20.4609C116.309 19.8984 116.109 19.3828 115.945 18.9141C115.805 18.5625 115.688 18.2344 115.594 17.9297C115.5 17.6719 115.406 17.4258 115.312 17.1914C115.242 16.9336 115.184 16.7578 115.137 16.6641C115.02 16.8516 114.809 17.1562 114.504 17.5781C114.223 18 113.906 18.4453 113.555 18.9141C113.227 19.3594 112.91 19.7812 112.605 20.1797C112.301 20.5547 112.09 20.8125 111.973 20.9531C111.785 21.1641 111.598 21.293 111.41 21.3398C111.246 21.3633 111.105 21.3281 110.988 21.2344C110.871 21.1172 110.801 20.9648 110.777 20.7773C110.777 20.5664 110.871 20.3203 111.059 20.0391C111.199 19.8516 111.41 19.5586 111.691 19.1602C111.973 18.7383 112.254 18.3164 112.535 17.8945C112.816 17.4492 113.074 17.0625 113.309 16.7344C113.543 16.3828 113.672 16.1719 113.695 16.1016C113.742 15.9141 113.672 15.668 113.484 15.3633C113.32 15.0586 113.297 14.707 113.414 14.3086C113.508 13.9805 113.719 13.6055 114.047 13.1836C114.375 12.7383 114.762 12.3398 115.207 11.9883C115.652 11.6367 116.109 11.3789 116.578 11.2148C117.047 11.0273 117.469 11.0273 117.844 11.2148C118.148 11.4023 118.395 11.6133 118.582 11.8477C118.77 12.0586 118.84 12.2812 118.793 12.5156C118.746 12.6328 118.676 12.7852 118.582 12.9727C118.488 13.1602 118.348 13.3945 118.16 13.6758C117.973 13.9336 117.703 14.2734 117.352 14.6953C117.422 15.2344 117.516 15.7266 117.633 16.1719C117.773 16.6172 117.902 17.0039 118.02 17.332C118.16 17.7305 118.312 18.0938 118.477 18.4219C118.688 18.8438 118.91 19.2773 119.145 19.7227C119.379 20.168 119.59 20.6133 119.777 21.0586C119.965 21.4805 120.117 21.8789 120.234 22.2539C120.352 22.6289 120.387 22.9453 120.34 23.2031C120.27 23.6016 120.059 24.082 119.707 24.6445C119.379 25.207 118.957 25.7578 118.441 26.2969C117.949 26.8125 117.375 27.2578 116.719 27.6328C116.086 28.0078 115.418 28.1953 114.715 28.1953C114.223 28.1953 113.742 28.043 113.273 27.7383C112.828 27.4336 112.441 27.082 112.113 26.6836C111.809 26.2617 111.574 25.8516 111.41 25.4531C111.27 25.0547 111.258 24.75 111.375 24.5391C111.516 24.2578 111.645 24.0352 111.762 23.8711C111.879 23.707 112.055 23.5195 112.289 23.3086C112.383 23.2383 112.5 23.1562 112.641 23.0625C112.758 22.9922 112.922 22.9219 113.133 22.8516C113.344 22.7812 113.59 22.6992 113.871 22.6055C114.105 23.332 114.316 23.9062 114.504 24.3281C114.691 24.7266 114.844 25.043 114.961 25.2773C115.102 25.5352 115.23 25.7109 115.348 25.8047ZM130.781 6.29297C130.711 6.55078 130.57 6.80859 130.359 7.06641C130.172 7.30078 129.949 7.5 129.691 7.66406C129.457 7.80469 129.211 7.89844 128.953 7.94531C128.695 7.99219 128.484 7.94531 128.32 7.80469C127.828 7.42969 127.57 7.03125 127.547 6.60938C127.523 6.16406 127.629 5.75391 127.863 5.37891C128.098 4.98047 128.391 4.65234 128.742 4.39453C129.094 4.11328 129.398 3.94922 129.656 3.90234C129.914 3.85547 130.125 3.91406 130.289 4.07812C130.477 4.21875 130.617 4.41797 130.711 4.67578C130.805 4.91016 130.852 5.17969 130.852 5.48438C130.875 5.78906 130.852 6.05859 130.781 6.29297ZM125.93 13.7812C126.047 13.6406 126.27 13.5234 126.598 13.4297C126.926 13.3359 127.266 13.2656 127.617 13.2188C127.969 13.1484 128.285 13.1133 128.566 13.1133C128.871 13.0898 129.047 13.0898 129.094 13.1133C129.117 13.1367 129.059 13.3828 128.918 13.8516C128.777 14.3203 128.602 14.8711 128.391 15.5039C128.18 16.1367 127.957 16.793 127.723 17.4727C127.488 18.1289 127.312 18.668 127.195 19.0898C127.078 19.5117 126.938 19.9922 126.773 20.5312C126.609 21.0469 126.457 21.5625 126.316 22.0781C126.199 22.5703 126.117 23.0391 126.07 23.4844C126.023 23.9297 126.059 24.2695 126.176 24.5039C126.293 24.7852 126.422 24.9844 126.562 25.1016C126.703 25.1953 126.855 25.2422 127.02 25.2422C127.488 25.2422 128.074 24.9844 128.777 24.4688C129.504 23.9531 130.23 23.3438 130.957 22.6406C131.707 21.9141 132.398 21.1875 133.031 20.4609C133.664 19.7109 134.133 19.1133 134.438 18.668C134.625 18.4336 134.812 18.2812 135 18.2109C135.211 18.1406 135.375 18.1523 135.492 18.2461C135.633 18.3398 135.703 18.4922 135.703 18.7031C135.727 18.9141 135.656 19.1602 135.492 19.4414C135.117 20.0977 134.566 20.8828 133.84 21.7969C133.113 22.6875 132.34 23.5547 131.52 24.3984C130.699 25.2188 129.891 25.9219 129.094 26.5078C128.32 27.0938 127.688 27.3984 127.195 27.4219C126.797 27.4453 126.398 27.375 126 27.2109C125.625 27.0703 125.273 26.8711 124.945 26.6133C124.641 26.332 124.383 26.0156 124.172 25.6641C123.961 25.2891 123.844 24.9023 123.82 24.5039C123.75 23.918 123.75 23.1211 123.82 22.1133C123.891 21.082 124.02 20.0391 124.207 18.9844C124.395 17.9062 124.629 16.8867 124.91 15.9258C125.215 14.9648 125.555 14.25 125.93 13.7812ZM143.332 21.4102C143.098 22.3008 142.781 23.1328 142.383 23.9062C141.984 24.6797 141.504 25.3477 140.941 25.9102C140.402 26.4727 139.781 26.9062 139.078 27.2109C138.398 27.5391 137.648 27.7031 136.828 27.7031C135.867 27.7031 135.105 27.4922 134.543 27.0703C134.004 26.6719 133.594 26.168 133.312 25.5586C133.055 24.9492 132.902 24.2812 132.855 23.5547C132.785 22.8281 132.75 22.1484 132.75 21.5156C132.75 21.0703 132.809 20.5781 132.926 20.0391C133.02 19.5 133.16 18.9492 133.348 18.3867C133.535 17.8242 133.77 17.2617 134.051 16.6992C134.355 16.1367 134.707 15.6211 135.105 15.1523C135.246 14.7539 135.457 14.4023 135.738 14.0977C136.043 13.793 136.383 13.5469 136.758 13.3594C137.156 13.1484 137.578 12.9961 138.023 12.9023C138.469 12.7852 138.902 12.7266 139.324 12.7266C139.395 12.7266 139.453 12.7383 139.5 12.7617C139.57 12.7852 139.641 12.8086 139.711 12.832C140.016 12.8555 140.391 12.9727 140.836 13.1836C141.305 13.3945 141.75 13.7109 142.172 14.1328C142.617 14.5547 142.992 15.0938 143.297 15.75C143.602 16.3828 143.754 17.1562 143.754 18.0703C143.754 18.2578 143.742 18.4922 143.719 18.7734C143.695 19.0312 143.672 19.2539 143.648 19.4414C144.188 19.2305 144.75 18.9727 145.336 18.668C145.922 18.3633 146.484 18.0469 147.023 17.7188C147.586 17.3672 148.102 17.0156 148.57 16.6641C149.039 16.3125 149.414 15.9961 149.695 15.7148C149.93 15.5039 150.129 15.3867 150.293 15.3633C150.457 15.3398 150.574 15.3867 150.645 15.5039C150.715 15.6211 150.727 15.7852 150.68 15.9961C150.633 16.207 150.504 16.4414 150.293 16.6992C150.176 16.8398 149.871 17.1211 149.379 17.543C148.91 17.9648 148.348 18.4219 147.691 18.9141C147.035 19.4062 146.32 19.8867 145.547 20.3555C144.773 20.8242 144.035 21.1758 143.332 21.4102ZM137.391 16.0664C137.32 16.2773 137.285 16.5 137.285 16.7344C137.285 17.1094 137.309 17.5078 137.355 17.9297C137.402 18.3281 137.52 18.6914 137.707 19.0195C137.895 19.3477 138.188 19.6289 138.586 19.8633C139.008 20.0742 139.582 20.1797 140.309 20.1797C140.426 20.1797 140.543 20.1797 140.66 20.1797C140.777 20.1562 140.895 20.1328 141.012 20.1094C141.082 19.8047 141.141 19.5352 141.188 19.3008C141.258 19.043 141.293 18.8203 141.293 18.6328C141.34 18.1875 141.34 17.7305 141.293 17.2617C141.246 16.793 141.152 16.3711 141.012 15.9961C140.895 15.5977 140.73 15.2812 140.52 15.0469C140.332 14.7891 140.098 14.6602 139.816 14.6602C139.371 14.6602 138.938 14.7891 138.516 15.0469C138.117 15.2812 137.742 15.6211 137.391 16.0664ZM135.141 22.2539C135.141 22.6758 135.164 23.0977 135.211 23.5195C135.258 23.918 135.352 24.2812 135.492 24.6094C135.633 24.9141 135.82 25.1719 136.055 25.3828C136.289 25.5703 136.594 25.6641 136.969 25.6641C137.391 25.6641 137.777 25.5703 138.129 25.3828C138.48 25.1719 138.797 24.9141 139.078 24.6094C139.359 24.2812 139.605 23.918 139.816 23.5195C140.051 23.0977 140.25 22.6641 140.414 22.2188C140.25 22.2422 140.086 22.2656 139.922 22.2891C139.781 22.2891 139.617 22.2891 139.43 22.2891C138.539 22.2891 137.766 22.0312 137.109 21.5156C136.477 20.9766 135.984 20.2969 135.633 19.4766C135.492 19.9688 135.375 20.4492 135.281 20.918C135.188 21.3867 135.141 21.832 135.141 22.2539ZM157.535 27.8789C156.996 27.8789 156.527 27.7734 156.129 27.5625C155.754 27.375 155.449 27.1172 155.215 26.7891C154.98 26.4609 154.828 26.0859 154.758 25.6641C154.688 25.2188 154.711 24.75 154.828 24.2578C154.898 23.9297 155.016 23.4961 155.18 22.957C155.344 22.3945 155.508 21.7969 155.672 21.1641C155.859 20.5078 156.023 19.8633 156.164 19.2305C156.328 18.5742 156.434 17.9883 156.48 17.4727C156.527 16.9336 156.504 16.5 156.41 16.1719C156.316 15.8203 156.117 15.6445 155.812 15.6445C155.438 15.6445 155.051 15.7734 154.652 16.0312C154.254 16.2656 153.844 16.5938 153.422 17.0156C153.023 17.4375 152.613 17.9297 152.191 18.4922C151.793 19.0312 151.395 19.5938 150.996 20.1797C150.785 20.9766 150.609 21.6797 150.469 22.2891C150.328 22.875 150.199 23.4141 150.082 23.9062C149.988 24.375 149.895 24.7969 149.801 25.1719C149.707 25.5234 149.625 25.8633 149.555 26.1914C149.484 26.4258 149.273 26.6602 148.922 26.8945C148.57 27.1055 148.195 27.2812 147.797 27.4219C147.398 27.5625 147.059 27.6328 146.777 27.6328C146.473 27.6328 146.344 27.5273 146.391 27.3164C146.414 27.1758 146.496 26.8594 146.637 26.3672C146.754 25.875 146.906 25.3008 147.094 24.6445C147.258 23.9648 147.434 23.25 147.621 22.5C147.809 21.75 147.984 21.0352 148.148 20.3555C148.266 19.8164 148.395 19.2188 148.535 18.5625C148.652 18 148.793 17.3438 148.957 16.5938C149.145 15.8438 149.355 15.0234 149.59 14.1328C149.754 13.9922 149.918 13.8867 150.082 13.8164C150.27 13.7227 150.457 13.6523 150.645 13.6055C150.832 13.5352 151.031 13.4883 151.242 13.4648C151.43 13.4648 151.617 13.4766 151.805 13.5C151.969 13.5234 152.133 13.5703 152.297 13.6406C152.484 13.6875 152.648 13.7695 152.789 13.8867C152.719 14.0508 152.637 14.2852 152.543 14.5898C152.449 14.8711 152.355 15.1758 152.262 15.5039C152.168 15.8789 152.051 16.2656 151.91 16.6641C152.215 16.2422 152.555 15.8203 152.93 15.3984C153.328 14.9531 153.75 14.5547 154.195 14.2031C154.664 13.8516 155.156 13.5703 155.672 13.3594C156.188 13.125 156.715 13.0078 157.254 13.0078C157.699 13.0078 158.098 13.1367 158.449 13.3945C158.801 13.6523 159.07 14.0156 159.258 14.4844C159.469 14.9297 159.586 15.4688 159.609 16.1016C159.656 16.7344 159.574 17.4258 159.363 18.1758L158.977 19.7227C158.859 20.2148 158.707 20.8008 158.52 21.4805C158.355 22.1367 158.145 22.8633 157.887 23.6602C157.746 24.1758 157.688 24.6211 157.711 24.9961C157.758 25.3711 157.992 25.5586 158.414 25.5586C158.836 25.5586 159.363 25.3008 159.996 24.7852C160.652 24.2695 161.309 23.6484 161.965 22.9219C162.621 22.1953 163.242 21.457 163.828 20.707C164.414 19.9336 164.859 19.3125 165.164 18.8438C165.375 18.5391 165.574 18.3398 165.762 18.2461C165.949 18.1523 166.09 18.1406 166.184 18.2109C166.301 18.2812 166.359 18.4453 166.359 18.7031C166.359 18.9375 166.266 19.2422 166.078 19.6172C165.914 19.9453 165.656 20.3789 165.305 20.918C164.977 21.457 164.578 22.0312 164.109 22.6406C163.641 23.25 163.137 23.8711 162.598 24.5039C162.059 25.1133 161.496 25.6758 160.91 26.1914C160.324 26.6836 159.738 27.082 159.152 27.3867C158.59 27.7148 158.051 27.8789 157.535 27.8789Z" fill="#010F1C"/>
</svg>
