<svg width="169" height="43" viewBox="0 0 169 43" fill="none" xmlns="http://www.w3.org/2000/svg">
<path d="M18.4219 15.1875C18.3047 16.6641 18.0703 18.1523 17.7188 19.6523C17.3672 21.1289 16.9219 22.5586 16.3828 23.9414C15.8672 25.3242 15.2578 26.6133 14.5547 27.8086C13.8516 29.0273 13.0664 30.082 12.1992 30.9727C11.3555 31.8633 10.4414 32.5664 9.45703 33.082C8.49609 33.5977 7.48828 33.8555 6.43359 33.8555C6.22266 33.8555 5.89453 33.8086 5.44922 33.7148C5.02734 33.6445 4.57031 33.457 4.07812 33.1523C3.58594 32.8711 3.08203 32.4492 2.56641 31.8867C2.07422 31.3242 1.64062 30.5625 1.26562 29.6016C0.890625 28.6641 0.621094 27.4922 0.457031 26.0859C0.292969 24.6797 0.292969 22.9805 0.457031 20.9883C0.738281 17.8477 1.3125 15 2.17969 12.4453C3.07031 9.86719 4.07812 7.66406 5.20312 5.83594C6.35156 4.00781 7.53516 2.60156 8.75391 1.61719C9.97266 0.609375 11.0508 0.105469 11.9883 0.105469C12.3633 0.105469 12.668 0.1875 12.9023 0.351562C13.1602 0.492188 13.3594 0.679688 13.5 0.914062C13.6641 0.867187 13.8516 0.832031 14.0625 0.808594C14.2734 0.785156 14.5078 0.773438 14.7656 0.773438C15.4453 0.773438 16.043 1.125 16.5586 1.82812C17.0977 2.53125 17.5312 3.51562 17.8594 4.78125C18.2109 6.04688 18.4336 7.57031 18.5273 9.35156C18.6445 11.1094 18.6094 13.0547 18.4219 15.1875ZM6.53906 31.8164C7.45312 31.8164 8.39062 31.3477 9.35156 30.4102C10.3125 29.4727 11.2031 28.207 12.0234 26.6133C12.8438 24.9961 13.5469 23.1211 14.1328 20.9883C14.7188 18.8555 15.1172 16.5938 15.3281 14.2031C15.375 13.5703 15.4102 12.8438 15.4336 12.0234C15.457 11.2031 15.457 10.3711 15.4336 9.52734C15.4102 8.68359 15.3516 7.85156 15.2578 7.03125C15.1875 6.1875 15.082 5.44922 14.9414 4.81641C14.8008 4.18359 14.625 3.66797 14.4141 3.26953C14.2031 2.87109 13.957 2.67188 13.6758 2.67188C13.3711 2.69531 13.0664 2.78906 12.7617 2.95312C12.5039 3.09375 12.1992 3.32812 11.8477 3.65625C11.5195 3.96094 11.1914 4.39453 10.8633 4.95703C10.793 4.91016 10.7344 4.83984 10.6875 4.74609C10.6641 4.65234 10.6289 4.55859 10.582 4.46484C10.5352 4.37109 10.5 4.26563 10.4766 4.14844C10.4297 4.07812 10.4062 3.99609 10.4062 3.90234C10.4062 3.78516 10.3945 3.65625 10.3711 3.51562C9.90234 4.03125 9.33984 4.76953 8.68359 5.73047C8.05078 6.66797 7.40625 7.83984 6.75 9.24609C6.11719 10.6523 5.53125 12.3164 4.99219 14.2383C4.47656 16.1367 4.11328 18.3047 3.90234 20.7422C3.71484 22.8984 3.66797 24.6914 3.76172 26.1211C3.85547 27.5508 4.03125 28.6875 4.28906 29.5312C4.57031 30.375 4.91016 30.9609 5.30859 31.2891C5.70703 31.6406 6.11719 31.8164 6.53906 31.8164ZM24.7852 27.5625C23.8945 27.5625 23.168 27.4219 22.6055 27.1406C22.043 26.8594 21.5977 26.5195 21.2695 26.1211C20.9648 25.6992 20.7422 25.2539 20.6016 24.7852C20.4844 24.293 20.4258 23.8477 20.4258 23.4492C20.4258 22.7461 20.4844 22.0078 20.6016 21.2344C20.7188 20.4375 20.8594 19.7109 21.0234 19.0547C21.1875 18.375 21.3281 17.8008 21.4453 17.332C21.5859 16.8633 21.6797 16.5703 21.7266 16.4531C21.9375 15.7734 22.207 15.1875 22.5352 14.6953C22.8867 14.1797 23.3672 13.8281 23.9766 13.6406C24.2109 13.5938 24.457 13.5469 24.7148 13.5C24.9258 13.4766 25.1367 13.4648 25.3477 13.4648C25.582 13.4648 25.793 13.5 25.9805 13.5703C25.3477 15.1875 24.8438 16.5352 24.4688 17.6133C24.1172 18.6914 23.8477 19.5703 23.6602 20.25C23.4492 21.0234 23.3203 21.6445 23.2734 22.1133C23.1562 23.168 23.25 23.9648 23.5547 24.5039C23.8594 25.043 24.4805 25.3125 25.418 25.3125C26.0273 25.3125 26.6133 25.0898 27.1758 24.6445C27.7383 24.1758 28.2539 23.5781 28.7227 22.8516C28.6523 22.4766 28.6172 22.0898 28.6172 21.6914C28.6172 20.9414 28.6758 20.2148 28.793 19.5117C28.9336 18.7852 29.0859 18.1172 29.25 17.5078C29.4375 16.875 29.625 16.3125 29.8125 15.8203C30.0234 15.3281 30.1992 14.9414 30.3398 14.6602C30.5977 14.0977 30.832 13.7578 31.043 13.6406C31.2539 13.5 31.5938 13.418 32.0625 13.3945C32.25 13.3711 32.4023 13.3711 32.5195 13.3945C32.6602 13.3945 32.7773 13.4062 32.8711 13.4297C33.1523 13.5 33.293 13.6406 33.293 13.8516C33.293 14.2266 33.2695 14.7891 33.2227 15.5391C33.1758 16.2891 33.0352 17.0625 32.8008 17.8594C32.6367 18.5156 32.4727 19.0781 32.3086 19.5469C32.168 19.9922 32.0273 20.3789 31.8867 20.707C31.7461 21.0117 31.6055 21.2695 31.4648 21.4805C31.3242 21.668 31.1953 21.8438 31.0781 22.0078C31.125 22.7109 31.1836 23.2734 31.2539 23.6953C31.3242 24.1172 31.4062 24.4453 31.5 24.6797C31.6172 24.8906 31.7461 25.043 31.8867 25.1367C32.0508 25.207 32.2266 25.2422 32.4141 25.2422C32.7422 25.2422 33.1289 25.0898 33.5742 24.7852C34.0195 24.457 34.4766 24.0586 34.9453 23.5898C35.4375 23.0977 35.918 22.5703 36.3867 22.0078C36.8789 21.4219 37.3242 20.8711 37.7227 20.3555C38.1211 19.8398 38.4609 19.3945 38.7422 19.0195C39.0234 18.6211 39.1992 18.375 39.2695 18.2812C39.4336 18.0703 39.5859 17.9414 39.7266 17.8945C39.8906 17.8477 40.0195 17.8711 40.1133 17.9648C40.207 18.0352 40.2539 18.1641 40.2539 18.3516C40.2773 18.5156 40.2305 18.7031 40.1133 18.9141C39.6445 19.8047 39.0586 20.7539 38.3555 21.7617C37.6758 22.7461 36.9375 23.6602 36.1406 24.5039C35.3672 25.3477 34.582 26.0508 33.7852 26.6133C32.9883 27.1758 32.2383 27.457 31.5352 27.457C30.9023 27.457 30.3984 27.2461 30.0234 26.8242C29.6719 26.3789 29.3672 25.7461 29.1094 24.9258C28.5703 25.7695 27.9375 26.4258 27.2109 26.8945C26.4844 27.3398 25.6758 27.5625 24.7852 27.5625ZM35.9648 26.8242C35.8008 27.082 35.625 27.2461 35.4375 27.3164C35.2266 27.4102 35.0508 27.4219 34.9102 27.3516C34.7461 27.3047 34.6406 27.1875 34.5938 27C34.5469 26.8125 34.5938 26.5781 34.7344 26.2969C34.8047 26.1562 34.9688 25.8398 35.2266 25.3477C35.4609 24.8555 35.7539 24.2695 36.1055 23.5898C36.4336 22.8867 36.7969 22.1367 37.1953 21.3398C37.5938 20.5195 37.9688 19.7461 38.3203 19.0195C38.6953 18.293 39.0352 17.6484 39.3398 17.0859C39.6445 16.5 39.8672 16.0781 40.0078 15.8203C39.75 15.5859 39.5742 15.4219 39.4805 15.3281C39.3867 15.2109 39.3164 14.9766 39.2695 14.625C39.2227 14.3203 39.293 13.9219 39.4805 13.4297C39.668 12.9375 39.9141 12.4688 40.2188 12.0234C40.5234 11.5547 40.8633 11.1562 41.2383 10.8281C41.6133 10.5 41.9766 10.3359 42.3281 10.3359C42.9844 10.3359 43.4414 10.5469 43.6992 10.9688C43.9805 11.3906 44.1445 11.8242 44.1914 12.2695C44.2383 12.5742 44.2148 12.9609 44.1211 13.4297C44.0273 13.8984 43.8516 14.3203 43.5938 14.6953C43.6641 14.7422 43.7578 14.8008 43.875 14.8711C43.9922 14.918 44.1797 14.9414 44.4375 14.9414C44.8125 14.9414 45.0703 14.918 45.2109 14.8711C45.375 14.8242 45.6211 14.8008 45.9492 14.8008C46.3477 14.8008 46.6758 14.9062 46.9336 15.1172C47.1914 15.3047 47.4023 15.5508 47.5664 15.8555C47.7305 16.1367 47.8477 16.4531 47.918 16.8047C48.0117 17.1328 48.0703 17.4375 48.0938 17.7188C48.1641 18.3047 48.0117 18.9141 47.6367 19.5469C47.2617 20.1797 46.8047 20.8711 46.2656 21.6211C45.9375 22.0898 45.6094 22.6172 45.2812 23.2031C44.9531 23.7891 44.8125 24.3164 44.8594 24.7852C44.9062 25.0898 44.9883 25.3359 45.1055 25.5234C45.2227 25.7109 45.5508 25.8047 46.0898 25.8047C46.4883 25.8047 46.9219 25.6641 47.3906 25.3828C47.8828 25.0781 48.375 24.7031 48.8672 24.2578C49.3828 23.7891 49.8867 23.2852 50.3789 22.7461C50.8711 22.1836 51.3281 21.6445 51.75 21.1289C52.1719 20.5898 52.5234 20.1094 52.8047 19.6875C53.1094 19.2656 53.332 18.9609 53.4727 18.7734C53.5898 18.5859 53.7422 18.457 53.9297 18.3867C54.1172 18.3164 54.2812 18.3164 54.4219 18.3867C54.5625 18.457 54.6445 18.5977 54.668 18.8086C54.7148 19.0195 54.6328 19.3008 54.4219 19.6523C54.2812 19.8867 54.0352 20.2617 53.6836 20.7773C53.3555 21.293 52.9453 21.8672 52.4531 22.5C51.9844 23.1328 51.457 23.7891 50.8711 24.4688C50.2852 25.125 49.6641 25.7344 49.0078 26.2969C48.375 26.8359 47.7305 27.2812 47.0742 27.6328C46.4414 27.9844 45.832 28.1602 45.2461 28.1602C44.6367 28.1602 44.1328 28.043 43.7344 27.8086C43.3359 27.5742 43.0078 27.293 42.75 26.9648C42.5156 26.6133 42.3398 26.2383 42.2227 25.8398C42.1289 25.418 42.0938 25.0312 42.1172 24.6797C42.1406 24.3984 42.2109 24.1055 42.3281 23.8008C42.4688 23.4727 42.6211 23.1445 42.7852 22.8164C42.9727 22.4648 43.1602 22.125 43.3477 21.7969C43.5586 21.4453 43.7461 21.1055 43.9102 20.7773C44.3086 20.0977 44.625 19.5234 44.8594 19.0547C45.1172 18.5625 45.2461 18.1523 45.2461 17.8242C45.2461 17.6133 45.1992 17.4258 45.1055 17.2617C45.0117 17.0977 44.8594 17.0156 44.6484 17.0156C44.5078 17.0156 44.4023 17.0273 44.332 17.0508C44.2852 17.0508 44.2266 17.0508 44.1562 17.0508C44.1094 17.0508 44.0273 17.0625 43.9102 17.0859C43.8164 17.0859 43.6641 17.0859 43.4531 17.0859C43.1484 17.0859 42.8906 17.0391 42.6797 16.9453C42.4688 16.8516 42.2695 16.7812 42.082 16.7344C41.9883 16.8984 41.7773 17.25 41.4492 17.7891C41.1211 18.3281 40.7344 18.9609 40.2891 19.6875C39.8672 20.4141 39.4102 21.1758 38.918 21.9727C38.4492 22.7695 38.0039 23.5195 37.582 24.2227C37.1602 24.9023 36.8086 25.4883 36.5273 25.9805C36.2227 26.4492 36.0352 26.7305 35.9648 26.8242ZM59.4844 42.0117C59.3203 41.9414 59.1562 41.8359 58.9922 41.6953C58.8516 41.5781 58.7109 41.4258 58.5703 41.2383C58.4297 41.0742 58.3125 40.8633 58.2188 40.6055C58.875 38.0977 59.4375 35.918 59.9062 34.0664C60.3516 32.2148 60.7383 30.668 61.0664 29.4258C61.418 27.9727 61.7227 26.7539 61.9805 25.7695C62.2148 24.832 62.4492 23.8945 62.6836 22.957C62.8711 22.1367 63.0703 21.2578 63.2812 20.3203C63.5156 19.3828 63.7266 18.5039 63.9141 17.6836C64.1484 16.7695 64.2891 16.043 64.3359 15.5039C64.3828 14.9414 64.207 14.4609 63.8086 14.0625C64.0898 13.8281 64.3711 13.6523 64.6523 13.5352C64.957 13.3945 65.2266 13.3008 65.4609 13.2539C65.7188 13.1836 65.9766 13.1602 66.2344 13.1836C66.8672 13.2305 67.2539 13.4297 67.3945 13.7812C67.5586 14.1328 67.582 14.6953 67.4648 15.4688C67.4414 15.5859 67.418 15.6914 67.3945 15.7852C67.3945 15.8555 67.3945 15.9375 67.3945 16.0312C67.7227 15.6562 68.0859 15.293 68.4844 14.9414C68.8828 14.5898 69.2812 14.2734 69.6797 13.9922C70.1016 13.7109 70.5234 13.4883 70.9453 13.3242C71.3906 13.1367 71.8125 13.043 72.2109 13.043C72.75 13.043 73.1836 13.1836 73.5117 13.4648C73.8633 13.7227 74.1328 14.0742 74.3203 14.5195C74.5078 14.9648 74.625 15.4688 74.6719 16.0312C74.7188 16.5703 74.7305 17.1094 74.707 17.6484C74.6836 18.2344 74.5781 18.8555 74.3906 19.5117C74.2266 20.168 73.9922 20.8359 73.6875 21.5156C73.3828 22.1953 73.0312 22.8633 72.6328 23.5195C72.2344 24.1758 71.8125 24.7852 71.3672 25.3477C71.4609 25.3711 71.5195 25.3945 71.543 25.418C71.5664 25.418 71.5781 25.4297 71.5781 25.4531C71.5781 25.4531 71.5898 25.4648 71.6133 25.4883C71.6602 25.4883 71.7422 25.4883 71.8594 25.4883C72.3984 25.4883 72.9492 25.3477 73.5117 25.0664C74.0742 24.7852 74.625 24.4336 75.1641 24.0117C75.7031 23.5664 76.2188 23.0859 76.7109 22.5703C77.2266 22.0547 77.6836 21.5625 78.082 21.0938C78.5039 20.6016 78.8555 20.168 79.1367 19.793C79.418 19.3945 79.6289 19.1133 79.7695 18.9492C79.957 18.7148 80.1328 18.5625 80.2969 18.4922C80.4609 18.3984 80.5898 18.3867 80.6836 18.457C80.7773 18.5273 80.8242 18.668 80.8242 18.8789C80.8242 19.0664 80.7539 19.3125 80.6133 19.6172C80.5195 19.8281 80.3203 20.168 80.0156 20.6367C79.7109 21.1055 79.3359 21.6328 78.8906 22.2188C78.4453 22.8047 77.9297 23.4141 77.3438 24.0469C76.7812 24.6797 76.1836 25.2539 75.5508 25.7695C74.918 26.2852 74.2617 26.707 73.582 27.0352C72.9258 27.3867 72.2812 27.5625 71.6484 27.5625C71.3438 27.5625 71.0977 27.5508 70.9102 27.5273C70.7227 27.5039 70.5586 27.457 70.418 27.3867C70.3008 27.3398 70.1836 27.2812 70.0664 27.2109C69.9492 27.1641 69.8086 27.1055 69.6445 27.0352C69.2227 27.3633 68.7891 27.6094 68.3438 27.7734C67.8984 27.9609 67.4648 28.0547 67.043 28.0547C66.6445 28.0547 66.293 27.9844 65.9883 27.8438C65.707 27.7266 65.4727 27.5508 65.2852 27.3164C65.0977 27.1055 64.9453 26.8711 64.8281 26.6133C64.7109 26.332 64.6172 26.0625 64.5469 25.8047C64.5234 25.8984 64.5 25.9805 64.4766 26.0508C64.4766 26.1211 64.4648 26.2148 64.4414 26.332C64.1602 27.457 63.8672 28.7578 63.5625 30.2344C63.3047 31.5 62.9883 33.0352 62.6133 34.8398C62.2617 36.668 61.8867 38.7422 61.4883 41.0625C61.3477 41.6953 61.1016 42.0586 60.75 42.1523C60.375 42.2461 59.9531 42.1992 59.4844 42.0117ZM65.918 20.2148C65.8008 20.6133 65.6719 21.082 65.5312 21.6211C65.4141 22.1367 65.2734 22.7578 65.1094 23.4844C65.2969 23.3438 65.5078 23.2383 65.7422 23.168C65.9766 23.0977 66.2109 23.0625 66.4453 23.0625C66.7031 23.0625 67.0312 23.2031 67.4297 23.4844C67.8281 23.7422 68.3086 24.0234 68.8711 24.3281C69.2227 23.9062 69.5859 23.4375 69.9609 22.9219C70.3594 22.3828 70.7109 21.832 71.0156 21.2695C71.3438 20.707 71.6133 20.1328 71.8242 19.5469C72.0586 18.9609 72.1875 18.3984 72.2109 17.8594C72.2578 17.1562 72.1758 16.6055 71.9648 16.207C71.7539 15.8086 71.4023 15.6094 70.9102 15.6094C70.1836 15.6094 69.3867 16.043 68.5195 16.9102C67.6758 17.7539 66.8086 18.8555 65.918 20.2148ZM82.6172 27.5625C81.7266 27.5625 81 27.4219 80.4375 27.1406C79.875 26.8594 79.4297 26.5195 79.1016 26.1211C78.7969 25.6992 78.5742 25.2539 78.4336 24.7852C78.3164 24.293 78.2578 23.8477 78.2578 23.4492C78.2578 22.7461 78.3164 22.0078 78.4336 21.2344C78.5508 20.4375 78.6914 19.7109 78.8555 19.0547C79.0195 18.375 79.1602 17.8008 79.2773 17.332C79.418 16.8633 79.5117 16.5703 79.5586 16.4531C79.7695 15.7734 80.0391 15.1875 80.3672 14.6953C80.7188 14.1797 81.1992 13.8281 81.8086 13.6406C82.043 13.5938 82.2891 13.5469 82.5469 13.5C82.7578 13.4766 82.9688 13.4648 83.1797 13.4648C83.4141 13.4648 83.625 13.5 83.8125 13.5703C83.1797 15.1875 82.6758 16.5352 82.3008 17.6133C81.9492 18.6914 81.6797 19.5703 81.4922 20.25C81.2812 21.0234 81.1523 21.6445 81.1055 22.1133C80.9883 23.168 81.082 23.9648 81.3867 24.5039C81.6914 25.043 82.3125 25.3125 83.25 25.3125C83.8594 25.3125 84.4453 25.0898 85.0078 24.6445C85.5703 24.1758 86.0859 23.5781 86.5547 22.8516C86.4844 22.4766 86.4492 22.0898 86.4492 21.6914C86.4492 20.9414 86.5078 20.2148 86.625 19.5117C86.7656 18.7852 86.918 18.1172 87.082 17.5078C87.2695 16.875 87.457 16.3125 87.6445 15.8203C87.8555 15.3281 88.0312 14.9414 88.1719 14.6602C88.4297 14.0977 88.6641 13.7578 88.875 13.6406C89.0859 13.5 89.4258 13.418 89.8945 13.3945C90.082 13.3711 90.2344 13.3711 90.3516 13.3945C90.4922 13.3945 90.6094 13.4062 90.7031 13.4297C90.9844 13.5 91.125 13.6406 91.125 13.8516C91.125 14.2266 91.1016 14.7891 91.0547 15.5391C91.0078 16.2891 90.8672 17.0625 90.6328 17.8594C90.4688 18.5156 90.3047 19.0781 90.1406 19.5469C90 19.9922 89.8594 20.3789 89.7188 20.707C89.5781 21.0117 89.4375 21.2695 89.2969 21.4805C89.1562 21.668 89.0273 21.8438 88.9102 22.0078C88.957 22.7109 89.0156 23.2734 89.0859 23.6953C89.1562 24.1172 89.2383 24.4453 89.332 24.6797C89.4492 24.8906 89.5781 25.043 89.7188 25.1367C89.8828 25.207 90.0586 25.2422 90.2461 25.2422C90.5742 25.2422 90.9609 25.0898 91.4062 24.7852C91.8516 24.457 92.3086 24.0586 92.7773 23.5898C93.2695 23.0977 93.75 22.5703 94.2188 22.0078C94.7109 21.4219 95.1562 20.8711 95.5547 20.3555C95.9531 19.8398 96.293 19.3945 96.5742 19.0195C96.8555 18.6211 97.0312 18.375 97.1016 18.2812C97.2656 18.0703 97.418 17.9414 97.5586 17.8945C97.7227 17.8477 97.8516 17.8711 97.9453 17.9648C98.0391 18.0352 98.0859 18.1641 98.0859 18.3516C98.1094 18.5156 98.0625 18.7031 97.9453 18.9141C97.4766 19.8047 96.8906 20.7539 96.1875 21.7617C95.5078 22.7461 94.7695 23.6602 93.9727 24.5039C93.1992 25.3477 92.4141 26.0508 91.6172 26.6133C90.8203 27.1758 90.0703 27.457 89.3672 27.457C88.7344 27.457 88.2305 27.2461 87.8555 26.8242C87.5039 26.3789 87.1992 25.7461 86.9414 24.9258C86.4023 25.7695 85.7695 26.4258 85.043 26.8945C84.3164 27.3398 83.5078 27.5625 82.6172 27.5625ZM93.7969 26.8242C93.6328 27.082 93.457 27.2461 93.2695 27.3164C93.0586 27.4102 92.8828 27.4219 92.7422 27.3516C92.5781 27.3047 92.4727 27.1875 92.4258 27C92.3789 26.8125 92.4258 26.5781 92.5664 26.2969C92.6367 26.1562 92.8008 25.8398 93.0586 25.3477C93.293 24.8555 93.5859 24.2695 93.9375 23.5898C94.2656 22.8867 94.6289 22.1367 95.0273 21.3398C95.4258 20.5195 95.8008 19.7461 96.1523 19.0195C96.5273 18.293 96.8672 17.6484 97.1719 17.0859C97.4766 16.5 97.6992 16.0781 97.8398 15.8203C97.582 15.5859 97.4062 15.4219 97.3125 15.3281C97.2188 15.2109 97.1484 14.9766 97.1016 14.625C97.0547 14.3203 97.125 13.9219 97.3125 13.4297C97.5 12.9375 97.7461 12.4688 98.0508 12.0234C98.3555 11.5547 98.6953 11.1562 99.0703 10.8281C99.4453 10.5 99.8086 10.3359 100.16 10.3359C100.816 10.3359 101.273 10.5469 101.531 10.9688C101.812 11.3906 101.977 11.8242 102.023 12.2695C102.07 12.5742 102.047 12.9609 101.953 13.4297C101.859 13.8984 101.684 14.3203 101.426 14.6953C101.496 14.7422 101.59 14.8008 101.707 14.8711C101.824 14.918 102.012 14.9414 102.27 14.9414C102.645 14.9414 102.902 14.918 103.043 14.8711C103.207 14.8242 103.453 14.8008 103.781 14.8008C104.18 14.8008 104.508 14.9062 104.766 15.1172C105.023 15.3047 105.234 15.5508 105.398 15.8555C105.562 16.1367 105.68 16.4531 105.75 16.8047C105.844 17.1328 105.902 17.4375 105.926 17.7188C105.996 18.3047 105.844 18.9141 105.469 19.5469C105.094 20.1797 104.637 20.8711 104.098 21.6211C103.77 22.0898 103.441 22.6172 103.113 23.2031C102.785 23.7891 102.645 24.3164 102.691 24.7852C102.738 25.0898 102.82 25.3359 102.938 25.5234C103.055 25.7109 103.383 25.8047 103.922 25.8047C104.32 25.8047 104.754 25.6641 105.223 25.3828C105.715 25.0781 106.207 24.7031 106.699 24.2578C107.215 23.7891 107.719 23.2852 108.211 22.7461C108.703 22.1836 109.16 21.6445 109.582 21.1289C110.004 20.5898 110.355 20.1094 110.637 19.6875C110.941 19.2656 111.164 18.9609 111.305 18.7734C111.422 18.5859 111.574 18.457 111.762 18.3867C111.949 18.3164 112.113 18.3164 112.254 18.3867C112.395 18.457 112.477 18.5977 112.5 18.8086C112.547 19.0195 112.465 19.3008 112.254 19.6523C112.113 19.8867 111.867 20.2617 111.516 20.7773C111.188 21.293 110.777 21.8672 110.285 22.5C109.816 23.1328 109.289 23.7891 108.703 24.4688C108.117 25.125 107.496 25.7344 106.84 26.2969C106.207 26.8359 105.562 27.2812 104.906 27.6328C104.273 27.9844 103.664 28.1602 103.078 28.1602C102.469 28.1602 101.965 28.043 101.566 27.8086C101.168 27.5742 100.84 27.293 100.582 26.9648C100.348 26.6133 100.172 26.2383 100.055 25.8398C99.9609 25.418 99.9258 25.0312 99.9492 24.6797C99.9727 24.3984 100.043 24.1055 100.16 23.8008C100.301 23.4727 100.453 23.1445 100.617 22.8164C100.805 22.4648 100.992 22.125 101.18 21.7969C101.391 21.4453 101.578 21.1055 101.742 20.7773C102.141 20.0977 102.457 19.5234 102.691 19.0547C102.949 18.5625 103.078 18.1523 103.078 17.8242C103.078 17.6133 103.031 17.4258 102.938 17.2617C102.844 17.0977 102.691 17.0156 102.48 17.0156C102.34 17.0156 102.234 17.0273 102.164 17.0508C102.117 17.0508 102.059 17.0508 101.988 17.0508C101.941 17.0508 101.859 17.0625 101.742 17.0859C101.648 17.0859 101.496 17.0859 101.285 17.0859C100.98 17.0859 100.723 17.0391 100.512 16.9453C100.301 16.8516 100.102 16.7812 99.9141 16.7344C99.8203 16.8984 99.6094 17.25 99.2812 17.7891C98.9531 18.3281 98.5664 18.9609 98.1211 19.6875C97.6992 20.4141 97.2422 21.1758 96.75 21.9727C96.2812 22.7695 95.8359 23.5195 95.4141 24.2227C94.9922 24.9023 94.6406 25.4883 94.3594 25.9805C94.0547 26.4492 93.8672 26.7305 93.7969 26.8242ZM107.227 42.0117C107.062 41.9414 106.898 41.8359 106.734 41.6953C106.594 41.5781 106.453 41.4258 106.312 41.2383C106.172 41.0742 106.055 40.8633 105.961 40.6055C106.617 38.0977 107.18 35.918 107.648 34.0664C108.094 32.2148 108.48 30.668 108.809 29.4258C109.16 27.9727 109.465 26.7539 109.723 25.7695C109.957 24.832 110.191 23.8945 110.426 22.957C110.613 22.1367 110.812 21.2578 111.023 20.3203C111.258 19.3828 111.469 18.5039 111.656 17.6836C111.891 16.7695 112.031 16.043 112.078 15.5039C112.125 14.9414 111.949 14.4609 111.551 14.0625C111.832 13.8281 112.113 13.6523 112.395 13.5352C112.699 13.3945 112.969 13.3008 113.203 13.2539C113.461 13.1836 113.719 13.1602 113.977 13.1836C114.609 13.2305 114.996 13.4297 115.137 13.7812C115.301 14.1328 115.324 14.6953 115.207 15.4688C115.184 15.5859 115.16 15.6914 115.137 15.7852C115.137 15.8555 115.137 15.9375 115.137 16.0312C115.465 15.6562 115.828 15.293 116.227 14.9414C116.625 14.5898 117.023 14.2734 117.422 13.9922C117.844 13.7109 118.266 13.4883 118.688 13.3242C119.133 13.1367 119.555 13.043 119.953 13.043C120.492 13.043 120.926 13.1836 121.254 13.4648C121.605 13.7227 121.875 14.0742 122.062 14.5195C122.25 14.9648 122.367 15.4688 122.414 16.0312C122.461 16.5703 122.473 17.1094 122.449 17.6484C122.426 18.2344 122.32 18.8555 122.133 19.5117C121.969 20.168 121.734 20.8359 121.43 21.5156C121.125 22.1953 120.773 22.8633 120.375 23.5195C119.977 24.1758 119.555 24.7852 119.109 25.3477C119.203 25.3711 119.262 25.3945 119.285 25.418C119.309 25.418 119.32 25.4297 119.32 25.4531C119.32 25.4531 119.332 25.4648 119.355 25.4883C119.402 25.4883 119.484 25.4883 119.602 25.4883C120.141 25.4883 120.691 25.3477 121.254 25.0664C121.816 24.7852 122.367 24.4336 122.906 24.0117C123.445 23.5664 123.961 23.0859 124.453 22.5703C124.969 22.0547 125.426 21.5625 125.824 21.0938C126.246 20.6016 126.598 20.168 126.879 19.793C127.16 19.3945 127.371 19.1133 127.512 18.9492C127.699 18.7148 127.875 18.5625 128.039 18.4922C128.203 18.3984 128.332 18.3867 128.426 18.457C128.52 18.5273 128.566 18.668 128.566 18.8789C128.566 19.0664 128.496 19.3125 128.355 19.6172C128.262 19.8281 128.062 20.168 127.758 20.6367C127.453 21.1055 127.078 21.6328 126.633 22.2188C126.188 22.8047 125.672 23.4141 125.086 24.0469C124.523 24.6797 123.926 25.2539 123.293 25.7695C122.66 26.2852 122.004 26.707 121.324 27.0352C120.668 27.3867 120.023 27.5625 119.391 27.5625C119.086 27.5625 118.84 27.5508 118.652 27.5273C118.465 27.5039 118.301 27.457 118.16 27.3867C118.043 27.3398 117.926 27.2812 117.809 27.2109C117.691 27.1641 117.551 27.1055 117.387 27.0352C116.965 27.3633 116.531 27.6094 116.086 27.7734C115.641 27.9609 115.207 28.0547 114.785 28.0547C114.387 28.0547 114.035 27.9844 113.73 27.8438C113.449 27.7266 113.215 27.5508 113.027 27.3164C112.84 27.1055 112.688 26.8711 112.57 26.6133C112.453 26.332 112.359 26.0625 112.289 25.8047C112.266 25.8984 112.242 25.9805 112.219 26.0508C112.219 26.1211 112.207 26.2148 112.184 26.332C111.902 27.457 111.609 28.7578 111.305 30.2344C111.047 31.5 110.73 33.0352 110.355 34.8398C110.004 36.668 109.629 38.7422 109.23 41.0625C109.09 41.6953 108.844 42.0586 108.492 42.1523C108.117 42.2461 107.695 42.1992 107.227 42.0117ZM113.66 20.2148C113.543 20.6133 113.414 21.082 113.273 21.6211C113.156 22.1367 113.016 22.7578 112.852 23.4844C113.039 23.3438 113.25 23.2383 113.484 23.168C113.719 23.0977 113.953 23.0625 114.188 23.0625C114.445 23.0625 114.773 23.2031 115.172 23.4844C115.57 23.7422 116.051 24.0234 116.613 24.3281C116.965 23.9062 117.328 23.4375 117.703 22.9219C118.102 22.3828 118.453 21.832 118.758 21.2695C119.086 20.707 119.355 20.1328 119.566 19.5469C119.801 18.9609 119.93 18.3984 119.953 17.8594C120 17.1562 119.918 16.6055 119.707 16.207C119.496 15.8086 119.145 15.6094 118.652 15.6094C117.926 15.6094 117.129 16.043 116.262 16.9102C115.418 17.7539 114.551 18.8555 113.66 20.2148ZM136.406 21.4102C136.172 22.3008 135.855 23.1328 135.457 23.9062C135.059 24.6797 134.578 25.3477 134.016 25.9102C133.477 26.4727 132.855 26.9062 132.152 27.2109C131.473 27.5391 130.723 27.7031 129.902 27.7031C128.941 27.7031 128.18 27.4922 127.617 27.0703C127.078 26.6719 126.668 26.168 126.387 25.5586C126.129 24.9492 125.977 24.2812 125.93 23.5547C125.859 22.8281 125.824 22.1484 125.824 21.5156C125.824 21.0703 125.883 20.5781 126 20.0391C126.094 19.5 126.234 18.9492 126.422 18.3867C126.609 17.8242 126.844 17.2617 127.125 16.6992C127.43 16.1367 127.781 15.6211 128.18 15.1523C128.32 14.7539 128.531 14.4023 128.812 14.0977C129.117 13.793 129.457 13.5469 129.832 13.3594C130.23 13.1484 130.652 12.9961 131.098 12.9023C131.543 12.7852 131.977 12.7266 132.398 12.7266C132.469 12.7266 132.527 12.7383 132.574 12.7617C132.645 12.7852 132.715 12.8086 132.785 12.832C133.09 12.8555 133.465 12.9727 133.91 13.1836C134.379 13.3945 134.824 13.7109 135.246 14.1328C135.691 14.5547 136.066 15.0938 136.371 15.75C136.676 16.3828 136.828 17.1562 136.828 18.0703C136.828 18.2578 136.816 18.4922 136.793 18.7734C136.77 19.0312 136.746 19.2539 136.723 19.4414C137.262 19.2305 137.824 18.9727 138.41 18.668C138.996 18.3633 139.559 18.0469 140.098 17.7188C140.66 17.3672 141.176 17.0156 141.645 16.6641C142.113 16.3125 142.488 15.9961 142.77 15.7148C143.004 15.5039 143.203 15.3867 143.367 15.3633C143.531 15.3398 143.648 15.3867 143.719 15.5039C143.789 15.6211 143.801 15.7852 143.754 15.9961C143.707 16.207 143.578 16.4414 143.367 16.6992C143.25 16.8398 142.945 17.1211 142.453 17.543C141.984 17.9648 141.422 18.4219 140.766 18.9141C140.109 19.4062 139.395 19.8867 138.621 20.3555C137.848 20.8242 137.109 21.1758 136.406 21.4102ZM130.465 16.0664C130.395 16.2773 130.359 16.5 130.359 16.7344C130.359 17.1094 130.383 17.5078 130.43 17.9297C130.477 18.3281 130.594 18.6914 130.781 19.0195C130.969 19.3477 131.262 19.6289 131.66 19.8633C132.082 20.0742 132.656 20.1797 133.383 20.1797C133.5 20.1797 133.617 20.1797 133.734 20.1797C133.852 20.1562 133.969 20.1328 134.086 20.1094C134.156 19.8047 134.215 19.5352 134.262 19.3008C134.332 19.043 134.367 18.8203 134.367 18.6328C134.414 18.1875 134.414 17.7305 134.367 17.2617C134.32 16.793 134.227 16.3711 134.086 15.9961C133.969 15.5977 133.805 15.2812 133.594 15.0469C133.406 14.7891 133.172 14.6602 132.891 14.6602C132.445 14.6602 132.012 14.7891 131.59 15.0469C131.191 15.2812 130.816 15.6211 130.465 16.0664ZM128.215 22.2539C128.215 22.6758 128.238 23.0977 128.285 23.5195C128.332 23.918 128.426 24.2812 128.566 24.6094C128.707 24.9141 128.895 25.1719 129.129 25.3828C129.363 25.5703 129.668 25.6641 130.043 25.6641C130.465 25.6641 130.852 25.5703 131.203 25.3828C131.555 25.1719 131.871 24.9141 132.152 24.6094C132.434 24.2812 132.68 23.918 132.891 23.5195C133.125 23.0977 133.324 22.6641 133.488 22.2188C133.324 22.2422 133.16 22.2656 132.996 22.2891C132.855 22.2891 132.691 22.2891 132.504 22.2891C131.613 22.2891 130.84 22.0312 130.184 21.5156C129.551 20.9766 129.059 20.2969 128.707 19.4766C128.566 19.9688 128.449 20.4492 128.355 20.918C128.262 21.3867 128.215 21.832 128.215 22.2539ZM145.125 25.8047C145.266 25.8984 145.441 25.9453 145.652 25.9453C145.887 25.9453 146.109 25.8984 146.32 25.8047C146.555 25.7109 146.766 25.582 146.953 25.418C147.164 25.2539 147.316 25.043 147.41 24.7852C147.504 24.5273 147.504 24.1641 147.41 23.6953C147.316 23.2031 147.164 22.6875 146.953 22.1484C146.766 21.5859 146.555 21.0234 146.32 20.4609C146.086 19.8984 145.887 19.3828 145.723 18.9141C145.582 18.5625 145.465 18.2344 145.371 17.9297C145.277 17.6719 145.184 17.4258 145.09 17.1914C145.02 16.9336 144.961 16.7578 144.914 16.6641C144.797 16.8516 144.586 17.1562 144.281 17.5781C144 18 143.684 18.4453 143.332 18.9141C143.004 19.3594 142.688 19.7812 142.383 20.1797C142.078 20.5547 141.867 20.8125 141.75 20.9531C141.562 21.1641 141.375 21.293 141.188 21.3398C141.023 21.3633 140.883 21.3281 140.766 21.2344C140.648 21.1172 140.578 20.9648 140.555 20.7773C140.555 20.5664 140.648 20.3203 140.836 20.0391C140.977 19.8516 141.188 19.5586 141.469 19.1602C141.75 18.7383 142.031 18.3164 142.312 17.8945C142.594 17.4492 142.852 17.0625 143.086 16.7344C143.32 16.3828 143.449 16.1719 143.473 16.1016C143.52 15.9141 143.449 15.668 143.262 15.3633C143.098 15.0586 143.074 14.707 143.191 14.3086C143.285 13.9805 143.496 13.6055 143.824 13.1836C144.152 12.7383 144.539 12.3398 144.984 11.9883C145.43 11.6367 145.887 11.3789 146.355 11.2148C146.824 11.0273 147.246 11.0273 147.621 11.2148C147.926 11.4023 148.172 11.6133 148.359 11.8477C148.547 12.0586 148.617 12.2812 148.57 12.5156C148.523 12.6328 148.453 12.7852 148.359 12.9727C148.266 13.1602 148.125 13.3945 147.938 13.6758C147.75 13.9336 147.48 14.2734 147.129 14.6953C147.199 15.2344 147.293 15.7266 147.41 16.1719C147.551 16.6172 147.68 17.0039 147.797 17.332C147.938 17.7305 148.09 18.0938 148.254 18.4219C148.465 18.8438 148.688 19.2773 148.922 19.7227C149.156 20.168 149.367 20.6133 149.555 21.0586C149.742 21.4805 149.895 21.8789 150.012 22.2539C150.129 22.6289 150.164 22.9453 150.117 23.2031C150.047 23.6016 149.836 24.082 149.484 24.6445C149.156 25.207 148.734 25.7578 148.219 26.2969C147.727 26.8125 147.152 27.2578 146.496 27.6328C145.863 28.0078 145.195 28.1953 144.492 28.1953C144 28.1953 143.52 28.043 143.051 27.7383C142.605 27.4336 142.219 27.082 141.891 26.6836C141.586 26.2617 141.352 25.8516 141.188 25.4531C141.047 25.0547 141.035 24.75 141.152 24.5391C141.293 24.2578 141.422 24.0352 141.539 23.8711C141.656 23.707 141.832 23.5195 142.066 23.3086C142.16 23.2383 142.277 23.1562 142.418 23.0625C142.535 22.9922 142.699 22.9219 142.91 22.8516C143.121 22.7812 143.367 22.6992 143.648 22.6055C143.883 23.332 144.094 23.9062 144.281 24.3281C144.469 24.7266 144.621 25.043 144.738 25.2773C144.879 25.5352 145.008 25.7109 145.125 25.8047ZM168.75 19.6875C168.047 20.7188 167.25 21.7266 166.359 22.7109C165.469 23.6719 164.52 24.5391 163.512 25.3125C162.527 26.0625 161.508 26.6719 160.453 27.1406C159.422 27.6094 158.414 27.8438 157.43 27.8438C156.914 27.8438 156.352 27.7148 155.742 27.457C155.156 27.2227 154.617 26.8477 154.125 26.332C153.633 25.8164 153.234 25.1484 152.93 24.3281C152.648 23.5078 152.566 22.5117 152.684 21.3398C152.777 20.3789 153.07 19.3711 153.562 18.3164C154.078 17.2383 154.699 16.2539 155.426 15.3633C156.176 14.4727 157.008 13.7344 157.922 13.1484C158.859 12.5625 159.797 12.2695 160.734 12.2695C161.625 12.2695 162.27 12.4922 162.668 12.9375C163.066 13.3828 163.242 13.9336 163.195 14.5898C163.125 15.3164 162.914 15.9844 162.562 16.5938C162.234 17.2031 161.836 17.7539 161.367 18.2461C160.898 18.7383 160.395 19.1836 159.855 19.582C159.34 19.9805 158.848 20.3438 158.379 20.6719C157.863 21.0234 157.371 21.3633 156.902 21.6914C156.434 21.9961 156.023 22.2773 155.672 22.5352C155.695 23.1211 155.801 23.6133 155.988 24.0117C156.176 24.4102 156.41 24.7383 156.691 24.9961C156.973 25.2305 157.289 25.4062 157.641 25.5234C158.016 25.6172 158.391 25.6641 158.766 25.6641C159.562 25.6641 160.395 25.418 161.262 24.9258C162.129 24.4102 162.973 23.8008 163.793 23.0977C164.637 22.3711 165.41 21.6211 166.113 20.8477C166.84 20.0742 167.438 19.4062 167.906 18.8438C168.07 18.6562 168.234 18.5508 168.398 18.5273C168.586 18.4805 168.727 18.5039 168.82 18.5977C168.938 18.668 168.996 18.8086 168.996 19.0195C168.996 19.207 168.914 19.4297 168.75 19.6875ZM159.75 14.2734C159.469 14.2734 159.129 14.4141 158.73 14.6953C158.355 14.9766 157.98 15.3867 157.605 15.9258C157.23 16.4414 156.879 17.0859 156.551 17.8594C156.223 18.6094 155.977 19.4766 155.812 20.4609C156.094 20.25 156.398 20.0391 156.727 19.8281C157.055 19.5938 157.383 19.3477 157.711 19.0898C158.719 18.3164 159.422 17.6367 159.82 17.0508C160.219 16.4648 160.441 15.9609 160.488 15.5391C160.535 15.0938 160.488 14.7773 160.348 14.5898C160.207 14.3789 160.008 14.2734 159.75 14.2734Z" fill="#010F1C"/>
</svg>
