<svg width="105" height="26" viewBox="0 0 105 26" fill="none" xmlns="http://www.w3.org/2000/svg">
<path fill-rule="evenodd" clip-rule="evenodd" d="M50.953 12.563C50.953 14.8455 50.2037 16.7587 48.6946 18.3133C47.4476 19.5977 45.9813 20.3603 44.2955 20.5771V22.7445H45.2588V24.8771C47.8142 24.4891 50.0405 23.3332 51.9457 21.4146C54.3432 19.0064 55.5393 16.063 55.5393 12.5844C55.5393 11.5836 55.435 10.6257 55.2396 9.70788C55.1968 9.49382 55.1406 9.28243 55.0871 9.07371C55.5367 8.92654 55.8578 8.50376 55.8578 8.00606C55.8578 7.73313 55.7588 7.48695 55.6009 7.29429L58.6379 2.81228C58.7209 2.82834 58.5282 2.83904 58.8788 2.83904C59.2293 2.83904 59.9999 2.33599 59.9999 1.71787C59.9999 1.09976 59.4969 0.596703 58.8788 0.596703C58.2606 0.596703 57.7629 1.28707 57.7629 1.71787C57.7629 2.15136 57.8405 2.18882 57.9717 2.37345L54.9078 6.89827L54.7393 6.88221C54.5814 6.88221 54.4315 6.91432 54.2951 6.97587C54.1319 7.04811 53.982 7.16317 53.875 7.29964L48.6732 5.69682C48.6063 5.13758 48.1327 4.71212 47.5627 4.71212C47.1587 4.71212 46.8028 4.92619 46.6048 5.24728C46.5004 5.41586 46.4415 5.61387 46.4415 5.83329C46.4415 6.08482 46.5298 6.31494 46.6717 6.50492L43.3617 11.4445C43.2948 11.4338 43.2305 11.4284 43.1637 11.4284C42.5455 11.4284 42.0425 11.9261 42.0425 12.5443C42.0425 13.1624 42.5455 13.6654 43.1637 13.6654C43.7818 13.6654 44.2795 13.1624 44.2795 12.5443C44.2795 12.2874 44.1912 12.0519 44.044 11.8592L47.3353 6.9277C47.4075 6.94376 47.4771 6.94911 47.5547 6.94911C47.8999 6.94911 48.2103 6.79123 48.4136 6.54506C48.5019 6.63336 48.5875 6.71899 48.6758 6.80729C48.8498 6.9946 49.021 7.17923 49.1789 7.37724C50.3616 8.83021 50.953 10.5641 50.953 12.563Z" fill="#42F4FF"/>
<path fill-rule="evenodd" clip-rule="evenodd" d="M43.1398 4.44722C44.162 4.44722 45.12 4.62115 46.0003 4.97168C46.3 4.42581 46.8806 4.0512 47.555 4.0512C48.2935 4.0512 48.9384 4.51144 49.2006 5.17237L53.6986 6.55577C53.7923 6.4969 53.886 6.44071 53.9823 6.39254C53.4284 5.41854 52.7354 4.50609 51.8925 3.65785C49.4708 1.22553 46.5703 0 43.2067 0C40.9805 0 38.9013 0.559247 36.9694 1.67507C35.0428 2.79624 33.5283 4.31343 32.4285 6.22129C31.69 7.50569 31.1976 8.87571 30.9515 10.3233C28.4522 10.3233 25.9075 10.2966 23.3735 10.2966V14.6742C25.9289 14.6742 28.4068 14.7063 30.9515 14.7063C31.3609 17.1895 32.4847 19.3944 34.3284 21.3156C36.1881 23.269 38.4304 24.4517 41.0527 24.8611V24.845C41.7538 24.9654 42.4762 25.0323 43.2094 25.0323C43.6349 25.0323 44.063 25.0109 44.4724 24.9735V23.5339H43.5091V20.5717C43.3887 20.5771 43.2629 20.5824 43.1425 20.5824C40.943 20.5824 39.094 19.8118 37.6009 18.2786C36.1399 16.7801 35.3907 14.891 35.3586 12.5951C35.3586 10.2324 36.1024 8.28435 37.6009 6.7511C39.0913 5.22053 40.9403 4.44722 43.1398 4.44722Z" fill="white"/>
<path fill-rule="evenodd" clip-rule="evenodd" d="M17.0479 0.596703H30.0577V5.04392H21.562C21.562 10.0236 21.562 15.0007 21.562 19.9804H30.0577V24.4276H17.0479V0.596703Z" fill="white"/>
<path fill-rule="evenodd" clip-rule="evenodd" d="M14.5752 3.83981L11.209 6.8073C10.0317 5.17237 8.83022 4.35089 7.61004 4.35089C7.00798 4.35089 6.52098 4.50876 6.14904 4.82719C5.7664 5.14561 5.57909 5.50685 5.57909 5.90554C5.57909 6.30424 5.71021 6.68688 5.97779 7.03742C6.34973 7.51371 7.4602 8.53053 9.31454 10.0959C11.0512 11.5435 12.1028 12.4586 12.4693 12.8359C13.3898 13.7671 14.0454 14.6528 14.428 15.4957C14.8107 16.3493 15.0087 17.2751 15.0087 18.2759C15.0087 20.2346 14.329 21.8428 12.9724 23.1245C11.6265 24.3928 9.86041 25.035 7.68229 25.035C5.98047 25.035 4.50341 24.6203 3.24577 23.7881C1.98011 22.9452 0.896401 21.6447 0 19.86L3.82375 17.5561C4.97168 19.662 6.29621 20.7136 7.78932 20.7136C8.57066 20.7136 9.22892 20.4834 9.75873 20.0285C10.2885 19.579 10.5588 19.0492 10.5588 18.4578C10.5588 17.9227 10.3554 17.3795 9.95139 16.839C9.55804 16.3038 8.67235 15.4716 7.30232 14.3611C4.7041 12.2499 3.02368 10.6123 2.2691 9.46439C1.50916 8.31646 1.13187 7.17121 1.13187 6.02328C1.13187 4.3723 1.76069 2.95411 3.01298 1.77675C4.27864 0.591357 5.8333 0 7.68229 0C8.87036 0 10.0022 0.278286 11.0806 0.82683C12.1563 1.37805 13.3176 2.37881 14.5752 3.83981Z" fill="white"/>
<path d="M83.8083 24.503H79.2406V8.14876C79.2406 7.82934 79.1767 7.53122 79.0489 7.25439C78.9318 6.97756 78.7668 6.738 78.5538 6.5357C78.3515 6.32275 78.112 6.15772 77.8351 6.0406C77.5583 5.92348 77.2602 5.86492 76.9408 5.86492C76.6213 5.86492 76.3232 5.92348 76.0464 6.0406C75.7695 6.15772 75.5247 6.32275 75.3117 6.5357C75.1094 6.738 74.9497 6.97756 74.8326 7.25439C74.7155 7.53122 74.6569 7.82934 74.6569 8.14876V24.503H70.0732V8.14876C70.0732 7.82934 70.0147 7.53122 69.8976 7.25439C69.7804 6.97756 69.6154 6.738 69.4025 6.5357C69.2002 6.32275 68.9606 6.15772 68.6838 6.0406C68.4069 5.92348 68.1088 5.86492 67.7894 5.86492C67.47 5.86492 67.1718 5.92348 66.895 6.0406C66.6182 6.15772 66.3733 6.32275 66.1604 6.5357C65.9581 6.738 65.7983 6.97756 65.6812 7.25439C65.5641 7.53122 65.5055 7.82934 65.5055 8.14876V24.503H60.9219V8.14876C60.9219 7.20115 61.0976 6.3121 61.4489 5.48161C61.8109 4.64048 62.3007 3.91114 62.9182 3.29359C63.5464 2.6654 64.2758 2.17562 65.1063 1.82426C65.9474 1.46225 66.8418 1.28125 67.7894 1.28125C68.6412 1.28125 69.461 1.43564 70.2489 1.74441C71.0368 2.04253 71.7449 2.47907 72.3731 3.05403C73.0012 2.47907 73.704 2.04253 74.4812 1.74441C75.2691 1.43564 76.089 1.28125 76.9408 1.28125C77.8884 1.28125 78.7774 1.46225 79.6079 1.82426C80.449 2.17562 81.1784 2.6654 81.7959 3.29359C82.4241 3.91114 82.9139 4.64048 83.2653 5.48161C83.6273 6.3121 83.8083 7.20115 83.8083 8.14876V24.503Z" fill="white"/>
<path d="M98.0544 24.503H93.4867V17.3321C92.4752 17.0765 91.5435 16.6666 90.6917 16.1023C89.8506 15.538 89.1266 14.8672 88.5197 14.09C87.9128 13.3021 87.439 12.4343 87.0983 11.4867C86.7682 10.5284 86.6032 9.52227 86.6032 8.46818V1.60067H91.1868V8.46818C91.1868 9.09637 91.304 9.69262 91.5382 10.2569C91.7831 10.8106 92.1132 11.295 92.5284 11.7103C92.9437 12.1255 93.4281 12.4556 93.9818 12.7005C94.5461 12.9347 95.1423 13.0518 95.7705 13.0518C96.3987 13.0518 96.9896 12.9347 97.5433 12.7005C98.1076 12.4556 98.5974 12.1255 99.0126 11.7103C99.4279 11.295 99.7526 10.8106 99.9868 10.2569C100.232 9.69262 100.354 9.09637 100.354 8.46818V1.60067H104.922V8.46818C104.922 9.52227 104.752 10.5284 104.411 11.4867C104.081 12.4343 103.612 13.3021 103.005 14.09C102.398 14.8672 101.674 15.538 100.833 16.1023C99.9922 16.6666 99.0659 17.0765 98.0544 17.3321V24.503Z" fill="white"/>
</svg>
