<svg width="20" height="20" viewBox="0 0 20 20" fill="none" xmlns="http://www.w3.org/2000/svg">
<path d="M10.0294 19C15 19 19.0294 14.9706 19.0294 10C19.0294 5.02944 15 1 10.0294 1C5.05886 1 1.02942 5.02944 1.02942 10C1.02942 14.9706 5.05886 19 10.0294 19Z" stroke="#8A8A8D" stroke-width="1.5" stroke-linecap="round" stroke-linejoin="round"/>
<path d="M6.42956 1.8999H7.32956C5.57456 7.1559 5.57456 12.8439 7.32956 18.0999H6.42956" stroke="#8A8A8D" stroke-width="1.5" stroke-linecap="round" stroke-linejoin="round"/>
<path d="M12.7295 1.8999C14.4845 7.1559 14.4845 12.8439 12.7295 18.0999" stroke="#8A8A8D" stroke-width="1.5" stroke-linecap="round" stroke-linejoin="round"/>
<path d="M1.92963 13.6002V12.7002C7.18563 14.4552 12.8736 14.4552 18.1296 12.7002V13.6002" stroke="#8A8A8D" stroke-width="1.5" stroke-linecap="round" stroke-linejoin="round"/>
<path d="M1.92963 7.30014C7.18563 5.54514 12.8736 5.54514 18.1296 7.30014" stroke="#8A8A8D" stroke-width="1.5" stroke-linecap="round" stroke-linejoin="round"/>
</svg>
