<svg width="22" height="34" viewBox="0 0 22 34" fill="none" xmlns="http://www.w3.org/2000/svg">
<path opacity="0.34" d="M14.907 10.9694L13.6686 10.7921V4.62997H14.9847V9.29469L18.8978 5.12311V0.751162H3.10224V5.12311L7.01469 9.29469V4.62997H8.33079V10.7921L7.09267 10.9694L1.78613 5.31146V0H20.2139V5.31146L14.907 10.9694Z" fill="#FC8A59"/>
<path d="M11 33.8653C4.9344 33.8653 0 29.0243 0 23.0739C0 17.1234 4.9344 12.2825 11 12.2825C17.0656 12.2825 22 17.1234 22 23.0739C22 29.0243 17.0656 33.8653 11 33.8653ZM11 13.5982C5.66024 13.5982 1.3161 17.8489 1.3161 23.0739C1.3161 28.2985 5.66024 32.5492 11 32.5492C16.3398 32.5492 20.6839 28.2985 20.6839 23.0739C20.6839 17.8489 16.3398 13.5982 11 13.5982Z" fill="#FC8A59"/>
<path d="M6.45303 29.7361L8.19029 24.4983L3.62012 21.2452H9.26884L11.0002 16.0249L12.7312 21.2452H18.3802L13.8101 24.4983L15.546 29.7361L11.0002 26.4981L6.45303 29.7361ZM11.0002 24.8826L13.0299 26.3284L12.2551 23.9903L14.2618 22.5617H11.781L11.0002 20.2068L10.2194 22.5617H7.73887L9.74592 23.9903L8.97041 26.3284L11.0002 24.8826Z" fill="#FC8A59"/>
<path d="M11.7956 5.27588H10.4795V10.743H11.7956V5.27588Z" fill="#FC8A59"/>
</svg>
