<svg width="24" height="24" viewBox="0 0 24 24" fill="none" xmlns="http://www.w3.org/2000/svg">
<path opacity="0.34" d="M18.6287 6.6753C18.5626 6.6643 18.4854 6.6643 18.4193 6.6753C16.8986 6.6203 15.6865 5.37746 15.6865 3.83765C15.6865 2.26484 16.9537 1 18.5295 1C20.1053 1 21.3725 2.27584 21.3725 3.83765C21.3614 5.37746 20.1493 6.6203 18.6287 6.6753Z" stroke="#FF81DC" stroke-width="1.5" stroke-linecap="round" stroke-linejoin="round"/>
<path opacity="0.34" d="M17.493 14.6823C19.0027 14.9352 20.6666 14.6713 21.8346 13.8904C23.3883 12.8565 23.3883 11.1627 21.8346 10.1288C20.6556 9.34795 18.9696 9.08397 17.46 9.34794" stroke="#FF81DC" stroke-width="1.5" stroke-linecap="round" stroke-linejoin="round"/>
<path opacity="0.34" d="M5.37173 6.6753C5.43785 6.6643 5.51498 6.6643 5.5811 6.6753C7.10176 6.6203 8.31388 5.37746 8.31388 3.83765C8.31388 2.26484 7.04666 1 5.47091 1C3.89515 1 2.62793 2.27584 2.62793 3.83765C2.63895 5.37746 3.85107 6.6203 5.37173 6.6753Z" stroke="#FF81DC" stroke-width="1.5" stroke-linecap="round" stroke-linejoin="round"/>
<path opacity="0.34" d="M6.50688 14.6823C4.99724 14.9352 3.33333 14.6713 2.16529 13.8904C0.61157 12.8565 0.61157 11.1627 2.16529 10.1288C3.34435 9.34795 5.0303 9.08397 6.53994 9.34794" stroke="#FF81DC" stroke-width="1.5" stroke-linecap="round" stroke-linejoin="round"/>
<path d="M12.0203 14.8911C11.9542 14.8801 11.877 14.8801 11.8109 14.8911C10.2902 14.8361 9.07812 13.5933 9.07812 12.0535C9.07812 10.4807 10.3453 9.21582 11.9211 9.21582C13.4969 9.21582 14.7641 10.4917 14.7641 12.0535C14.7531 13.5933 13.5409 14.8471 12.0203 14.8911Z" stroke="#FF81DC" stroke-width="1.5" stroke-linecap="round" stroke-linejoin="round"/>
<path d="M8.81275 18.3558C7.25903 19.3897 7.25903 21.0835 8.81275 22.1174C10.5758 23.2942 13.4629 23.2942 15.226 22.1174C16.7797 21.0835 16.7797 19.3897 15.226 18.3558C13.4739 17.19 10.5758 17.19 8.81275 18.3558Z" stroke="#FF81DC" stroke-width="1.5" stroke-linecap="round" stroke-linejoin="round"/>
</svg>
