<svg width="26" height="25" viewBox="0 0 26 25" fill="none" xmlns="http://www.w3.org/2000/svg">
<path d="M21.9161 4.18391V4.08391H21.8161H20.3218C20.087 4.08391 19.899 4.00815 19.75 3.85917C19.601 3.7102 19.5253 3.52222 19.5253 3.28736C19.5253 3.05249 19.601 2.86451 19.75 2.71554C19.899 2.56656 20.087 2.4908 20.3218 2.4908H21.8161H21.9161V2.3908V0.896552C21.9161 0.661685 21.9919 0.473707 22.1408 0.324733C22.2898 0.17576 22.4778 0.1 22.7126 0.1C22.9475 0.1 23.1355 0.17576 23.2845 0.324733C23.4334 0.473707 23.5092 0.661684 23.5092 0.896552V2.3908V2.4908H23.6092H25.1034C25.3383 2.4908 25.5263 2.56656 25.6753 2.71554C25.8242 2.86451 25.9 3.05249 25.9 3.28736C25.9 3.52222 25.8242 3.7102 25.6753 3.85917C25.5263 4.00815 25.3383 4.08391 25.1034 4.08391H23.6092H23.5092V4.18391V5.67816C23.5092 5.91303 23.4334 6.10101 23.2845 6.24998C23.1355 6.39895 22.9475 6.47471 22.7126 6.47471C22.4778 6.47471 22.2898 6.39895 22.1408 6.24998C21.9919 6.101 21.9161 5.91303 21.9161 5.67816V4.18391ZM11.954 24.7046C10.3335 24.7046 8.80296 24.3934 7.36146 23.7714C5.91828 23.1487 4.65881 22.299 3.5822 21.2224C2.5056 20.1458 1.65594 18.8863 1.0332 17.4431C0.411179 16.0016 0.1 14.4711 0.1 12.8506C0.1 11.2099 0.411245 9.66947 1.0332 8.22812C1.6559 6.78503 2.50547 5.53067 3.58188 4.46414C4.65851 3.39738 5.91809 2.55257 7.36146 1.92975C8.80296 1.30773 10.3335 0.996552 11.954 0.996552C12.903 0.996552 13.8167 1.10034 14.6954 1.30767C15.5436 1.5078 16.3501 1.79518 17.115 2.16976C17.0518 2.32896 17.0069 2.49211 16.9805 2.65912C16.9497 2.85422 16.9345 3.0637 16.9345 3.28736C16.9345 3.42919 16.9395 3.56624 16.9497 3.69847C16.9546 3.76139 16.9627 3.8252 16.9741 3.88988C16.2671 3.48493 15.514 3.17226 14.7151 2.95188C13.8392 2.71026 12.9188 2.58965 11.954 2.58965C9.11853 2.58965 6.69734 3.58623 4.69613 5.57739C2.69465 7.56881 1.6931 9.99519 1.6931 12.8506C1.6931 15.6862 2.69478 18.1075 4.69596 20.1086C6.69713 22.1098 9.11837 23.1115 11.954 23.1115C14.8094 23.1115 17.2358 22.1099 19.2272 20.1085C21.2184 18.1073 22.2149 15.6861 22.2149 12.8506C22.2149 12.0864 22.1345 11.3371 21.9735 10.6027C21.8336 9.9641 21.6402 9.35922 21.3933 8.78824C21.5474 8.85528 21.7096 8.91166 21.8797 8.95748C22.1476 9.02958 22.4253 9.06552 22.7126 9.06552H22.9816C23.0448 9.06552 23.1124 9.05985 23.1843 9.04888C23.3876 9.6357 23.5412 10.2361 23.6451 10.85C23.7537 11.4917 23.808 12.1585 23.808 12.8506C23.808 14.4711 23.4969 16.0016 22.8748 17.4431C22.252 18.8865 21.4072 20.1461 20.3405 21.2227C19.2739 22.2991 18.0196 23.1487 16.5765 23.7714C15.1351 24.3933 13.5946 24.7046 11.954 24.7046ZM17.3971 10.7327C17.108 11.0218 16.7504 11.1667 16.3172 11.1667C15.8841 11.1667 15.5264 11.0218 15.2374 10.7327C14.9483 10.4437 14.8034 10.086 14.8034 9.65287C14.8034 9.2197 14.9483 8.86206 15.2374 8.57301C15.5264 8.28395 15.8841 8.13908 16.3172 8.13908C16.7504 8.13908 17.108 8.28395 17.3971 8.57301C17.6862 8.86206 17.831 9.2197 17.831 9.65287C17.831 10.086 17.6862 10.4437 17.3971 10.7327ZM8.67067 10.7327C8.38161 11.0218 8.02398 11.1667 7.59081 11.1667C7.15763 11.1667 6.79999 11.0218 6.51094 10.7327C6.22189 10.4437 6.07701 10.086 6.07701 9.65287C6.07701 9.2197 6.22189 8.86206 6.51094 8.57301C6.79999 8.28395 7.15764 8.13908 7.59081 8.13908C8.02398 8.13908 8.38161 8.28395 8.67067 8.57301C8.95972 8.86206 9.1046 9.2197 9.1046 9.65287C9.1046 10.086 8.95972 10.4437 8.67067 10.7327ZM15.5312 18.2502C14.4415 18.9472 13.2499 19.2954 11.954 19.2954C10.6581 19.2954 9.47164 18.9472 8.39216 18.2505C7.35555 17.5814 6.582 16.6821 6.07036 15.5506H17.8399C17.3464 16.6818 16.5774 17.581 15.5312 18.2502Z" fill="#0CC8B3" fill-opacity="0.7" stroke="white" stroke-width="0.2"/>
<path d="M11.954 24.8045C10.3203 24.8045 8.77625 24.4907 7.32184 23.8631C5.86743 23.2356 4.59732 22.3789 3.51149 21.293C2.42567 20.2072 1.56897 18.9371 0.941379 17.4827C0.313793 16.0283 0 14.4842 0 12.8505C0 11.1969 0.313793 9.64284 0.941379 8.18844C1.56897 6.73403 2.42567 5.4689 3.51149 4.39304C4.59732 3.31717 5.86743 2.46545 7.32184 1.83786C8.77625 1.21028 10.3203 0.896484 11.954 0.896484C12.9103 0.896484 13.8318 1.00108 14.7184 1.21028C15.605 1.41947 16.4467 1.7233 17.2437 2.12177C17.164 2.30108 17.1092 2.48537 17.0793 2.67464C17.0494 2.86392 17.0345 3.06813 17.0345 3.28729C17.0345 3.42675 17.0395 3.56124 17.0494 3.69074C17.0594 3.82024 17.0843 3.95472 17.1241 4.09419C16.3671 3.63595 15.5552 3.28729 14.6885 3.04821C13.8218 2.80913 12.9103 2.68959 11.954 2.68959C9.14483 2.68959 6.74904 3.67579 4.76667 5.64821C2.78429 7.62062 1.7931 10.0214 1.7931 12.8505C1.7931 15.6597 2.78429 18.0555 4.76667 20.0379C6.74904 22.0202 9.14483 23.0114 11.954 23.0114C14.7831 23.0114 17.1839 22.0202 19.1563 20.0379C21.1287 18.0555 22.1149 15.6597 22.1149 12.8505C22.1149 12.0934 22.0352 11.3513 21.8759 10.6241C21.7165 9.89687 21.4874 9.21449 21.1885 8.57694C21.4077 8.69648 21.6467 8.79112 21.9057 8.86085C22.1648 8.93058 22.4337 8.96545 22.7126 8.96545H22.9816C23.0613 8.96545 23.151 8.95549 23.2506 8.93556C23.4697 9.55319 23.6341 10.1858 23.7437 10.8333C23.8533 11.4808 23.908 12.1532 23.908 12.8505C23.908 14.4842 23.5943 16.0283 22.9667 17.4827C22.3391 18.9371 21.4874 20.2072 20.4115 21.293C19.3356 22.3789 18.0705 23.2356 16.6161 23.8631C15.1617 24.4907 13.6077 24.8045 11.954 24.8045ZM16.3172 11.2666C16.7755 11.2666 17.159 11.1122 17.4678 10.8034C17.7766 10.4946 17.931 10.111 17.931 9.65281C17.931 9.19457 17.7766 8.81104 17.4678 8.50223C17.159 8.19342 16.7755 8.03901 16.3172 8.03901C15.859 8.03901 15.4755 8.19342 15.1667 8.50223C14.8579 8.81104 14.7034 9.19457 14.7034 9.65281C14.7034 10.111 14.8579 10.4946 15.1667 10.8034C15.4755 11.1122 15.859 11.2666 16.3172 11.2666ZM7.59081 11.2666C8.04904 11.2666 8.43257 11.1122 8.74138 10.8034C9.05019 10.4946 9.2046 10.111 9.2046 9.65281C9.2046 9.19457 9.05019 8.81104 8.74138 8.50223C8.43257 8.19342 8.04904 8.03901 7.59081 8.03901C7.13257 8.03901 6.74904 8.19342 6.44023 8.50223C6.13142 8.81104 5.97701 9.19457 5.97701 9.65281C5.97701 10.111 6.13142 10.4946 6.44023 10.8034C6.74904 11.1122 7.13257 11.2666 7.59081 11.2666ZM11.954 19.3953C13.269 19.3953 14.4793 19.0417 15.5851 18.3344C16.6908 17.6271 17.4927 16.6658 17.9908 15.4505H5.91724C6.43525 16.6658 7.24215 17.6271 8.33793 18.3344C9.43372 19.0417 10.6391 19.3953 11.954 19.3953Z" fill="#0CC8B3"/>
</svg>
