<svg width="20" height="20" viewBox="0 0 20 20" fill="none" xmlns="http://www.w3.org/2000/svg">
<path d="M1.08936 3.33587C1.80795 0.221377 6.48778 0.221377 7.19738 3.33587C7.61956 5.16316 6.46083 6.7114 5.4548 7.67456C4.71825 8.37667 3.55952 8.36767 2.82296 7.67456C1.82592 6.7114 0.667192 5.16316 1.08936 3.33587Z" stroke="#8A8A8D" stroke-width="1.5"/>
<path d="M12.767 14.1376C13.4856 11.0231 18.1924 11.0231 18.911 14.1376C19.3332 15.9649 18.1744 17.5132 17.1594 18.4763C16.4229 19.1784 15.2552 19.1694 14.5186 18.4763C13.5036 17.5132 12.3449 15.9649 12.767 14.1376Z" stroke="#8A8A8D" stroke-width="1.5"/>
<path d="M10.0091 3.6958H12.4164C14.0781 3.6958 14.8506 5.75713 13.6021 6.8553L6.42516 13.1473C5.17661 14.2365 5.94909 16.2978 7.60185 16.2978H10.0091" stroke="#8A8A8D" stroke-width="1.5" stroke-linecap="round" stroke-linejoin="round"/>
<path d="M4.15775 4.14587H4.16813" stroke="#8A8A8D" stroke-width="2" stroke-linecap="round" stroke-linejoin="round"/>
<path d="M15.835 14.9481H15.8454" stroke="#8A8A8D" stroke-width="2" stroke-linecap="round" stroke-linejoin="round"/>
</svg>
